<mxfile host="65bd71144e" modified="2021-01-17T16:12:28.125Z" agent="5.0 (Windows NT 10.0; Win64; x64) AppleWebKit/537.36 (KHTML, like Gecko) Code/1.52.1 Chrome/83.0.4103.122 Electron/9.3.5 Safari/537.36" etag="5dgaemeLjIVANqh-1SqL" version="13.10.0" type="embed">
    <diagram id="6v7BmJj_ceSCi95pIZ7p" name="Page-1">
        <mxGraphModel dx="2893" dy="680" grid="1" gridSize="10" guides="1" tooltips="1" connect="1" arrows="1" fold="1" page="1" pageScale="1" pageWidth="827" pageHeight="1169" background="#FFFFFF" math="0" shadow="1">
            <root>
                <mxCell id="0"/>
                <mxCell id="1" parent="0"/>
                <mxCell id="35" value="" style="rounded=1;whiteSpace=wrap;html=1;strokeColor=#000000;fillColor=#FFFFFF;" parent="1" vertex="1">
                    <mxGeometry x="-79.5" y="1040" width="409.5" height="140" as="geometry"/>
                </mxCell>
                <mxCell id="4hbtPa9VFHNtGfl8PcOY-173" value="" style="fillColor=none;strokeColor=#5A6C86;dashed=1;verticalAlign=top;fontStyle=0;fontColor=#5A6C86;" parent="1" vertex="1">
                    <mxGeometry x="80" y="530" width="480" height="120" as="geometry"/>
                </mxCell>
                <mxCell id="156" value="" style="text;html=1;fillColor=none;align=center;verticalAlign=middle;whiteSpace=wrap;rounded=0;fontSize=10;fontColor=#000000;strokeColor=#999999;" parent="1" vertex="1">
                    <mxGeometry x="190.75" y="665" width="349.25" height="265" as="geometry"/>
                </mxCell>
                <mxCell id="4hbtPa9VFHNtGfl8PcOY-165" value="AWS Cloud" style="points=[[0,0],[0.25,0],[0.5,0],[0.75,0],[1,0],[1,0.25],[1,0.5],[1,0.75],[1,1],[0.75,1],[0.5,1],[0.25,1],[0,1],[0,0.75],[0,0.5],[0,0.25]];outlineConnect=0;gradientColor=none;html=1;whiteSpace=wrap;fontSize=12;fontStyle=0;shape=mxgraph.aws4.group;grIcon=mxgraph.aws4.group_aws_cloud_alt;fillColor=none;verticalAlign=top;align=left;spacingLeft=30;fontColor=#232F3E;dashed=0;strokeColor=#000000;" parent="1" vertex="1">
                    <mxGeometry x="80" y="421.5" width="480" height="500" as="geometry"/>
                </mxCell>
                <mxCell id="152" value="" style="text;html=1;fillColor=none;align=center;verticalAlign=middle;whiteSpace=wrap;rounded=0;fontSize=10;fontColor=#000000;strokeColor=#999999;" parent="1" vertex="1">
                    <mxGeometry x="-320" y="640" width="240" height="90" as="geometry"/>
                </mxCell>
                <mxCell id="62" value="" style="endArrow=classic;html=1;strokeColor=#000000;exitX=0;exitY=0;exitDx=52;exitDy=36.5;exitPerimeter=0;" parent="1" source="52" target="61" edge="1">
                    <mxGeometry width="50" height="50" relative="1" as="geometry">
                        <mxPoint x="267.25" y="1092.12" as="sourcePoint"/>
                        <mxPoint x="473.75" y="1090.7819870410365" as="targetPoint"/>
                    </mxGeometry>
                </mxCell>
                <mxCell id="48" value="&lt;font color=&quot;#000000&quot;&gt;API Server&lt;br&gt;&lt;/font&gt;" style="text;html=1;strokeColor=none;fillColor=none;align=center;verticalAlign=middle;whiteSpace=wrap;rounded=0;" parent="1" vertex="1">
                    <mxGeometry x="-59" y="1120" width="69" height="20" as="geometry"/>
                </mxCell>
                <mxCell id="50" value="" style="endArrow=classic;html=1;strokeColor=#000000;exitX=0.098;exitY=0.637;exitDx=0;exitDy=0;exitPerimeter=0;" parent="1" target="4hbtPa9VFHNtGfl8PcOY-164" edge="1">
                    <mxGeometry width="50" height="50" relative="1" as="geometry">
                        <mxPoint x="-59.95499999999993" y="1077.6462500000002" as="sourcePoint"/>
                        <mxPoint x="-100" y="1040" as="targetPoint"/>
                    </mxGeometry>
                </mxCell>
                <mxCell id="52" value="" style="shape=note;whiteSpace=wrap;html=1;backgroundOutline=1;darkOpacity=0.05;strokeColor=#000000;fillColor=#FFFFFF;size=13;" parent="1" vertex="1">
                    <mxGeometry x="215.25" y="1055.62" width="52" height="60" as="geometry"/>
                </mxCell>
                <mxCell id="53" value="&lt;font color=&quot;#000000&quot;&gt;ArticleData(*.md, *.toml, img)&lt;br&gt;&lt;/font&gt;" style="text;html=1;strokeColor=none;fillColor=none;align=center;verticalAlign=middle;whiteSpace=wrap;rounded=0;" parent="1" vertex="1">
                    <mxGeometry x="160" y="1120" width="162.5" height="20" as="geometry"/>
                </mxCell>
                <mxCell id="54" value="" style="endArrow=classic;html=1;strokeColor=#000000;exitX=0;exitY=0;exitDx=52;exitDy=36.5;exitPerimeter=0;" parent="1" source="61" edge="1">
                    <mxGeometry width="50" height="50" relative="1" as="geometry">
                        <mxPoint x="300" y="1020" as="sourcePoint"/>
                        <mxPoint x="473.75" y="1090.0991666666664" as="targetPoint"/>
                    </mxGeometry>
                </mxCell>
                <mxCell id="55" value="" style="endArrow=classic;html=1;strokeColor=#000000;entryX=0.543;entryY=1.026;entryDx=0;entryDy=0;entryPerimeter=0;" parent="1" source="61" target="4hbtPa9VFHNtGfl8PcOY-219" edge="1">
                    <mxGeometry width="50" height="50" relative="1" as="geometry">
                        <mxPoint x="500" y="1100" as="sourcePoint"/>
                        <mxPoint x="530" y="980" as="targetPoint"/>
                        <Array as="points">
                            <mxPoint x="500" y="1090"/>
                        </Array>
                    </mxGeometry>
                </mxCell>
                <mxCell id="57" value="" style="endArrow=classic;html=1;strokeColor=#000000;" parent="1" source="4hbtPa9VFHNtGfl8PcOY-168" target="4hbtPa9VFHNtGfl8PcOY-166" edge="1">
                    <mxGeometry width="50" height="50" relative="1" as="geometry">
                        <mxPoint x="220" y="900" as="sourcePoint"/>
                        <mxPoint x="270" y="850" as="targetPoint"/>
                    </mxGeometry>
                </mxCell>
                <mxCell id="58" value="" style="endArrow=none;html=1;strokeColor=#000000;entryX=0.5;entryY=0;entryDx=0;entryDy=0;" parent="1" target="4hbtPa9VFHNtGfl8PcOY-245" edge="1">
                    <mxGeometry width="50" height="50" relative="1" as="geometry">
                        <mxPoint x="233" y="850" as="sourcePoint"/>
                        <mxPoint x="210" y="800" as="targetPoint"/>
                    </mxGeometry>
                </mxCell>
                <mxCell id="60" value="" style="endArrow=classic;html=1;strokeColor=#000000;" parent="1" edge="1">
                    <mxGeometry width="50" height="50" relative="1" as="geometry">
                        <mxPoint x="463.5" y="829.9999999999999" as="sourcePoint"/>
                        <mxPoint x="360.5" y="829.9999999999999" as="targetPoint"/>
                    </mxGeometry>
                </mxCell>
                <mxCell id="67" value="" style="outlineConnect=0;fontColor=#232F3E;gradientColor=#F34482;gradientDirection=north;fillColor=#BC1356;strokeColor=#ffffff;dashed=0;verticalLabelPosition=bottom;verticalAlign=top;align=center;html=1;fontSize=12;fontStyle=0;aspect=fixed;shape=mxgraph.aws4.resourceIcon;resIcon=mxgraph.aws4.sqs;" parent="1" vertex="1">
                    <mxGeometry x="302.5" y="710" width="58" height="58" as="geometry"/>
                </mxCell>
                <mxCell id="68" value="" style="endArrow=classic;html=1;strokeColor=#000000;entryX=0.5;entryY=1;entryDx=0;entryDy=0;" parent="1" source="4hbtPa9VFHNtGfl8PcOY-168" target="144" edge="1">
                    <mxGeometry width="50" height="50" relative="1" as="geometry">
                        <mxPoint x="230" y="810" as="sourcePoint"/>
                        <mxPoint x="332" y="800" as="targetPoint"/>
                    </mxGeometry>
                </mxCell>
                <mxCell id="69" value="" style="outlineConnect=0;fontColor=#232F3E;gradientColor=#F78E04;gradientDirection=north;fillColor=#D05C17;strokeColor=#ffffff;dashed=0;verticalLabelPosition=bottom;verticalAlign=top;align=center;html=1;fontSize=12;fontStyle=0;aspect=fixed;shape=mxgraph.aws4.resourceIcon;resIcon=mxgraph.aws4.lambda;" parent="1" vertex="1">
                    <mxGeometry x="209.25" y="710" width="58" height="58" as="geometry"/>
                </mxCell>
                <mxCell id="70" value="" style="endArrow=classic;html=1;strokeColor=#000000;" parent="1" edge="1">
                    <mxGeometry width="50" height="50" relative="1" as="geometry">
                        <mxPoint x="300" y="759" as="sourcePoint"/>
                        <mxPoint x="270" y="758.66" as="targetPoint"/>
                    </mxGeometry>
                </mxCell>
                <mxCell id="71" value="Create Body Lambda" style="text;html=1;strokeColor=none;fillColor=none;align=center;verticalAlign=middle;whiteSpace=wrap;rounded=0;fontSize=10;fontColor=#000000;" parent="1" vertex="1">
                    <mxGeometry x="177.5" y="768" width="121.5" height="20" as="geometry"/>
                </mxCell>
                <mxCell id="72" value="" style="endArrow=classic;html=1;strokeColor=#000000;" parent="1" source="69" target="4hbtPa9VFHNtGfl8PcOY-166" edge="1">
                    <mxGeometry width="50" height="50" relative="1" as="geometry">
                        <mxPoint x="310" y="769" as="sourcePoint"/>
                        <mxPoint x="280" y="768.6599999999999" as="targetPoint"/>
                        <Array as="points">
                            <mxPoint x="151" y="739"/>
                        </Array>
                    </mxGeometry>
                </mxCell>
                <mxCell id="74" value="" style="endArrow=none;html=1;strokeColor=#000000;exitX=0.459;exitY=1.013;exitDx=0;exitDy=0;exitPerimeter=0;" parent="1" source="73" edge="1">
                    <mxGeometry width="50" height="50" relative="1" as="geometry">
                        <mxPoint x="251" y="860" as="sourcePoint"/>
                        <mxPoint x="172" y="740" as="targetPoint"/>
                    </mxGeometry>
                </mxCell>
                <mxCell id="78" value="" style="endArrow=classic;html=1;strokeColor=#000000;fontSize=10;fontColor=#F0F0F0;exitX=0.5;exitY=0;exitDx=0;exitDy=0;" parent="1" target="65" edge="1">
                    <mxGeometry width="50" height="50" relative="1" as="geometry">
                        <mxPoint x="109.24500000000035" y="1055.9399999999998" as="sourcePoint"/>
                        <mxPoint x="240" y="1000" as="targetPoint"/>
                    </mxGeometry>
                </mxCell>
                <mxCell id="82" value="" style="outlineConnect=0;fontColor=#232F3E;gradientColor=#F54749;gradientDirection=north;fillColor=#C7131F;strokeColor=#ffffff;dashed=0;verticalLabelPosition=bottom;verticalAlign=top;align=center;html=1;fontSize=12;fontStyle=0;aspect=fixed;shape=mxgraph.aws4.resourceIcon;resIcon=mxgraph.aws4.certificate_manager_3;" parent="1" vertex="1">
                    <mxGeometry x="132" y="444" width="56" height="56" as="geometry"/>
                </mxCell>
                <mxCell id="83" value="" style="endArrow=classic;html=1;strokeColor=#000000;fontSize=10;fontColor=#F0F0F0;exitX=0.5;exitY=1;exitDx=0;exitDy=0;" parent="1" source="139" target="4hbtPa9VFHNtGfl8PcOY-170" edge="1">
                    <mxGeometry width="50" height="50" relative="1" as="geometry">
                        <mxPoint x="159" y="520" as="sourcePoint"/>
                        <mxPoint x="30" y="510" as="targetPoint"/>
                    </mxGeometry>
                </mxCell>
                <mxCell id="90" value="" style="endArrow=none;html=1;strokeColor=#000000;fontSize=10;fontColor=#F0F0F0;entryX=0.442;entryY=1.052;entryDx=0;entryDy=0;entryPerimeter=0;" parent="1" target="4hbtPa9VFHNtGfl8PcOY-236" edge="1">
                    <mxGeometry width="50" height="50" relative="1" as="geometry">
                        <mxPoint x="220" y="600" as="sourcePoint"/>
                        <mxPoint x="260" y="580" as="targetPoint"/>
                    </mxGeometry>
                </mxCell>
                <mxCell id="91" value="" style="endArrow=classic;startArrow=classic;html=1;strokeColor=#000000;fontSize=10;fontColor=#F0F0F0;" parent="1" edge="1">
                    <mxGeometry width="50" height="50" relative="1" as="geometry">
                        <mxPoint x="190" y="600" as="sourcePoint"/>
                        <mxPoint x="250" y="600" as="targetPoint"/>
                    </mxGeometry>
                </mxCell>
                <mxCell id="96" value="" style="endArrow=classic;startArrow=classic;html=1;strokeColor=#000000;fontSize=10;fontColor=#F0F0F0;entryX=-0.032;entryY=0.593;entryDx=0;entryDy=0;entryPerimeter=0;" parent="1" target="4hbtPa9VFHNtGfl8PcOY-170" edge="1">
                    <mxGeometry width="50" height="50" relative="1" as="geometry">
                        <mxPoint y="600" as="sourcePoint"/>
                        <mxPoint x="50" y="550" as="targetPoint"/>
                    </mxGeometry>
                </mxCell>
                <mxCell id="97" value="" style="endArrow=classic;html=1;strokeColor=#000000;fontSize=10;fontColor=#F0F0F0;exitX=-0.04;exitY=0.467;exitDx=0;exitDy=0;exitPerimeter=0;" parent="1" source="65" target="4hbtPa9VFHNtGfl8PcOY-169" edge="1">
                    <mxGeometry width="50" height="50" relative="1" as="geometry">
                        <mxPoint x="23" y="975.0000000000002" as="sourcePoint"/>
                        <mxPoint x="30" y="710" as="targetPoint"/>
                        <Array as="points">
                            <mxPoint y="975"/>
                            <mxPoint y="660"/>
                            <mxPoint x="468" y="660"/>
                        </Array>
                    </mxGeometry>
                </mxCell>
                <mxCell id="106" value="" style="endArrow=classic;html=1;strokeColor=#000000;exitX=1;exitY=0.75;exitDx=0;exitDy=0;" parent="1" edge="1">
                    <mxGeometry width="50" height="50" relative="1" as="geometry">
                        <mxPoint x="-79.5" y="838.4375000000002" as="sourcePoint"/>
                        <mxPoint y="838" as="targetPoint"/>
                    </mxGeometry>
                </mxCell>
                <mxCell id="112" value="" style="endArrow=classic;html=1;strokeColor=#000000;exitX=0.5;exitY=1;exitDx=0;exitDy=0;entryX=0.5;entryY=0;entryDx=0;entryDy=0;" parent="1" source="4hbtPa9VFHNtGfl8PcOY-220" edge="1">
                    <mxGeometry width="50" height="50" relative="1" as="geometry">
                        <mxPoint x="341.50000000000045" y="830" as="sourcePoint"/>
                        <mxPoint x="331.5" y="955" as="targetPoint"/>
                    </mxGeometry>
                </mxCell>
                <mxCell id="113" value="Slack(Messenger)" style="text;html=1;strokeColor=none;fillColor=none;align=center;verticalAlign=middle;whiteSpace=wrap;rounded=0;fontSize=12;fontColor=#000000;" parent="1" vertex="1">
                    <mxGeometry x="281.5" y="980" width="101" height="20" as="geometry"/>
                </mxCell>
                <mxCell id="114" value="レコード作成&lt;br style=&quot;font-size: 10px;&quot;&gt;成否通知" style="text;html=1;fillColor=none;align=center;verticalAlign=middle;whiteSpace=wrap;rounded=0;fontSize=10;fontColor=#000000;strokeColor=#000000;" parent="1" vertex="1">
                    <mxGeometry x="391.25" y="952" width="81" height="30" as="geometry"/>
                </mxCell>
                <mxCell id="116" value="" style="endArrow=none;html=1;strokeColor=#000000;entryX=0.5;entryY=0;entryDx=0;entryDy=0;" parent="1" target="114" edge="1">
                    <mxGeometry width="50" height="50" relative="1" as="geometry">
                        <mxPoint x="330" y="940" as="sourcePoint"/>
                        <mxPoint x="450" y="930" as="targetPoint"/>
                        <Array as="points">
                            <mxPoint x="432" y="940"/>
                        </Array>
                    </mxGeometry>
                </mxCell>
                <mxCell id="121" value="" style="endArrow=classic;html=1;strokeColor=#000000;exitX=0.404;exitY=1.081;exitDx=0;exitDy=0;exitPerimeter=0;" parent="1" source="4hbtPa9VFHNtGfl8PcOY-219" edge="1">
                    <mxGeometry width="50" height="50" relative="1" as="geometry">
                        <mxPoint x="433" y="910" as="sourcePoint"/>
                        <mxPoint y="910" as="targetPoint"/>
                        <Array as="points">
                            <mxPoint x="476" y="910"/>
                            <mxPoint x="40" y="910"/>
                        </Array>
                    </mxGeometry>
                </mxCell>
                <mxCell id="122" value="&lt;font style=&quot;font-size: 10px&quot;&gt;記事レコード&lt;br&gt;取得&lt;/font&gt;" style="text;html=1;fillColor=none;align=center;verticalAlign=middle;whiteSpace=wrap;rounded=0;fontSize=10;fontColor=#000000;strokeColor=#000000;" parent="1" vertex="1">
                    <mxGeometry x="3" y="780" width="71.75" height="30" as="geometry"/>
                </mxCell>
                <mxCell id="123" value="imgデータ取得" style="text;html=1;fillColor=none;align=center;verticalAlign=middle;whiteSpace=wrap;rounded=0;fontSize=10;fontColor=#000000;strokeColor=#000000;" parent="1" vertex="1">
                    <mxGeometry x="3" y="878" width="73" height="20" as="geometry"/>
                </mxCell>
                <mxCell id="124" value="" style="endArrow=none;html=1;strokeColor=#000000;fontSize=10;entryX=0.5;entryY=1;entryDx=0;entryDy=0;" parent="1" target="123" edge="1">
                    <mxGeometry width="50" height="50" relative="1" as="geometry">
                        <mxPoint x="40" y="910" as="sourcePoint"/>
                        <mxPoint x="80" y="890" as="targetPoint"/>
                    </mxGeometry>
                </mxCell>
                <mxCell id="125" value="" style="endArrow=none;html=1;strokeColor=#000000;fontSize=10;" parent="1" edge="1">
                    <mxGeometry width="50" height="50" relative="1" as="geometry">
                        <mxPoint x="-30" y="840" as="sourcePoint"/>
                        <mxPoint x="39" y="810" as="targetPoint"/>
                        <Array as="points">
                            <mxPoint x="-30" y="820"/>
                            <mxPoint x="39" y="820"/>
                        </Array>
                    </mxGeometry>
                </mxCell>
                <mxCell id="126" value="" style="endArrow=classic;html=1;strokeColor=#000000;fontSize=10;" parent="1" source="4hbtPa9VFHNtGfl8PcOY-167" target="69" edge="1">
                    <mxGeometry width="50" height="50" relative="1" as="geometry">
                        <mxPoint x="320" y="730" as="sourcePoint"/>
                        <mxPoint x="370" y="680" as="targetPoint"/>
                        <Array as="points">
                            <mxPoint x="493" y="680"/>
                            <mxPoint x="243" y="680"/>
                        </Array>
                    </mxGeometry>
                </mxCell>
                <mxCell id="129" value="GitHub Actions&lt;br style=&quot;font-size: 10px;&quot;&gt;(記事データアップロード)" style="text;html=1;fillColor=none;align=center;verticalAlign=middle;whiteSpace=wrap;rounded=0;fontSize=10;fontColor=#000000;strokeColor=#000000;" parent="1" vertex="1">
                    <mxGeometry x="521.25" y="1045" width="128" height="30" as="geometry"/>
                </mxCell>
                <mxCell id="131" value="" style="endArrow=none;html=1;fontSize=12;fontColor=#000000;entryX=0;entryY=0.5;entryDx=0;entryDy=0;strokeColor=#000000;" parent="1" target="129" edge="1">
                    <mxGeometry width="50" height="50" relative="1" as="geometry">
                        <mxPoint x="500" y="1060" as="sourcePoint"/>
                        <mxPoint x="539.62" y="1099.84" as="targetPoint"/>
                        <Array as="points"/>
                    </mxGeometry>
                </mxCell>
                <mxCell id="135" value="GitHub Apps&lt;br style=&quot;font-size: 10px;&quot;&gt;(Google Cloud Build)" style="text;html=1;fillColor=none;align=center;verticalAlign=middle;whiteSpace=wrap;rounded=0;fontSize=10;fontColor=#000000;strokeColor=#000000;" parent="1" vertex="1">
                    <mxGeometry x="-183.25" y="1015" width="103.75" height="30" as="geometry"/>
                </mxCell>
                <mxCell id="137" value="" style="endArrow=none;html=1;strokeColor=#000000;fontSize=10;entryX=0.013;entryY=0.351;entryDx=0;entryDy=0;entryPerimeter=0;" parent="1" target="135" edge="1">
                    <mxGeometry width="50" height="50" relative="1" as="geometry">
                        <mxPoint x="-210" y="1025" as="sourcePoint"/>
                        <mxPoint x="-320" y="1060" as="targetPoint"/>
                    </mxGeometry>
                </mxCell>
                <mxCell id="138" value="GitHub Actions&lt;br style=&quot;font-size: 10px;&quot;&gt;(静的ビルド＆デプロイ)" style="text;html=1;fillColor=none;align=center;verticalAlign=middle;whiteSpace=wrap;rounded=0;fontSize=10;fontColor=#000000;strokeColor=#000000;" parent="1" vertex="1">
                    <mxGeometry x="-46.37" y="1000" width="116.37" height="30" as="geometry"/>
                </mxCell>
                <mxCell id="139" value="&lt;span style=&quot;color: rgb(0 , 0 , 0) ; font-size: 12px&quot;&gt;ACM(SSL/TLS 証明書)&lt;/span&gt;" style="text;html=1;strokeColor=none;fillColor=none;align=center;verticalAlign=middle;whiteSpace=wrap;rounded=0;fontSize=10;" parent="1" vertex="1">
                    <mxGeometry x="93.5" y="500" width="133" height="20" as="geometry"/>
                </mxCell>
                <mxCell id="141" value="&lt;span style=&quot;color: rgb(0 , 0 , 0) ; font-size: 12px&quot;&gt;記事データ(.toml, .md, img)用&lt;br&gt;リポジトリ&lt;/span&gt;" style="text;html=1;strokeColor=none;fillColor=none;align=center;verticalAlign=middle;whiteSpace=wrap;rounded=0;fontSize=10;" parent="1" vertex="1">
                    <mxGeometry x="351.25" y="1128.65" width="170" height="20" as="geometry"/>
                </mxCell>
                <mxCell id="142" value="&lt;span style=&quot;color: rgb(0 , 0 , 0) ; font-size: 12px&quot;&gt;フロントエンド用&lt;br&gt;リポジトリ&lt;/span&gt;" style="text;html=1;strokeColor=none;fillColor=none;align=center;verticalAlign=middle;whiteSpace=wrap;rounded=0;fontSize=10;" parent="1" vertex="1">
                    <mxGeometry x="111.25" y="967.5" width="170" height="20" as="geometry"/>
                </mxCell>
                <mxCell id="143" value="&lt;span style=&quot;color: rgb(0 , 0 , 0) ; font-size: 12px&quot;&gt;APIサーバー用&lt;br&gt;リポジトリ&lt;/span&gt;" style="text;html=1;strokeColor=none;fillColor=none;align=center;verticalAlign=middle;whiteSpace=wrap;rounded=0;fontSize=10;" parent="1" vertex="1">
                    <mxGeometry x="-261.94" y="1120" width="98.88" height="20" as="geometry"/>
                </mxCell>
                <mxCell id="145" value="&lt;font color=&quot;#000000&quot; style=&quot;font-size: 16px;&quot;&gt;凡例:&lt;/font&gt;" style="text;html=1;strokeColor=none;fillColor=none;align=center;verticalAlign=middle;whiteSpace=wrap;rounded=0;fontSize=16;" parent="1" vertex="1">
                    <mxGeometry x="-320" y="642" width="40" height="20" as="geometry"/>
                </mxCell>
                <mxCell id="148" value="アクション詳細" style="text;html=1;fillColor=none;align=center;verticalAlign=middle;whiteSpace=wrap;rounded=0;fontSize=10;fontColor=#000000;strokeColor=#000000;" parent="1" vertex="1">
                    <mxGeometry x="-183.25" y="700" width="75" height="20" as="geometry"/>
                </mxCell>
                <mxCell id="149" value="" style="endArrow=classic;html=1;strokeColor=#000000;fontSize=14;" parent="1" edge="1">
                    <mxGeometry width="50" height="50" relative="1" as="geometry">
                        <mxPoint x="-190.75" y="690" as="sourcePoint"/>
                        <mxPoint x="-100.75" y="690" as="targetPoint"/>
                    </mxGeometry>
                </mxCell>
                <mxCell id="150" value="" style="endArrow=none;html=1;strokeColor=#000000;fontSize=14;exitX=0.5;exitY=0;exitDx=0;exitDy=0;" parent="1" source="148" edge="1">
                    <mxGeometry width="50" height="50" relative="1" as="geometry">
                        <mxPoint x="-180" y="700" as="sourcePoint"/>
                        <mxPoint x="-146" y="690" as="targetPoint"/>
                    </mxGeometry>
                </mxCell>
                <mxCell id="144" value="&lt;span style=&quot;color: rgb(0 , 0 , 0)&quot;&gt;SQS&lt;/span&gt;" style="text;html=1;strokeColor=none;fillColor=none;align=center;verticalAlign=middle;whiteSpace=wrap;rounded=0;fontSize=10;" parent="1" vertex="1">
                    <mxGeometry x="282" y="768" width="100" height="20" as="geometry"/>
                </mxCell>
                <mxCell id="65" value="" style="dashed=0;outlineConnect=0;html=1;align=center;labelPosition=center;verticalLabelPosition=bottom;verticalAlign=top;shape=mxgraph.weblogos.github" parent="1" vertex="1">
                    <mxGeometry x="73" y="939.9999999999999" width="75" height="75" as="geometry"/>
                </mxCell>
                <mxCell id="47" value="&lt;font color=&quot;#000000&quot;&gt;FrontEnd&lt;br&gt;&lt;/font&gt;" style="text;html=1;strokeColor=none;fillColor=none;align=center;verticalAlign=middle;whiteSpace=wrap;rounded=0;" parent="1" vertex="1">
                    <mxGeometry x="74.75" y="1120" width="69" height="20" as="geometry"/>
                </mxCell>
                <mxCell id="147" value="&lt;font color=&quot;#000000&quot;&gt;&lt;span style=&quot;font-size: 12px&quot;&gt;リソース名&lt;/span&gt;&lt;/font&gt;" style="text;html=1;strokeColor=none;fillColor=none;align=center;verticalAlign=middle;whiteSpace=wrap;rounded=0;fontSize=10;" parent="1" vertex="1">
                    <mxGeometry x="-272" y="700" width="78.88" height="20" as="geometry"/>
                </mxCell>
                <mxCell id="4hbtPa9VFHNtGfl8PcOY-164" value="" style="dashed=0;outlineConnect=0;html=1;align=center;labelPosition=center;verticalLabelPosition=bottom;verticalAlign=top;shape=mxgraph.weblogos.github" parent="1" vertex="1">
                    <mxGeometry x="-250" y="1040.62" width="75" height="75" as="geometry"/>
                </mxCell>
                <mxCell id="4hbtPa9VFHNtGfl8PcOY-166" value="" style="outlineConnect=0;fontColor=#232F3E;gradientColor=#4D72F3;gradientDirection=north;fillColor=#3334B9;strokeColor=#ffffff;dashed=0;verticalLabelPosition=bottom;verticalAlign=top;align=center;html=1;fontSize=12;fontStyle=0;aspect=fixed;shape=mxgraph.aws4.resourceIcon;resIcon=mxgraph.aws4.dynamodb;" parent="1" vertex="1">
                    <mxGeometry x="121.5" y="820" width="58" height="58" as="geometry"/>
                </mxCell>
                <mxCell id="4hbtPa9VFHNtGfl8PcOY-167" value="" style="outlineConnect=0;fontColor=#232F3E;gradientColor=#60A337;gradientDirection=north;fillColor=#277116;strokeColor=#ffffff;dashed=0;verticalLabelPosition=bottom;verticalAlign=top;align=center;html=1;fontSize=12;fontStyle=0;aspect=fixed;shape=mxgraph.aws4.resourceIcon;resIcon=mxgraph.aws4.s3;" parent="1" vertex="1">
                    <mxGeometry x="463.5" y="820" width="58" height="58" as="geometry"/>
                </mxCell>
                <mxCell id="4hbtPa9VFHNtGfl8PcOY-168" value="" style="outlineConnect=0;fontColor=#232F3E;gradientColor=#F78E04;gradientDirection=north;fillColor=#D05C17;strokeColor=#ffffff;dashed=0;verticalLabelPosition=bottom;verticalAlign=top;align=center;html=1;fontSize=12;fontStyle=0;aspect=fixed;shape=mxgraph.aws4.resourceIcon;resIcon=mxgraph.aws4.lambda;" parent="1" vertex="1">
                    <mxGeometry x="302.5" y="820" width="58" height="58" as="geometry"/>
                </mxCell>
                <mxCell id="4hbtPa9VFHNtGfl8PcOY-169" value="" style="outlineConnect=0;fontColor=#232F3E;gradientColor=#60A337;gradientDirection=north;fillColor=#277116;strokeColor=#ffffff;dashed=0;verticalLabelPosition=bottom;verticalAlign=top;align=center;html=1;fontSize=12;fontStyle=0;aspect=fixed;shape=mxgraph.aws4.resourceIcon;resIcon=mxgraph.aws4.s3;" parent="1" vertex="1">
                    <mxGeometry x="440" y="568" width="54" height="54" as="geometry"/>
                </mxCell>
                <mxCell id="4hbtPa9VFHNtGfl8PcOY-170" value="" style="outlineConnect=0;fontColor=#232F3E;gradientColor=#945DF2;gradientDirection=north;fillColor=#5A30B5;strokeColor=#ffffff;dashed=0;verticalLabelPosition=bottom;verticalAlign=top;align=center;html=1;fontSize=12;fontStyle=0;aspect=fixed;shape=mxgraph.aws4.resourceIcon;resIcon=mxgraph.aws4.route_53;" parent="1" vertex="1">
                    <mxGeometry x="131.75" y="568" width="54" height="54" as="geometry"/>
                </mxCell>
                <mxCell id="4hbtPa9VFHNtGfl8PcOY-171" value="" style="outlineConnect=0;fontColor=#232F3E;gradientColor=#945DF2;gradientDirection=north;fillColor=#5A30B5;strokeColor=#ffffff;dashed=0;verticalLabelPosition=bottom;verticalAlign=top;align=center;html=1;fontSize=12;fontStyle=0;aspect=fixed;shape=mxgraph.aws4.resourceIcon;resIcon=mxgraph.aws4.cloudfront;" parent="1" vertex="1">
                    <mxGeometry x="250" y="568" width="54" height="54" as="geometry"/>
                </mxCell>
                <mxCell id="4hbtPa9VFHNtGfl8PcOY-175" style="edgeStyle=orthogonalEdgeStyle;rounded=0;orthogonalLoop=1;jettySize=auto;html=1;exitX=0.5;exitY=1;exitDx=0;exitDy=0;" parent="1" source="4hbtPa9VFHNtGfl8PcOY-173" target="4hbtPa9VFHNtGfl8PcOY-173" edge="1">
                    <mxGeometry relative="1" as="geometry"/>
                </mxCell>
                <mxCell id="4hbtPa9VFHNtGfl8PcOY-176" value="" style="outlineConnect=0;fontColor=#232F3E;gradientColor=none;fillColor=#232F3E;strokeColor=none;dashed=0;verticalLabelPosition=bottom;verticalAlign=top;align=center;html=1;fontSize=12;fontStyle=0;aspect=fixed;pointerEvents=1;shape=mxgraph.aws4.internet_alt2;" parent="1" vertex="1">
                    <mxGeometry x="43.5" y="556" width="78" height="78" as="geometry"/>
                </mxCell>
                <mxCell id="4hbtPa9VFHNtGfl8PcOY-177" value="" style="outlineConnect=0;fontColor=#232F3E;gradientColor=none;fillColor=#232F3E;strokeColor=none;dashed=0;verticalLabelPosition=bottom;verticalAlign=top;align=center;html=1;fontSize=12;fontStyle=0;aspect=fixed;pointerEvents=1;shape=mxgraph.aws4.user;" parent="1" vertex="1">
                    <mxGeometry x="-78" y="540" width="78" height="78" as="geometry"/>
                </mxCell>
                <mxCell id="4hbtPa9VFHNtGfl8PcOY-188" value="" style="edgeStyle=orthogonalEdgeStyle;html=1;endArrow=block;elbow=vertical;startArrow=none;endFill=1;strokeColor=#545B64;rounded=0;fontColor=#F0F0F0;" parent="1" source="4hbtPa9VFHNtGfl8PcOY-168" target="4hbtPa9VFHNtGfl8PcOY-168" edge="1">
                    <mxGeometry width="100" relative="1" as="geometry">
                        <mxPoint x="391.5" y="839" as="sourcePoint"/>
                        <mxPoint x="391.5" y="870" as="targetPoint"/>
                        <Array as="points">
                            <mxPoint x="462" y="849"/>
                            <mxPoint x="462" y="870"/>
                        </Array>
                    </mxGeometry>
                </mxCell>
                <mxCell id="4hbtPa9VFHNtGfl8PcOY-219" value="S3(ArticleAssets)" style="text;html=1;strokeColor=none;fillColor=none;align=center;verticalAlign=middle;whiteSpace=wrap;rounded=0;fontSize=10;fontColor=#000000;" parent="1" vertex="1">
                    <mxGeometry x="404.5" y="878" width="176" height="20" as="geometry"/>
                </mxCell>
                <mxCell id="4hbtPa9VFHNtGfl8PcOY-220" value="Create Meta Record Lambda" style="text;html=1;strokeColor=none;fillColor=none;align=center;verticalAlign=middle;whiteSpace=wrap;rounded=0;fontSize=10;fontColor=#000000;" parent="1" vertex="1">
                    <mxGeometry x="267" y="878" width="129" height="20" as="geometry"/>
                </mxCell>
                <mxCell id="4hbtPa9VFHNtGfl8PcOY-221" value="DynamoDB&lt;br&gt;(記事レコード用)" style="text;html=1;strokeColor=none;fillColor=none;align=center;verticalAlign=middle;whiteSpace=wrap;rounded=0;fontSize=10;fontColor=#000000;" parent="1" vertex="1">
                    <mxGeometry x="100" y="878" width="101" height="20" as="geometry"/>
                </mxCell>
                <mxCell id="4hbtPa9VFHNtGfl8PcOY-223" value="Route 53" style="text;html=1;strokeColor=none;fillColor=none;align=center;verticalAlign=middle;whiteSpace=wrap;rounded=0;fontSize=11;fontColor=#000000;" parent="1" vertex="1">
                    <mxGeometry x="111.25" y="622" width="101" height="20" as="geometry"/>
                </mxCell>
                <mxCell id="4hbtPa9VFHNtGfl8PcOY-224" value="CloudFront" style="text;html=1;strokeColor=none;fillColor=none;align=center;verticalAlign=middle;whiteSpace=wrap;rounded=0;fontSize=10;fontColor=#000000;" parent="1" vertex="1">
                    <mxGeometry x="226.5" y="620" width="101" height="20" as="geometry"/>
                </mxCell>
                <mxCell id="4hbtPa9VFHNtGfl8PcOY-225" value="Origin Request Redirect&lt;br style=&quot;font-size: 10px;&quot;&gt;(Lambda@Edge)" style="text;html=1;strokeColor=none;fillColor=none;align=center;verticalAlign=middle;whiteSpace=wrap;rounded=0;fontSize=10;fontColor=#000000;" parent="1" vertex="1">
                    <mxGeometry x="310.5" y="590" width="129.5" height="20" as="geometry"/>
                </mxCell>
                <mxCell id="4hbtPa9VFHNtGfl8PcOY-226" value="Public" style="text;html=1;strokeColor=none;fillColor=none;align=center;verticalAlign=middle;whiteSpace=wrap;rounded=0;fontSize=12;fontColor=#000000;" parent="1" vertex="1">
                    <mxGeometry x="81.5" y="530" width="40" height="20" as="geometry"/>
                </mxCell>
                <mxCell id="4hbtPa9VFHNtGfl8PcOY-227" value="User" style="text;html=1;strokeColor=none;fillColor=none;align=center;verticalAlign=middle;whiteSpace=wrap;rounded=0;fontSize=12;fontColor=#000000;" parent="1" vertex="1">
                    <mxGeometry x="-89.5" y="622" width="101" height="20" as="geometry"/>
                </mxCell>
                <mxCell id="4hbtPa9VFHNtGfl8PcOY-228" value="Development(local)&lt;br&gt;Windows10 with&amp;nbsp;WSL2(Ubuntu)" style="text;html=1;strokeColor=none;fillColor=none;align=center;verticalAlign=middle;whiteSpace=wrap;rounded=0;fontSize=12;fontColor=#000000;" parent="1" vertex="1">
                    <mxGeometry x="0.5" y="1148.65" width="220" height="20" as="geometry"/>
                </mxCell>
                <mxCell id="4hbtPa9VFHNtGfl8PcOY-236" value="Custom Domain/Https" style="text;html=1;fillColor=none;align=center;verticalAlign=middle;whiteSpace=wrap;rounded=0;fontSize=10;fontColor=#000000;strokeColor=#000000;" parent="1" vertex="1">
                    <mxGeometry x="172.25" y="540" width="107.75" height="17" as="geometry"/>
                </mxCell>
                <mxCell id="4hbtPa9VFHNtGfl8PcOY-242" value="CDN" style="text;html=1;fillColor=none;align=center;verticalAlign=middle;whiteSpace=wrap;rounded=0;fontSize=10;fontColor=#000000;strokeColor=#000000;" parent="1" vertex="1">
                    <mxGeometry x="283" y="533.5" width="39.5" height="17.5" as="geometry"/>
                </mxCell>
                <mxCell id="4hbtPa9VFHNtGfl8PcOY-245" value="Transform &lt;br style=&quot;font-size: 10px;&quot;&gt;(.toml to Record)" style="text;html=1;fillColor=none;align=center;verticalAlign=middle;whiteSpace=wrap;rounded=0;fontSize=10;fontColor=#000000;strokeColor=#000000;" parent="1" vertex="1">
                    <mxGeometry x="190.75" y="868" width="84.25" height="30" as="geometry"/>
                </mxCell>
                <mxCell id="4hbtPa9VFHNtGfl8PcOY-249" value="Event Notification&lt;br style=&quot;font-size: 10px;&quot;&gt;(on Object Put)" style="text;html=1;fillColor=none;align=center;verticalAlign=middle;whiteSpace=wrap;rounded=0;fontSize=10;fontColor=#000000;strokeColor=#000000;" parent="1" vertex="1">
                    <mxGeometry x="393.13" y="780" width="86.25" height="30" as="geometry"/>
                </mxCell>
                <mxCell id="4hbtPa9VFHNtGfl8PcOY-251" value="" style="endArrow=none;html=1;fontSize=12;fontColor=#000000;entryX=0.5;entryY=1;entryDx=0;entryDy=0;strokeColor=#000000;" parent="1" target="4hbtPa9VFHNtGfl8PcOY-249" edge="1">
                    <mxGeometry width="50" height="50" relative="1" as="geometry">
                        <mxPoint x="448" y="830" as="sourcePoint"/>
                        <mxPoint x="471.5" y="800" as="targetPoint"/>
                    </mxGeometry>
                </mxCell>
                <mxCell id="18" value="&lt;b&gt;Google &lt;/b&gt;Cloud Platform" style="fillColor=#F6F6F6;strokeColor=none;shadow=0;gradientColor=none;fontSize=14;align=left;spacing=10;fontColor=#717171;9E9E9E;verticalAlign=top;spacingTop=-4;fontStyle=0;spacingLeft=40;html=1;" parent="1" vertex="1">
                    <mxGeometry x="-320" y="761.25" width="240.5" height="238.75" as="geometry"/>
                </mxCell>
                <mxCell id="19" value="" style="shape=mxgraph.gcp2.google_cloud_platform;fillColor=#F6F6F6;strokeColor=none;shadow=0;gradientColor=none;" parent="18" vertex="1">
                    <mxGeometry width="23" height="20" relative="1" as="geometry">
                        <mxPoint x="20" y="10" as="offset"/>
                    </mxGeometry>
                </mxCell>
                <mxCell id="28" value="Cloud Run" style="html=1;fillColor=#5184F3;strokeColor=none;verticalAlign=top;labelPosition=center;verticalLabelPosition=bottom;align=center;spacingTop=-6;fontSize=11;fontStyle=1;fontColor=#999999;shape=mxgraph.gcp2.hexIcon;prIcon=cloud_run" parent="18" vertex="1">
                    <mxGeometry x="72" y="38.747142857142855" width="66" height="49.88169642857142" as="geometry"/>
                </mxCell>
                <mxCell id="29" value="Cloud Build" style="html=1;fillColor=#5184F3;strokeColor=none;verticalAlign=top;labelPosition=center;verticalLabelPosition=bottom;align=center;spacingTop=-6;fontSize=11;fontStyle=1;fontColor=#999999;shape=mxgraph.gcp2.hexIcon;prIcon=container_builder" parent="18" vertex="1">
                    <mxGeometry x="72" y="148.7527232142857" width="66" height="49.88169642857142" as="geometry"/>
                </mxCell>
                <mxCell id="31" value="" style="shape=image;verticalLabelPosition=bottom;labelBackgroundColor=#ffffff;verticalAlign=top;aspect=fixed;imageAspect=0;image=data:image/png,iVBORw0KGgoAAAANSUhEUgAABLIAAAE1CAYAAADzkck+AAB65klEQVR42uzdCXxcZbk/8N9zzmRpUko7k6UpbdPMpGwFyo7sFAqyKaIU9YIKiGgnaQoVhQtqCF4FLLQ0zUwVkEUQsYqCsvxZy64gyFrWzKRpoWmWme7NMjPn+X+SVihYsjUzc87M7/u5fK6F6Zxznvc573nfZ855jwtE9DFfoOMMiHGdQPew715Ku6ouCrXVX4O6OoutRkRERERERNlCGAKirXyBjhkQ43GBGk7YXwuoDfs9V7PliIiIiIiIKFsYDAHRNmLMcUoRq293IRez0YiIiIiIiCibsJBF9IkKJ+2sQMd5rw3tymYjIiIiIiKibMFCFtEnHPeobSLP4OPBRERERERElDVYyCIiIiIiIiIiIkdgIYuIiIiIiIiIiByBhSwiIiIiIiIiInIEFrKIiIiIiIiIiMgRWMgiIiIiIiIiIiJHYCGLiIiIiIiIiIgcgYUsIiIiIiIiIiJyBBayiIiIiIiIiIjIEVjIIiIiIiIiIiIiR2Ahi4iIiIiIiIiIHIGFLCIiIiIiIiIicgQWsoiIiIiIiIiIyBFYyCIiIiIiIiIiIkdgIYuIiIiIiIiIiByBhSwiIiIiIiIiInIEFrKIiIiIiIiIiMgRWMgiIiIiIiIiIiJHYCGLiIiIiIiIiIgcgYUsIiIiIiIiIiJyBBayiIiIiIiIiIjIEVjIIiIiIiIiIiIiR2Ahi4iIiIiIiIiIHIGFLCIiIiIiIiIicgQWsoiIiIiIiIiIyBFYyCIiIiIiIiIiIkdgIYuIiIiIiIiIiByBhSwiIiIiIiIiInIEFrKIiIiIiIiIiMgRWMgiIiIiIiIiIiJHYCGLiIiIiIiIiIgcgYUsIiIiIiIiIiJyBBayiIiIiIiIiIjIEVjIItpGVLc4bZ+bzXgnW46IiIiIiIiyBQtZRNuoyBOO2l/gOdRM7WbLERERERERUbZgIYtom3UbrV8p5GVn7K20W4hXsdWIiIiIiIgomwhDQLSd2uW5laWlZ6vKvjAkz267p6oJWGju7Oq+u+XSCR1sMCIiIiIiIiIiIiIiIiIiIiKb4aOFRERERERERETkCCxkERERERERERGRI7CQRUREREREREREjsBCFhEREREREREROQILWURERERERERE5AgsZBERERERERERkSO4GILU8S5qn2rkyF5q0wJiImE1rZhT8vqQjuna0K5G4dgvqKmj7HhMmsCGnljnPz6cN6lzsH9ncrDVa6o5zRCYtkwkS1eGqotf7T08nlVERERERESUTYQhSIFZS03fjJm/Feh37L6rCnlSN6z9avhy3/qBPuttiH5DTNwiqoW2PiaRVo3ja+E57uf7/WBtreErrQkI8AP7txOe77S6zlhdvVuEJxgRERERERFlCz5amAK+GTPnOaGIhb7Kph4vY8YtGOhzk+rbfGLgd3YvYvUdk2qpYeKvpfPX9LuvlSVzfuCEItbWdsKR+ZIf5NlFRERERERE2YSFrFQQfM1Zu6tnDfSZPNP8skBznHNUWjy6IPfofj8hhrPaSeRMzFpq8gQjIiIiIiKibMFCViooxjtsj8cMfEjY1XnNoAO1g8dJxyPQnPIjDtmFJxgRERERERFlCxayiIiIiIiIiIjIEVjIIiIiIiIiIiIiR2Ahi4iIiIiIiIiIHIGFLCIiIiIiIiIicgQWsoiIiIiIiIiIyBFYyCIiIiIiIiIiIkdgIYuIaLhql7l8wY6qiQtWjWIwiIiIiIiIko+FLCKiYfKW7HelQBry8wve8wai3wQgjAoREREREVHysJBFRDQMFfWRQ0Xkp9v+OMkQvdsXjDznXdxxMKNDRERERESUHCxkERENUVnt6gIjR+4UqLn9vxfgCDHlJV8gelt5oG08I0VERERERDSyWMgiIhqigtK8G0R19x39NwFERM9ziet9XyBSjVlLTUaMiIiIiIhoZLCQRUQ0BL5g9BQBfjDQ5wS6iwgW+2ac8JQv0FbJyBEREREREe08FrKIiAapfGHTWAC3DuXvCHAUDNdrvkDHtxlBIiIiIiKincNCFhHRIOXkjbleoENe+0pUC0XkDl8wevvEBatGMZJERERERETDw0IWEdEgVCxpPxrAd3fmOwT6nfz8wufLF7ZMYUSJiIiIiIiGjoUsIqKBzFpqGmouHpkv0wNy8vJe9DVED2dgiYiIiIiIhoaFLCKiAXiPm3mhQKeP3DdqiRh4sjIYmcXoEhERERERDR4LWURE/SirXV0ggqtG/ps1XyH3eJd0zGaUiYiIiIiIBoeFLCKifhSU5s4dzgLvgyFQw1AJ+pZErmCkiYiIiIiIBsZCFhHR5yhf2DRWIJclezui+IUvGP05I05ERERERNQ/FrKIiD6HmTtmDoBdU7Etgf6kMtBxOaNORERERET0+VjIIiLageJA22gRmZvSjYpc4wtGf8ToExERERER7RgLWUREO7CLmBcK1JPq7Qr0V95gx/+wBYiIiIiIiP4bC1lERJ9Vu8xlCH6Yrs0LjNsrGtqPYUMQERERERF9GgtZRESf4S3Z78tQTEzX9gWaY5jG/eWByF5sDSIiIiIiok+wkEVE9BliiD/t+6AY6zLkPs91HbuwRYiIiIiIiLZiIYuIaDtTgh17iOoJdtgXUd197Gjj1r6btIiIiIiIiIiFLCKi7ZlizLbT/ojoWZWByMVsGSIiIiIiIhayiIg+MWupKQrbvTFQRX5VUR85lA1ERERERETZjoUsIqJtKo85YSagxXbbL4G6DJfcVTp/TSFbiYiIiIiIshkLWURE26gh37Drvgl06ujC3F+ylYiIiIiIKJuxkEVE1Kv+gzwR/aq9d1LneBdHj2RjERERERFRtmIhK0WzT4Yg/UTYDvT5fOa4kwGMsXUOA2KY+hvULnOxxYiIiIiIKBuxkJWKyadqi5P2VyFrB/yMIuq0dkgoWgaoEnQ4LLO6m9fdvoFn2EiF0zjDIXs6zVc6vYYNRkRERERE2YiFrBRQ4G5HzecVfxjwQ4nu+wDpck4byGpt2/BMv59R/b2T2skS/BF1dRbPsJFJewhOdc7Oam3Z9auL2GxERERERJRtWMhKgVCVJ6Aii9QBjxgq5C8bt/T8eKDPhedOWGkhcZZCIrY/JpEmWIkvNddV9Ft4C/s9tytwnUIS9m8nPIz1a3lXzggpr2/fX1RLHbTLY0aNyq9lyxERERERUbYRhiCFk+VA23hDZXdD7VlAjMfjK5ovKVsxpGOqbcpH6Zj9XQkr35ZBN7ExtGzZa/jT2YMuTo2vbykeZbj2sms79aiuWlVTEuIZNXJ8weilAp3vpH1WSExjXZXhuRNWsgWJgLLa1QW5Y7tzmy+pWMdoEJFdea8N7drZOSrWUjdhC6NBRDQ8LGQRUdbzBSMPCHCa0/ZbIbeG/O7vsgUpK8/bhujhMPF1AY5WxZ4CLdh2XiQgWAnVF9WS+8PtLX9B3bQeRoyIUq621qgorj7VEPNrEBwJoEKgrm191SYIlouly2KW3tE8p+hdBoyIaHBYyCKirO8HK4ORtQB2ddqO907YNdbl5V1ZlE18wfaDAONGAY4a5Hmypnc6GfK7b+ZbhIkoVSqDHV8GjAWA+gbZV92rsa55vKYTEQ2Ma2QRUVYrX9yxhxOLWNi66LtpuPIuZitStvAGInMB85+DLWJtO0/GC/Q3vmD0/5UvbBrLKBJRUtUuz/UGIjcBcv9gi1jb+qqvSW7e6xUN7acziERE/WMhi4iymsuUw5y8/2rIRe76yBi2JGU6XyB6tSG48T+P5QyVQE9y5Y15dnx9SzGjSURJUbs811dadq8h+N6w+inFWMMw768IdJzDYBIRfT4Wsogoy8lBjt571cJxJr7NdqRM5mvo+JaI/nSnzxdgn9Fm7v246OUcRpWIRryvKi37tUBP37l+Sg1DjNumBNuPZUSJiHaMhSwiynb7OP0ARPADNiNlqskL28tgGIGRO2FwuHf/iv9lZIloJFUGI7MEev7IdFOaY8K8m3dcExHtGAtZRJTdBHtnwFFMqwh0HMLGpEzkyjOvFOguI3vay+Vl168uYnSJaETULs8FcMPI9lM6YaxLLmNwiYh2MD60645VNLQfI4ZxhkA8Nt3F9WrhkXC1+6HBfNhzXccuu46WC6Rv0ix59pvLa1wF4ViXddvKS4pbBvvXKhraTzMM8yQAtvzFSEXbEZf7wnPczw/m86Xz1xSOLnSdB8h+dmwnAAlVXSEit4f87lWDG1wtc3lLps8S0aMBKbBfI0EV+Ahx3BOe634rlZueHGweJ6qlmdCZG2KcC+BfvKxRJpm4YNUoEZw30u8aFOiowlG5FwK4llEmop3lLS77KqCTRnx8LupH/QdXo2ZqN6NMRLT9WM6GfEsiV4jiF04IoEIWh/zumn4vbvPXlEhh7nMCneqA41lrIXZck7/0jQEv2sHIzQZwoSPaSeXSUJX7hgEmTO78/IJnAUfcobMhEceJTTWel/r9VO0yV2Xpfg8A+KIDci8u0P9p9Hv+lLK+pqH9QDGMVzKhM1eR1tCaRRNQV2fx0kaZwheMniLQh5L09f9s9HsOZ5SJaAT6qr8I9MxkfLdlyWmD/eGciChb2O7RwsnBVi9UrnZKAAU6x9cQ7XcgbBTk1jqhiLXteMaZyFk00OemBNuPdUoRa9uBXTtxQWS3/j6Sl1dwmUOKWL3GGC5ZPODAqnS/c5xQxNqWey6F/Br1H6TuTjhDJmdKZy6qpd6iuZyUU0ZR1UOT9t2Qg1C7zMUoE9EIDGKOSOJs7SgGmIjos12jzbhgfkGgpsOieNQAM0xHvXVEgSMH+owpxpHOGl+oKycP/U/yDTnWYcd0aHltU/4AbXmUw47JXeEas0fKct3KnELW1g5Uv8LLGmXU3FCSd44KNGc3z37jGWUi2hml89cUJnOZAgNaySgTEX22b7QblVzHRVG1sP9igox2WDFh4NeSW3BcOwnQfzso8h2Xe2P732eBOO4V85aKkcJZcklGTfodcvcd0RC4k/nlOZLwMMREtDPyXVqc3KmRuBllIqJP41sLiShriWhGTWJFsW/Fja2lbFnKFKrJXctTDXuuFUpE9ElHBT4CTUT0GSxkEVE2T5Iz7ldOceXMYMsSEREREVGmYiGLiLKY5GXcERnggu9ERERERJSxWMgioqwlgsIMPKwvsGWJiIiIiChTsZBFRNksJ+OOSLA/apdxPQ0iIiIiIspInOwQEWUQUc0tL9q3shl49/M+UxxoG11gGRNdpuFWC2NVrHEGZBxEd4FufdxSBbuIiCmWWgps2PrliAO6VoG1AmNtwtJozMJHHz37RAv+dHaC0SciIiIiomRjIYuIsllPJh6UaRgHeBdFXTB1qhhSqdDdBVIOYJJAJwAYAxN9r0KSvvty//PiNvn4f/b9P9Xt/9XHn9n6Z4XLQN8/vhkzE3J8pEVVmhT6nqF4Gxbe3qQ9/15TU9bONCMiIiIiopHCQhYRZS1VbJEMfPm+IXr3Jw9N6seFp2QRqAnFRIFOFODovg2awGjkwheMrBTgRVU8o3F5KjzXvTypO0NERERERBmNhSwiyloi2skoJDnGwGQAk0UwS3IUlcFomwIPAtbfurs6H/lw3iS2ARERERERDRoXeyeirKWQCKOQ8qiXCPR8gfw1b1Rhe2UweueUQOQk1NbyekRERERERAPixIGIspYALGSlM/6qhYCe6xI84hs/t7Ey0HH55GDzOEaGiIiIiIg+DwtZRJS1FGhhFOxBVCsgck2O7LLKF4z8quz61UWMChERERERfRYLWUSUtUSxglGwW5tooQA/KizIa/QGIz8rq11dwKgQEREREdF/sJBFRFkrblksZNnXrgZQV1Cav9wXiJ7McBAREREREVjIIqJs1tzRGlZIgpGwL4FOEdGHvcFoA2qX5zIiRERERETZjYUsIspeddN6BPoeA+GEi5VWVZaOf7o80Dae0SAiIiIiyua5ARFRFlPgDUbBMb7gEtcrUxoihzEURERERETZiYUsIspy8m/GwEGtBZ1gmvJMZSDyXUaDiIiIiCj7sJBFRFktDn2WUXAWUc1VkSsYCSIiIiKi7MNCFhFltebWNf8GpIuRcBZRXcooEBERERFlHxayiCi71U3rUcHzDISzWFb8bkaBiIiIiCj7sJBFRFlPVR9gFBzUXpD3wnNK32QkiIiIiIiyDwtZRJT1LOjDjIJzKJR3YxERERERZSkWsogo663wF70H4G1GwhlEEyxkERERERFlKRayiIgAWIp7GAX7U8iToaqSRkaCiIiIiCg7sZBFRAQgluBdPk5giQYZBSIiIiKi7MVCFhERgFU1JSGFPM1I2JdC3mtaU/9XRoKIiIiIKHuxkEVEtI0qfsMo2LmBrF+irs5iIIiIiIiIshcLWURE24TbWu4FpJ2RsB8VvBlqW3wXI0FERERElN1YyCIi+o+6aT0qeiMDYT+akMt5NxYREREREbGQRUS0nXjXhqBCNjES9qEifw9Xux9iJIiIiIiIiIUsIqLtNF9SsQ7QACNhDwrptBLdcxgJIiIiIiKCHQtZIlDHRVEQ7/8/I8ZUs8OEWGMDtJPjHlvaaI7ho1ZJEO/ecC2A9YyELfysqbqsmWEgIiIiIiLYsZBliRV2WhBVJdTvf4d+4KjjEWkaxKec2E6NA3yi0VlHJO3RGs+G/o9ZmxzVRoAaMW1J93703ZWlei0vEWk/Z58JtS5awEgQEREREdF/2K6Q1TS7+DkFXnDOxFve6+nefN8As7H5CrGcM3nErwb6zJa2nj8rJOygdnpyRbXnpX4/Y8lChcSdc0wDt1NPN25RyFrndElyW9PFpa122JOu7s5FClnBy0TarLe0+9tc4J2IiIiIiLZnxzWyNN694TSF3Grz1+CvV+CenoR1/IfzJnX298FQVdEyAKcr5GUV6bHjwSgkriLvq8pFYb/71wN9vqVuwhYAxynkXns/giXtCvx6bVzP3Fr76aedqt3/ULVOVsi/AOm2aTslAAmpYk7I775hoM9/OM/zkSZixyrkURXZbM9j6j0sfGhBfhlqbZltl/3qPa8F1lxeJtLDUpnNRwqJiIiIiOi/ZvkMARHR56hd5qos3e81ANMYjNSxIIGw313NSJA3EL3PED0jWd8f08QBzVUlrzHSRDRc5QtbpuTk5SZtKQeFPB3yu49jpImIPuFiCIiIPqN2mctbMn2WGLgKqrszIKmjKs+E21rmMRJERERERLQjLGQREW0zvr6luMDMO98QrQZ0kgPfoepw0tipnV9F3bQexoKIiIiIiHaEhSwiymoTF6walTOq4FRD5RwApws0h1FJB2lXjZ+yunq3CGNBRERERESfh4UsIso6vmB0kmXpiaaBk1XkVFEtBG+/SqcNaiVODlWXNDIURERERETUHxayiCjjVdzYWmrmmocpjBkAvijQvcxt72wVZQErzTbELZy0orr43wwFERERERENhIUsIsoo5YG28aZl7C2mcaBAD1XIoQItR99rWlm0spltRSzPiwxFUsjkhe3jjRxjssAqNiDjFDJOBG5sfROWSwyMhmI9VBWi3aJYnwDWm5Z0WJZ81GV2tvBxzyxRW2tM3LWmzMzHJEO12ADGqYhbFGP78kUkx1AdpcCGvs8b6FGVqABrE6prTZWP1m22VkYuK9rIYGa+iQtWjXLlj5psJLCbGuI2RNwKjBPVUX35YqBQLFgAOrd1RxsFui5hYJ3EZU0CPaubdeNq1EztZjRp2GO+2qZ8s2jXgwzDmm5BikUwCoINSEhjl6UvfFTj+ZBR2mbWUnPSMceX5liGW3MT4wxL3CKSaykKt/+YApsA7RZYa+MJMypmItpcVdIKProw5DGYd1F0Glx6MIBJAoxWYIsY8pHGrdfCzzz5Kv50dsKuO++dv6bEyjfKTNM1QWB5VGUsBGOhcEHEVGiBKDZCEO/NGYHGVGUzxGrXuNFuuKQlFI+0JbOPF+YYETlK/Qd5PpenpPeiYKlVYYhUAL3/6B6A7C3QcQyS/alIq8ZjJ4bnlL7JaIzAgGNR+1R1yaGGyL4Q2VsUeysweYTWfNsAkUaFvqcqr4vi9S2dXS+3XDqhI+nHFYjeZ4iekazvj2nigOaqkteybXBdvrhjD5eBQ9WQfUWxV2/OQHsH2joSP3CuV8gHAJb3/mNZ+tp6Cy9GazwbeKY6T+n8NYUFo80DRY2DAEwTYG9Adhdo0QhtYlVvvijwTm/fAk28Enqj+U3cdHDMMcWUhS1TcvJym5J2vYQ8HfK7j2M2bhfzxWsqXGbO5QJ8A8CYfmL3L4FV37jsyT/YuWgwksquX11UmJd3kGVir63nrOyBvh90ZcJw+3gV6YHiQwDNonhHxXobCV2+bou8wh8vPs1dHxkzzsQcCC4SYHI/udmiilt7ujcv+HDepGi69nd8fUtxoZl3EMQ6AJDp6MsXVAp09MiM97Fua+5Io4o2iqVvQo1XQk8//u7OnpODKmRNCXbsYaqcCMhBEJRv6zB4NxcRpdLYbUWqMQyFsynk3Xh39ynNl5StYDSGx7souo/h0hNVcAIghwvUnYZ2fE+gz1mWPN6FzseScecWC1kjQsoDbdNd4jpRoCcA+AKAXVObK73/J+8C+pQqHk/0bHiy+ZKKdTyT7ad0/prCwkLzOBHzRCiOBbCvQM0Up2y3Av8E8LRlJZ5oenrZ83YuQrCQlcJY1zbl55SMqVWRHw7lhxqFvBJX/VZzleedTItJRUNLuWHmnQjVGQI5DFBfKvt2Ad62gH8AumxLPPbYmpqy9mzNz4pAx5cMMW4S6Pgh5GZELVSHq933pGIfJwebx+Vgl5MUOlMgR0vfjQBpmAuIbBbV5xTyuCZijwznh+3+CllSGYycpZBLBXoou04iIhqBAfljMWz8+kp/+VpGYwhmLTUrjp9xhFjm2SI4U6C72atd+wazL6rKn+NWz1+a54wfkUkdC1nDVLvM5S3Z91iBzIIhXxHVUpv1AxaAZwG9tyeh966aU7SaJ3n6eOevKZHRuV8W1d5x//F2e3tv3y/6wMMWcG9TLPqA3R5HZCErRUWCJe1HGzBvEdXdhztxthJ6ZlO15zGHh0LKg5HDTMVZIvJlgU61Wf/+mqr+JZ7AvStrPG9nS376ApErRfB/w/37FuSasN99ZTIe4Zy0uGNCrilfQ++YADhSoIYN07pRofdqzPpteG7xB4P6Gzs82Po2X67LvEOAI3l5JyKiERncKH4VeuqJK7Ll9v4RGbg3tO9uinG+inxHoGWOaWvgeYjcvm6D9cedeeyAhawhDqQbotPU0AsMyLcALXZIriggyyy1brXaNt7bXFfRxTM/BS56Occ7veJLInI+gFNSf9fVsG1Qlb9AcHPI737BDjvEQlZyuesjY9ymXANR/wjEshPATLvkzpCuh4vapyLHPM+Afqt3uu6M/l3eBXBrXON3NleVrMnUHPUGo5cZ0Gt39nsslV+Eq9w/GZGdqv8gz2t4zhQD3wX0BHHQklIKeVTV+lW4quiJ/j73XwfkC0RPhuBPI/VcJBERZbe+26aR+E7YX/wgozEItbVGRXH1qYZhzhPoDIe3/SZV3G6J1bDCX/TekAeHLGQNbNZSs+K4E840BBc7/QdIFaxT4BZRqQ/53avYGSRhwjV/TYkU5PhFxO+UYufn9y94Cyr18bb1d6azAMpCVhLztSF6qmHor0eycKOQjzqtzumOeJFJba3hLan5iojUCPRYB48F4gAesKzEwqbq4mcyKUcrF0e+qCYeHqlCUUJwVtNsz73D/fu71Ucm5rnEL8D307HsxAjnzeMWYj9s8pe+saP/Lp/tLMTAfXa7pZiIiBzrke6EXsBHhwYzYF3m8pbsd64Y8r/DfXTCxhNOBeQ+IPGLkL/4lUFPYljI6idflud6S8suEOAygU7JrHyRBESXxmL4v2x6NCWpBYFFqyeLK+8KETkP0LzMOjppg1oL18NqaK8q2ZTqrbOQNfImNHzkKTBG3Qjoucn4fktxc7jKc5Ht+3fBj0W1IsP691fUwvXh9kVLUVdnOflYJi5YNSovv+Dd/hZ1H05/Zm1Yu3v4ct/6IfVDizv2dJnG5QDOGaEXt9gjX0R6YOnVobY3rkPdjPinIvWf/+FriE6DgZcEWsDLPRER7aT1luLicJXndoZioAFrreErmXOuiPGzVC7SmsZByd+1B1eE57rfGnDyzULWDvJlmctXOv0Cgf7EKY+XDH/C0zvnwT09scRPV9WUhNhZDGeiFdktLw8/hcgFmf5Ddd/dv4pf9XRvXvzhvEmdqdouC1kjyxeMfh1Awwi+GXNHMU30xON72K5f2VbAMqBXZHr/DuBthV4Z8hfdn4x1oVKTq5E5AtSPfH7qFSF/0TWD2odAWyUM82oovuGkxweHcc4+qhvWnr19gc/4z6BIDNzJIhYREe0sC3Jnoie+B4tYA/MG2o7ylc59SUTuyIYiVi9R/ZLk6Bu+YPTWihtbS5kFg1fREDnRV7rfqwL9TRZMcnpH5CKKb+a6XO94l0Tmly9sGsssGJyJC1aN8gYjP8vLl/dF+h4xycn8fFGPIXpdXn7hO9uKIeSonI3sVhmM3i/Qe5JZxNqWK2auy/y+vfr39tN9pWVvGdAl2dC/A9hbIH+tDESeLw9GvuDQXueC5HyvceEg+ni3NxhtgLje7r1OZnIRa9s5e5KMGfvc+PqWjx+J7ytkeUumfxfQA9iFEhHRcKnIi1ZCjgr73d9uuri0lRH5fL0XYl8w8ntDzGcFelC2HX9fgQJ6vpnret8bjFyMWUtNZkX/EzxfMPoX08CjAuyTffmiOYbiUlferh/4Ah3fZkYMMCEOdHwpP7/gPQOoy8YfqQVaLtB7KoPRZRUN7bszI+zfZL5A9Hv5+VgO6JdTuNmv2OHgfYG2Sl8w+ohpGH+32xsIU3TCHp4D/KMyGL1z+yKF3ZUH2sYLdP8k9WHevjutdqS21vAGoz/Iyy9sNKBV2bQkVO/4p9CV9yDqP+h7PN7o/XciuJx9KBERDYdC3rEsfDU02314eI77eUZkoEFrx7cLXXnvCPA/jAbGGMBC34yZ//Quiu7DcPz3uM0biH4/Px9vC/TMrA8GtEhE7vAFo4+VL15TwfT4NO/8NSW+YOQeU+RvWXJHx0BXp+NMw3zDtyRyBWqXuRgP+5lU3+arDEafFNGbAOya4v5kqrs+MiZtB1+7zOUNRH8Mcb0h0JOYDXpuoSvvXaf8WGGouW8yv98yzOn/1ccviu7jGz/3BQO6RKDjsnQccIjP9FzZ1wYVDe1HZ9oioURElIIhB+TlhOCsUOuifcLVnr86dY2DVJnQ8JHHF4z+tXciLlAPI/KpgcnBkoNXKwMdl/PurK0mL2wv8wWj/8+Qvjd2jWFEPpUvM12u3De9wcj5jMZWFYGOL0lh7nIB+Ejdp69UeaL4RWXJfs9Mqm/zMR42MWup6QtEf5jrcr0JaNrW/xpnSFoKvn13YZVOf8EQvU6go5gQH/ft7r4fKwKRB73z15TYel8FuyX1+y1M/PT5ErlScvGKqB7GRMEPy65fXeQyxTiFpw0REQ1qSgCJQ3GfWtaS8BzPk4zI4HgXdxwvhnGnQCcwGp87gHVB5BrfcTNP6To6cs5HNZ4PszZfgu2nCczbk71OjKPzRbVQgFt9wehpMWz83kp/+dpsjEN5bVO+q3TMAgFm87eEfjuYw3NzXK9XBDq+31RV9HsGJI3926LoPpKDWwV6SLr3JS7xnNT375HzIbK4tw9jNnzO6So4VQpz3/IG288P+4sftGeXgtFJ3kDfmlflC1umuPJy7xLgSCj7+G3jxYKCgrxvGipyMMNBRET9Uci7qvhJrDsxOVTlnhWeU8Qi1iCvt95g9DIxjcdYxBrsAFaPyXfJqxXByMysO/jaWsMXjP7cgPEAi1iDHtB+LUd2eWXK4rbp2XbsFQ0t5a7SXZ/dWsSiAXNFtdAUuasyEA2gdnkuI5Ji9R/k+YLROsnBq3YoYqHv8TDZkqptldc25fuC0VsN4FYWsQY18izuvRZWBiLX2PFObRUk/XFlX6DjDFd+7qt9RSz6rFNcAnCNASIi2sFFWt6HpffFkfhDc1XJa4zI0JTOX1M4ujD3jt6JNqMx5OJEkQF5BIKsucumfGHTWDN/zB9E9WRmwJALFBWm6fpHZbDjokZ/0V3ZcMy+QMcMiLGUBc9hJYzfVzp+f52/5szwj8a3MSAp6N+CkS/kALcAOs1O+7WlM/FRKrZT0dBSbhh5fxYobyAZ+oDgct/xMw/pPPajr6+u3i2SLYdtAN+DyN680fZzE2O6i+suEBHRNutV8bwCj8YSiQdW1ZSEGJLhmbywvSw333wAqgcyGsMdu6oBICvWEts2yXlYVPdiyw87X0YBcqcvGN0j5Hf/LJPX7PMGIudB5KZselvVyOcLjkBh7ouT6yOnrazxvM2IJEdZ7eqCgvH5v4RiDrb26XbKglDrj8ZvTvZWfMH2gyDmg6JayowYZkupnjDKGPXSlGDHqSv8Re9lyWHvzZbv95o/wQCUt9YSEWXfJaAbIv9WldsVWp1AfHpja707VOU5LVzlWcQi1vBNro/snZNn/JNFLBrsJMcw814UsIg1QoPbn/iCkbsy9dExXyBylSG4jUWsEcmVKTkueaaiPnIoozHyKoKRmQWl+ctFda7YrogFKPSxpMegof10wHyGRawROV+9Jox/TAm2H8toUC+XQmLCe9aIiDKKCtaJSocCUQHWqKBJVVcY0HBPXBpXRl5/H3Uz4ozUCA9aAx2HGCIP8XEfGuQk5xiB8Xeo8u74EZ3w4H98pWXFW2pXf6WlbsKWTDksXzAS4HpYIz459pgu+XtFQ8uhTdVlzYzIzitf2DTWlbfrDQK9wM43Rlpx3Jbk8cA5hhi/s2MRz8Hn6zgT5mO+QMesUFXR/YxIFs9zIDEXgM0AOOAmInIAy5LTErHurY9BuHLyYVj56Ems6/tzrtmFns1dzetWbGKRKvW8i6NHGqIPASxK0CAmOQ2REw1D7gdfvZ6sCc+JBaV5j3qvDZ0Wvty33tEHM2up6Ttu5i0CPY8tm5QpUYlh5N6F2tpjUVdnMR7D5wt2fAUwlgh0vK1bXPFQU43npaSNB5Z0zDZUgnyTaFL69hwV4y8VgY5v8w2kWa3RxRgQETnl6i3/Dle7H2IgbDh4b4geDgOPAWBRggZUEYzMNCAP8vGwZE94cCTGjHvUe23oJMcWs2prDV/pCb8T6P+wRZOaK0d5S+Z+PYy6PzAaQ1ceaBvvgmuxQM+ye/FGIREIfpCs7/+kiEXJO1/VMEXu8gWiBaEq982MSFbmwAu81ZGIyCEUWMIo2M+UhshhYuj/E95ZQ4PgW9x+nAH5G4tYKRvsHipjxv29rHZ1gRN331daExCARawUMAxcyigMo08LRr7jEtdyET3LAbu7IWHpaSG/e1VSYrEkeiGLWCnt4H9dEeg4h4HIwjmRyp9ZyCIicoYNmzb18Jdim5lcH9nbNOQBvgGYBjfhaz9ITON+Fj1TPdfRowtK8+932gLwlYHIDYLk3TlC/zUzOtC7qH0qAzE4FQ0t5b5g9BEBbheo2/bNK3gzltDDVlR7XkzG93sbot+A4jfMjJT27YYhxu8qg5FZjEYWddWQd0Jtix41AN3IcBAR2Zul8rtUvCaaBm/ywvayHBce5sLuNBjlC1umQMwHWfRM24Rnpnd82c1bnyKzP29DpAaCS9hyqWW4jGMYhQHU1hq+YGSOYeYtF+hJDpj0xlRRF4pFD2meU/RuMrbhW9x+nBjgwu7p6dsNQO6sWNJ+NKORLW1uXY66Oqu34RMMBxGRvcUTyscKbaQ40DY6N898UIDJjAYNZHKweZwrL+9hvoI9vQzVb/sC0Tq776e3IXKmGLKQLZZ6KtiDUfh85Ys79vSV1jwrQL2oFtq+PSEvaQwHhqo8V6FmandS+vf6yN5iGvfxcfG0tnSeoeb9vfnJWGR4S6v8vtFf9Lfe/+0SaCdDQkRk64HY0ytr3G8zErYhY8R1O6AHOCB34gJ9TyHvquoKCD40oB0KbLIgm4yEFYdh5qvqKEPgtkSKBFoOiA/ANIHuxubeSbOWmjnY5R6B7umAfIkBeGdrzmCFWvhQRSOGYLMqNoqlCZjmqN58EUPcYllFCpkCQyqhffky3vYnr+hPKwKRN5qqPH+24/55F0X3ERN3itr/zg6FrAXwBoCQQpuh0mqIRhOW1WkoNgmMPDV1lKqMhUi+qFYA4hUDXgX2sGMhRIFx7LR24KKXc3zTK34sIj8FNM8BudkpqleGnnq8Hn86O2k3bUxcsMqdkyMPQHVXh7TkBoU0qWIFgFUCjQi0yxLpwtZif75C8gVSrAYmQVHe2y0JdLTt+3bouBzTeGBysPmQlf7ytTxpd/oc6j1vGgG8LaorVORDWFY7DGy0LNlsqBWDKWNVjVEQ7c2ZcVAthaBcILsrsOdIL6OgkJe2tHVd9J8/uxTSLXw1KBGRfS8mFn7NKNhoohmI/kigX7PpUK5bgacBPAYLz4esyL935lfosutXFxUW5B5hQY41gJMB7M0MGGK+zJj5c7s+ftM72QP0SQUe1zheaHor/CpuOjg23O+ruLG1VHJcR4rIsRCcLKq72/G4DUNu9y6Kvhue637LTvs1Odg8zgDug33vdFmlwMOq8pRq9wtN1WXNw/6m2mUuX+k+0wHjCKgcAwOn2KGwJYDFXuvTfMH2gwDztwKdDgfMGVXkiXi853vNc8Y3JXVDs5aaefmFf9haoLWt5VA8aqm8hETilfDc4kYMtRFra43yojm7GwYOEjEO3zoWUJ9NW9/nktF3Y9bS05NZwMzIucbWH7KeA6zHLNHnYp1dL384b1LnzpwfvmNn7qmGHioqJ0Bwws782KWQZ3XD2i+11Pm2fNxf+5ZE/yaqX2LzERHZsjDR3tjaMhF103oYCxsM6AMdMyDG43ZaB0MhvROvh9TC7zdK/IH2qpJNydrWpPo2X67L/CZEvmXXIsVQxDRxQHNVyWtJzJczROQ+mw1W4wAesETvinVueWinBqoDKF/csafLNL4JwbfsNtlTyAcbNH5gMs+XoXb2vmDk7wKcZrM4tQD6O8D6U8hf/EqytjNxwapROaMKTjUUswD5aroe07Ig14T97iuGlOcLW6bk5OU2JbENng753celOhbltU35rpIxdRD5oUBNB3Tp6xMW5jVVe25DCipuvmD05wL9if0KEnheRX+Pnp4Hw3MnrEzGNryL2qeKy/xyX9/eV+C0Wwzk/0J+90+TuQ1vMHKxATj6EXDte1IPj0hC79ZN6/8Wvty3PpnXuCkNkUMNE2eJyrmDL2pJlwW9Jtz6xi9RNyP+2YvmHwT4BqcnRET2Y0F+Gfa7r2Qk0m9Cw0eeUcaoNwQ6wSYDtbUAAgBuStarxPuddC9uPxYucx5UTxeHLKD9WcksZE1cENktL19eF6jHJnWSdkt1cQKJm5urStakdNO1tUZlUc2Jaso8O92dpiq3h6rc59thX3yBSLUIFtsoNs9ArIWh1jcf+OzkIdkmL2wvc+WZ1QL8INVvw7MU54erPLcP5e9kYiGroqH9GMMwbxHoVGdMyOWvcY37U9W3bf1RS56wy7VPIREFbkIscVt4bvEHqdx2eaBt/xy4vqeC8wRaYJN4WAkkjl/hL346WdtweCFrfW++WFZPYKfurB2uWUvNimNnnGIY5nnb7t4u3EEbfqCKpfGeRGDlJcUtOxzVeIORmw3gQk5RiIhsNzCLd8W14qMaz4eMhg0mmsHoXwX6FZsMWOdv1HjADneTTK6P7O0yUWsIznZamyatkFVba/hK5z4m0ONtkC9rFHpdT9eW3yTz7qtBT3rq2w/IcZlXAfplW/Szlnw9VO1ems59qAi27mci5yWbrD30SAy4qtnv+We6d6SsdnVBYUluDUQuB5CSNYhUE1NDVSWNQ8rpDCpkuesjY8a5cK0Asx0xThJptaBVTbM996ZqmxMXrHLn5Re+YZM1JFf1jgc2bY7dmu43W5ddv7qooCB/DoAqO/yAo5CPurs27/fhvEnRZHy/EwtZComKWvPXbkIgclnRRlvs1EUv55RPnzzNgDHJEJhQrI/16LufV7zanksgm8A1soiI7HjJ+TOLWPZQGew4F2kuYvWtX6C6cG1CfxGt8WywS2xW1njeBvB1X7D9V4CxSIAjsz1ffKVzZqe/iCVdCvxqg8bn2+jxOTTXFL8K4Azv4uiRYmKRQA9K6w4ZCI6vb1m2pqasPS3br13mMiXnNmh6i1gKeR2JxMWhOcVP2SVXWuombAFwbdn1q28ZNSq/VgSzk/mIW28MhlrEyiTeYPtpBrAEwCRHjJBUbo9h47xUL+ydN6qgQTS9RSwVrIMl/xdqa1lsl6UnWi6d0NHbo5UvbFpo5o+5UiA1opqbtisgdLf8/MJFAL6V9bMJSExFFyW61v+i+ZKKdbbauZsOjjUDr2HrP0O7fKvqOk5RiIjsx4qDr1+3gfH1LcUK48Y0D9ifsazEPqEqz2V2KmJtL+QvfiXk9xytwHkKiWbtZHDR6smAcU2aB62Pxrq79wr53bV2KmJtLzzH/XyoddGhUK1SyMY0TnY8hTm5i9KWLyXT50H1wDTmyibLwtxQ66ID7VTE+uwEOVzlnhOPJw7pK7glLxpZec0tu351kS8QvcuA8YATilgKWZGwcFKoyn1+qotY3mD7aaL4ZnqPH0u6O7f4QlXuG+y4fmrzJRXrwrM9P4ppbC8FHk5ztpzrC0ZPyeYxrEKejSes/XrbxHZFrJ1kiCDKaQoRkd0uPHihqcbzEiORfoVm3sL03Sbf9xbCmlCV+7im6uL3nZC6Ib/njrjGp6nioWzMF8nJDwh0l7QEX2Szinwv5Hd/sfmSshW2D1ZdndVYVRTUWNc+Cnk6bW2m+Gbl4sgXU73dycFWryGoS9vJ2lcg794nXO2p720Lu6dLc03xq6HXwoeoom7bSwtGcrL3r1Br/Z3Z1l95A9FvFhTkvyOi5zhgQm6pyKJNm3v2aar2PJbq7RcH2kYbMJak8fhXqOrxIb/Hn6zH5UbSSn9pOOT3nGoBF6T5x4rflM5fU5iFo5FuS3FxyO8+tnlO0buZeISGpcpCFhGR3S4/wI2MQvr5gtEj0jfAl0YrETsk5PcshsPWAGiuKlkTqvKcDsU8hSSyKF9OEejpadr8ciuRODA0232L0+IWnjthZWjZ4ydYQK2mKdfVlEW46OWUvikvBzk3AJqf+gkx1FJcFXrq8ePTstDvzrjp4FioynOVJYnjFTJSC3uv11jiHCcU80bKxAWR3XxLon8zRO8WaJEDdnl5HHpkaLb74nStBbUrzCvTdceaqvx+g8b3DVUVLXNc/+733GZZ3fsq5OU07cKk0YW5l2fZLCKUQOzQcJVnETJ4DSlD1FjLqQoRkX0opLmx9Y2/MhJpVltrAEjXI0ePxLrXHxKeU/qmk1O5scqzEInEzKx41HBrEWRBmvqMv2zcHDvMIXft7difzk6E/Z6rFdaX0vHrvUD38O5fUZWq7XkXdxyfjpdH9MZWLTk9XOWp6425U9OlaXbxs3GNH6CQZ3fyqzYkLOvLqX7TWzpnuL5g9KK8fHlHVL/kgPFQTBV1jfHoQel8AUH54jUVELkkTcc/J1TlPteuj4kP6nytLmsOxSNHKeTWtCQ9cGn5wpYpWTKHeDTWvf7gJn/pG5l+rEbC4B1ZREQ205Dq153TDiaaxXPPFujBadj0bxuXPXFapqxlEJpT/FQC1hEq0pTR+bK/97sC3TMNo9aFodZFs9L9xqqREvYXPxjX+DEKWZ36yY78xF0fGZOKTYlp3JCGCc5HFmJHhavdGfHYb9+dn6+FT1DgOoVYw4hHOBa3jmuqLn4mK65pi9qnVgajTwr0N+l6/HmI7fOSxnBgqMpzFWqmdqdzX1xmzjVpeKvoBqj1xVCVpyEjErBmanfI7/6uQn6YhmzKd+Xn/jILTvPfhlpfPy3T1sL6PIZLEx2crhAR2WTgJrJZN6y9mZFIs9plLjFwdao3ayluaPR7vufkOyV2ZIW/6L2umB6jkPcyMV0mLlg1yhC9Mg358rPGKs+8THskqrmq5DVo/FgFVqZyuwL1jDMxL9nb8QU7zhDo/qmNqoTiiZ6jM+5X+psOjoX8nsthJQ6xBP9vkH9rvUKu3tLate+2t2hmtllLTV8weqnkmK8Depztx0GQTijmhZY9fkR4rvutdO/PlMVt0wGcneIYdKhlzXDio4QDCfndCyzF+cMpPu9kUL8xuT6yd6ae5h+PH7Poh3BjS1t8NWcsREQ2GcBZuC18uW89I5Fe3pL9zhXo1BQPXG8MV3kuzdT1DD6q8Xxo9cSO7Z1QZ9qx5eYXfB+KiSketF4VrvL8PFPPwVBVSWO8u+dYhXyUyu2K4OLyhU1jk7aBvkeWJcXtJqHOuB7XPGd8xt4VGaou/nd4tueUWCLmtSCzVeX3CjyvkPdU8KZCllmQQEJwVlfXlrKQ313bUjdhS8Zfyxa37uubMfNFgc4X6Cjbj4FEnogneqb1PZZukx90DMNVJ31Pp6VsLNBhWYkje3M6U/MyXOW53RI9O5XFrN42zHHhZ5k5ecDCTB4/9tOmfYuTbhZoAacuRETpvA5Be+KJqatqSkKMRnqvjb5gdLlA90rhwPWOkN99fjYMQnzB6CQA/xTohHTvS0wTB/Td/bNThYllrsrx+zWlspClkPqQ3z03G07Giob23Q3D/IdA3SmM749Dfvf8JB3P6aZh/D2F3VmbavzIUFVJI7v25Chf2DIlJy+3KYn5+HTI7x7anVT1H+T5TM+VEPyvQF0OCOP6hIV5TdWe2+x0HZxcH9k714XlKdzkhr47sTK4iLW9ykDkuxDckspxtmVZe47EepLeYORiA1iY9rmDyu2hKvcF2VbE6mVgazWLd2UREaWZAH9mESv9fMHoyaksYgHyVKi15aJsGYSE/O5V8XjidBXJiDWdvCXTZ6W0iCXy99Cyx+dly/nYO+FQjZ+hIj2p64t1DmqXJWXybxjmvNRN2qTTSlinsYiVXcqDkS9Uutz/FtGfOqGIpZC/xjSxZ1O151a7XQdzXUjl+RrThHVGthSxejVWeX4L1f9N4ThbTDEz5kcghTwZamv5fjYWsfCfQhZU29ntExGl+4JkXcco2EIq30y0avOWrlmom9aTTQFuril+VVTPz4RjEUldvqjI++s2WOdk2hpqAwlXlTwHoCqFm5zkK57+1REvMNS3HyDQGSm8plwYnlP0Mrv07FA6f02hb0n0RhfwAgDbrwWkIq0JwVkhv/urzVUla+y2f975a0oAOTd1W7QuCc0pfirb8raxquhaFfwhdXmH8yYuWOV2/pxBmjutzrOzbfy4PWNbg65k909ElNYL0mMhf/ErjER6TQ62egGdmaI2T8QtzGq5dEJWvnSl0e/5k0LqnXwMUxa3TRfoIanZmnQjga9GLivamI35EprtvkUhd6RwhPy9kf7KHNO8MHXXFCwJ+4vuZq+eHSoaIieOLsx9S1TnpnI9p2Hnp8rtMd24V9Nsz7123UcpzP1Oqt5UuHV5gaJAtubvljXdFyrk9ZS0K7QgL7/gHIfPGeIJS7++unq3SDb3e/8pZK3iJYCIKJ2DOt6NZQc5yDk/VZMAVa1bUe15MZvjHYpHfqwQx75FzTRd303dwFV/FKp2L8/mfNmg8erUvSxAT/AuWj15pL6tvLYpH6LnpGiS805315YfskfPfOULm8b6AtHbTAOPCnSKAybgKxIWTgpVuc9f6S9fa/PdTVH/Lo1bWrv82ZzHLXUTtlhW4uy+N1amIuKQ8x0+abgq28eP+PjRwgQLWUREabseibwYrip6gpFIOwH02ykazL8WbnvjmqyPeM3U7ng8cZ5CnPeo3EUv5wBIVWHi2ZDf05Dt6dJeVbIpIYnzU9QZiOTkjVh/YJbseiaAXVOQK1bC0vM/nDepk116ZvMGIl915e/6roieZ/txDsRSkUWbNvfs01Tteczu++sLRo8Q6B7Jjws0IYkLsuENmgPpWw8RekWKMvKA8kDb/g4dqr4aanuDP35/XMgCC1lEROkb4VnXMgjpVx6MHCbA5FQMXC21LkLdjDijvnW9LKje4LT99k33npCKN+kpJB5XzdrFXP9rsjO7+FkFbkrRhGHWiH2T4KzUFAywhL/UZ/i1KtA23heM/tkQ3CuqpQ7Y5eVx6JGh2e6LW3803ikv+fh6ivqYht4+jVm9Vbi1vl6B51KxLVNcsxw3XQBUkfgex49bbX1roWFxjSwiorRclOS1kL/ofkYi/UwgRYMaub2pquhfjPgn1m3S/1PIGkfttKQoXwSB5irPO8yST3RaXVeoYF3yQ6/7Tapv8+3s9xQH2kYLcGoKrifRODb+lBmSubyByHkucb0t0K85YHwTV8jVjfHoQc1+zz+d1LsL9MwUbGd9d9fmq5jV26mrs+KamKMp+OFGgK85L0ByG9fT/URfISuGLWGGgogoDQM91Z/zTgu7jFwlBQNX6Yp1J65ktD+tbwFzgXMm4LW1veOnM1Ix0Yl3redE5zNWV+8WEQtXp2JbuS7XTvcLow3zi4DmJ79woD93wLpDNAzlC1um+ILRRw3BbQIdZ/uxDeRfGsMBIb+7FjVTu50U64r6yCEAJqUgRr/4cN6kKLP705qrSl6DJv/FHgLdw9cQneagUWrv+PEnzJBP9BWyei96CuGFj4gotQO9d8Jt9fcxEuk3qb7NJ6oVSW9zwW9WXlLcwoj/t9Ca129P3ULeO8dXWn2AQD1JzxfFjc2XVKxjdvy3ru4tv1ZIKs6lk3Z6+mHhiym4nrT0dG35DTMjI01z5ee9JdATHTCu6VTID0PLHj88PNf9lhODLS6cnII4re7u2tzA1N6x7m79iYr0JL2tRU9yzpwBv+b48dOM7ceQDAcRUQovShauRl2dxUikX55ppGKiGYt1JbhA5+epmxGHqjMWwJcU5IvI5njPhhuZGDu2bTHz65Pe1MDRfW8c3KnJkqSiALGAC7xnJoEWiWqh/Sfa8mQMsX1CfvcC/OnshHPjjeSfr6pBnq/99e+ej0T1zuRfZ3GiI+YLkFhPwprPzPi07QpZykIWEVHqLA+3L1rKMNhlkGDMSMFGfs9f0/rX2LbmTkeslaUyIwVbuYV3Y/Vvg8ZvSv5aWZpvFu1yxHD/9uRgq1egU5I8ydm4bqPFu7EoXdZDcWHI75650l/q6OVqSuevKQTkC8ndinRt6ezm+TqAnjgWJH8rchxql7kcEI67V80pWs2s+DRju0HZ+wwHEVGK5sHQn/BuLBsRHJ7sTVgJXcJAD6BuWg8UN9t6H7euj3VYsjeTUIv5MoD2qpJNQArWUnENf2LrgvmFFFxR7upbZ44o5WMZua+n29qrscrz20xY73N0vnmIQF3JjRn+2HLphA5mT/9W1njeVsijyR366Shv0b772z0WVlyDzIj/9nEhy4L1HsNBRJSSgR/fVGgjExdEdhPobklu8zeaajwvMdqDGlnerDaeEPmK5+4l0F2Smi8qz6zwF3FcNhiJFBQ+VQ4ffjobSS9kaUJvZSJQSscxIq0JxayQ331mJt1prKZ5WAoGgfcwgwbHUut3yd6GYeBQm4dhOcePn9N2HydKQt9mOIiIUuIKvqnQPvLy9ZBkb0PU+gMjPTghv3sVgOftO4FLfr6ogPky2Hypdi9XyBtJ3szBwz73kex8kcbwnKKXmQmUsj4Qckd35+a9m6o8f860Y5Mk322rkLWh18NPMIsGZxOs+xWyJbnXW8PWhSxL8Udmwo59fOtkTyT2nqs0T6XvHCYioiSNYv4RqnI/zEDYqU1kWrKvfArrzwz0kAL2RwiOsuW+GZiWzDJ0391om3v+wiQYyuxT/wjFfsmb3Or4sutXFw3ncSCFTJOkJoyyb6FUTqq/Fq5yZ2z/JMC+Sd5Ep29/780IRplMg2+TTQAKkvj9+9n5+OMJ3Mss2LGPC1ktdRO2+ILRlYCWMyxERMmRMKzLGAXbjZL2TubXq8j7IX9JIwM9eDGJP5QL12JbpouFvZNb+JR/hX80vo1ZMISBvpV4KEfMXyRzGwV5OfsAeGoof8e7aPXkZD+GmlCLP4xQyhiCi3DRy3/HTQfHMu3Yymub8hXwSlKHGzoBwHeYSfahwJ59a1/acN1ahTSvrHHzqbnP648+8+c3GRIioqRdkB5oml38LCNhN5LcQpbiMcZ4aLa++Urs+TZlYb7YTXNVyeuAtCe1XVyy15D/Tk7e7km+pnQ2tb/1AjOAUuiLvunem5CBT/BIUeEeAjXYxFk2AoSOKi+aXW7TfXucLfT5jM8Mnl5nSIiIkjLhsDSG/2UkbGlyUr/dwnMM8TDCJjZcJ2vrGwsnJnfgynwZTherSV5XTSyZMuRBtgz97wzxwvIv1M2Is/kppZNr0fO8gejPM+64DGMyWzc7uWDaspCVsMAfKvq7xn76gqssZBERJccd4bnutxgGeymdv6ZQoO5kbiNmxf/FSA+H9U+77dHEXWvKkv1q9k7tZL4ML1+S+1YnwdAnOopJydwlhTJXKD0TSNErvUs6ZmfWMYGFrOxNaFu2vSjHj/022/Z/SFgWC1lERCN/KeoCUMs42E9+viu5E02RzatqSsKM9DBYlu2WO8jLTe5gVyGrV1fvFmHjDyddNLn5Mry7q5J7955wSRBK5yTbaPAFO76SMQekwkJWtjJkou3SERIPv7nqXTZOP822/R+a2hsaewfdDAsR0QhejBTzQ373KkbCfkwYnuQO9PH+1rVEaag6O+O2G8CpkXAneRMctA57HqLvJvlcHnpfIShO5j7FgffY8pQuW9eTMu72BaNHZMYBSRFbNVsH6lJqw71qysSXKozodf9Tf6qrs6D4N8NCRDRC10ZIy6YtPdcxEnYdu/x/9u4EPK6q7h/493dnsnSnM1na0jZNpvAiBUE2URbZhIqAIhQQFxR5EWaS1PYFAbeQv8sLgi1NO1NFRRYXZFO2itBSUIHKDqUsNjNpuqVZZrq3SWbu+f2fpNUXBdommXtn+36ep099sDP33t/5nXPPOXPvOfZYZ8sfqxjlwWm7akJXtv24JkacnshqZckPTrSjc7U6OGmsGMRElupYZxswm+0LZbZNhA4D8HDV/K6D8uByxrJEC7WvnpVlz/Z9L6z33nP1eYaFiChNN0fVb7VfPY5PumbrTVCcnZhQYD2jPCTrsquzK85OfCrzZdAap/WKgzsXCnQsZtzjGdhn4HOwbdHWUMUGFjxlmkB9Xo/12OS5neNzu8MGP0uzcHM4C0+L/YG99eHfW4nlRYaFiCgtg96XYh1NdzIS2dx7sUod/XrVLgZ5SPFLZFevSYY5fMHMlyG1uXA0X6o+fvSoAd4DRjiYLAmWOGXRREBVUYlnUc0N0TE5fBFjWJIFm8Ejs+9+plwvc29dsv/8D9xdiYgoTTchGzP7X9mmLB746nBHv1+wiVEeSvnItqzq6qoOc/iCmS9D42i+2Oq1CuVaiQbcPkIPl9Fj70PDimJGg2io/Q1sZRT27D035DX1FVE4+Gg2EVEhMJC7YnW+ZxgJosFTBV/LpYFwNF884h09wI+McG7SACkWN2Xd4Bt6WqBi/G27UjTnzr2IJVigeSsYlXX9HwF/CN+L9/1lSQEOvoiIBnvzgWzV3uTVjAQRUUHzODjIsRleys5JAf1CIBK/MQf7bqUsPcoiWxiCPfugR6Q5kUVENHjXt3yjsp1hIBpiJ0XU2TXMxNrJKOcVR1/99JaU2FkzEFGUsLhpzykiGVtjR4Cra8LxmTkWMr7KVbB1BRsZhRzsI77ff0xB/8bQEBENyopo+2tNDEOOEO1xuDM/kkEeUufS0fhpT7JngL2mXuZLFldn6Agnvz/Vs3lr9lyrs5N2lNM1oUch34y2t01Q4NGMnYXInOpw/HyWB+VAZ6OVQcg97zuR1dq+4WWF8FdKIqIBssVcicaTuXZJrjAO3+tEyhjkIQXQ0e3QbS1ODqivq9jhbF+a278PLX7O5su23lEDfSKr28Fc8bHE6X3y4m8maR8aDfpuQuO03h3tPRcAWJaR1htqeUR+Xb2w84QcCV8PM6hgK84yBiH3vP+rhY3TeiF4luEhItp3BvhFy5Xlf2UkcodAnX2cXHUcozwklU5+ub25Z+MAO7ubnM1HjGeRD9KMezwAypwb54gdv6ZsQE9kiWrCwbbLO/7m9Zwop135KbJdobXR9qZPxGaWr/znf29rnLBjW6r3HIWszNCZlXjUejiwIDGt4PsDlJ11B2J6jXmUkcg9H7iNsBizmOEhItrnTmS73bOFC7znGKMOd1xFpjDKg+Nrio8W6FgH62xv3yBvQJ0mcW5iYle6gPkySDXHH7+/QL3ODXKRGPgAydl1V4aXFk1myZNCntDe7oOjwbIwGhvfs9PZhvrxnSm794y+fkqGTnGMePSx/ZviE7O7H4cEs6nwCPT+NXVl6xmJ3POBE1lJkacYHiKifWSjvnVW9SYGItdugp64wyOMAxnlwdlP9ECHy2bAgxZjW3FnB1LCfBls7IpKDnR4kLtxEOXpbPtieQ5gyRe0zUbx1WjQd0Zs5oTVe/qHrXXjWmDbZyokM+u8KSaWFmFRzQ3RMdkaTDHCJ7IK7b4h0muS5tuMRK724T+owWt//UVu+0hEtC/9M3kkWuu7h5HIPank5nWOdoyhYyfOie/PSA+CRw51+AhrB/oBO9WzztnGRKeUhzu44Ptg0kVxqMMN/YDzxVJd52y64FCWfGEyKg8m1T4oFvLfvuvhv72L1pa/bKuer5BkJs5ZFIfKqLEPoWFFcVb25cSsZWYVWgfezH73q7iUWz5wIguNJ6cUsoQhIiLa09hGtmqyO8RI5KbWWdWbFLLNyWOUluqRjPQgBj3A0Q4fYs2A8+Wtdet0HweNg7xmGalyBEt/EG2x5XC+KFYPeLJBxNmdsCy2LQXY5+hSIxfGQr7PtoYqNgz086tC/sdhzNcy1q6Lnji1ctyvdzV3WXfPWcMMK6S6hBv7X8elnGXtsYAVf2aIiIj2eCf8n7090k/ZTaCODjZV5ThGeVAl43TcBj5oufWoJCCOrqVhWcyXQbbF2ZcvsNc4PPA+Fg0NFgu/YAbev91pdh401CfAo7VldxnItRm8lBmBSGJOtsXXNsq+XEHUI0lBMTsa9F/LaOS2Pd/8Ut1/YoiIiD7wZvhENOT7BSOR8+X4D0cPIHIqozwwNTdtqADU4demzGDL3eF8sZgvAxQId0wVwNGFzw3MOwP9TArmLUdTRbFfoLz2cGZA3t+jErYxZ0eD/i+sr90/LeuuxYK+GxXSlKlrEug3AuHE/2RTnI3oP5ht+V6X8LdUyj6mOeSfy2jkvj1OZO1+yuBNhomI6D02a7L7Mjj4mhG51rN5w+EDHFF9S3slAz2AQc6Iok+J06+e2LpikJ90OF9wAtfJGmANU8+Zjg9ybR1wf3h1e2SVQnY625O3zmQG5L3lLbXlj6T7S6NLF89WyP0Za+dFb65ZkLgoW4LcGqrYoOCC73nWm+hRyKsKaUoCH4sG/Se01pe/wrjkB+/e+/d4VICDGSoioncNahTf4CuF+TIIxpvi4JSJ9PXXi4vOBfBTRnufo3a+03PE2zU1qIksBd50coZNVItHqfesTuBu5sE+xsxyNl8U0N54csBPZKGx0Uhk5tsAPuLcZID0tS0/YBbQgN17gR09YeUXAl5/hUBPyEzdxZ2BcFd7NFS2NEui8gaAE5xrS+TVVM/mk5l87midVb2ZPzjnr71PZNnyoHj0aoaKiOhfg5pHd+8URPnAtl+C5ewyMxZwISey9s3EOWt8EJzuZNdTIes21I/vHNRnU/ry3ntPQx7c9eULJ7L2KV/i+wN6vKPlAbzV1jhhx2A+a1RftMS5iSyoHhEId0yNhiqamQ00YPUH9OgN0bNl9H7PAJjm9uEFWgSRP06Z33HiqrqK1zLev1O8JuLcRJZAD/cWjyhjfSVKS996z2Jd854DpIOhIiLq74Z06PbkpYxD/ojNLF+pkITD3eOT+gabjPbeFZcO/7KoOr09+7LBfrDljZZXAOlx+PzOqgp3jGM27Eu+4GtOv4aqkEHni1jyvOODb/HynkSDvwdeG9i8M4XpClmXoVMY7fF4F9XMWz85810885zj9RWeLzDriIZu7z9BNzYaQB9mqIiI+p/G+krs6nGc3M+/kv27C53XKxjnvWhosATiRpwGX963HpWE6suOjqWgXq94LmNC7C1flnoFcnlW54sNxwfGIrgUDSuKmRA0WOvq/WthcAaAzZk4vkAnSFHpY5MjrWMzGQdR87zz9VW+2td2MeuIhmaf3qWwjfkjQ0VEhU4h86NBH3dzzUvi+PocluAyX1N8NGP9waZW1p0l0P9y+jhGzVND+rw4ny8QqUXTyhJmxZ7y5dCLBLq/4/li7EHnS7TW9yYgnc4OvrWypmLcxcwIGoporW+Fbcw5Ljxx+v55DP1QEUY+PHHOmmEZi0GootnpJ9MEWhUoP+xzzDiiIfar9+Uftbze+mfu4kBEBW5Fqn3zNxmG/GTbqcddOMwYn0eDjPYHU7G+5fgxIBtbOua/NJTvMLAdz5f+yQmv/6vMig/Q0GApnM8XAGtaasuHsi2/KvQJx/NF5Jt9MWFi0FC01Jb/xVb9okJMJo4vwHElpSN+jRn3eDJ3I8ITLozA/4fZRjTUarQvbj0qCeAPDBcRFSbpNnbq862N1d2MRX5aVVfxuhvrQapYV5WHO0Yy4u81NdJ1jqh+1IVBypJdyyYMIV/aO55TyDbnO2n6LT6V9f6qK+o+L9APOZ8uMuRBrbowMO6LRU3FzAuZGTRULSH/fWp0VsZ6XNDP1Zx02i2ZOr6KcaO+HlOzIHEms41oKH2kfb+T38twEVEhUkFdrK5yOSOR38VsoA+50Hn1jxLvdQz3f+hfL0T+16WSHno5N07rFagbrxlPCnj99UyQfzdxzpphllg/dONYRoe+vMYOu/dRN55wEQs/5MQnpUOs1t+kih9nbIAqWhuIdGXkXtnbvfMxhaScr696Y0afPCPKcfs8kRV9LbZEIV0MGREVEoXcEb3S9wtGIv+Jyv0u3XhnV83fUM2I/5+ayg/XAjjY8fos0qvbNqdlwtIYecCVvIR+p/qW9kpmyf8pLhl+lUCrXMiX7S32xiG/RrqhfnwngKecb8O0eqpn7CxmCKVDNOS/1kDuytg9GfKjQLjry24fd+3sSQmBLnH++nBI4KTTuOMo0eD70/vo1qOSqribISOiAvLmtu29IYahQDrtu36wcWE9SC0t8hQtZMR3qZm3frJA/p8rAyPVpbFrA2nZlWurpB5RyE4XTnu0Veydx0zZZUqk678skW+7cjDVR1B/QFoWvla482aDivW9yZH2GmYKpSOdYu1tl6Xj9drBN9rWL6aE46e7f+UuvYkkuKEq3DGOqUY0cNbA6rS5kyEjooLovYlsTyrOb7963HZGo0Ds+sHmNy4d7YxAJH4Jgw6xikpuFegoNw5mjNyeru/qDFVsE+B+d8Y6uDAQ7vpMwWfLjHs8HshtgLr0+pzcka5vSmHr793YDU6gw4pR9Esu/E5p0Titd9NWcx4gr2TkBgEt8ojcF1jQeYSbx032brkfkG4Xrs/ngfenTDSigRvQTa4lVPaCQt5i2Igo36nBf7eG/GzvCoxt27e52EWfX+hPTtSE4/UAznClTkM2xkw8rRvXqBr38kWsX0ye2zm+oPPlpFO/I8DHXcqXddGli9O2O+XqYNVGhbq0cZKeVFMx8yq26JQO8WvKtiY1daaKtGTi+P0/dHg8i9x8Jb91VvUmVXd+qLBEP1MTjn+FmUY0wLoz4MZE+VQWEeU3o/hJLOT7HSNReFrry19RyEtudc6LUHRPVUNLaSHGuioSP1ZEbnLxkL9O12ti/xQNlT0FSLNL+VJWVOL53a6F8QtP9YL4J0Xke64dUHEb7r3ATutX2vpz1wb/gh/UhDuOZ6tOabk3hio2GNuenqn1kkW10ustfmz8zevLXOwN/tK1AbnIwqpwx+HMNKIB1JuBfiAJc7sbOzkQEWWCQp6IPbXkGkaicAnMLe4dS4/0Vo4puNcKJs6J7++FPCDQInfqNdQYe4ETX62q81zMl08EKg+7qdDyJRDumGpZcrdALZfuA8leY9JeL2N1ZUtVsNylXCkSy3tfIJKYxFad0qGltvwfKejZLq0N+N6cVj1wxPCSh8c3rB/uxvGiobKnFHjDpd5nqdfyPjBxzhofM41o3wy4Q9AaqtgA4CGGjojyjYq09HRvvyjdv8JTbmlub79HIetdnJy4JBCOf7tQ4ltzQ3RMSak8IlD3XpMTeaRvEObEV2+BfbsKNrmYL98IRLoKZhOKcU1t5bC8jwrUtQGeAnevqStzog1QNZjj4sC/EtBFfXWOLTulQ2vQv8wY+wKFmAydwrHDx5XejRn3eNxoClTxExfra3VJ6fCH3JqoyyaTmjoCgUhidiCSuD0QSTy1+8/jNZHEgsCCri+xDaP3M6hftmzVnzF0RJRPVGS79uKctbMnJRiNAtc4rVeBJjcP2f8a0MKuK/M9tH0ddBk99g8CdfUVCgPbsaeY+hd9N3D5qTqrqTrc9YV8z5e+wcsIb8kjonqgq/lipxwbvMY6NvwWwBrX2hbgEGv0fo8V1OB4xj2eyU3xg6sXxD9ZvTB+XnW46+z+17aaVpbwBjd0LbXlfXXy8kwdX1TPDpx8asSNY/XVV4VscLG+Hje8suQeXP5iUSHkUk2469RAJP7XEq+nWaA/EeglAv3E7j+ftKAhseROGTO2Y/ckF58wpf/rCQ3mQ6s6mhYDEmX4iCgf9P+yqOaLsZm+NxgN6rOzvXu+m53XXZ1za0EgnPjvfI1p30B6eGXpIwI92eX6/XjLleV/dfIYyd4tNwLY7N5gRy1LrF/VLEhclLcDnBuiY2T02McFeoyr+aJy36q6itccO0DjtF4D+ZHL4Tx2RGXpo3n9VEPDUm/Ngvi5gXD80aknn5oo9mKFx8LjHsV9HpGHisTzylSvf/PUSPyxqZH4DJee6MlbzSH/L1XRmKnjC3B5TTje4PiBGqf1iprvu3xtn645rPrXaFhRnK/5M2HBOn8gknjAElkswPF77x9psUAvgeCtqZGuL7IGEgY7kYXGRqMAtwolovyg+GY0WPZHBoL+qa1xwg6F3uhu51UtEb21JhyfmW/xnBxpHTu8svQxtyex+qSgjg92du9wdYvL+VIkFn5TE4l/Nd/ypfqW9koZPXaJ65NYgCZt5/Ml1t52m5tPZe2+upNk9NjH+1/VzLd8icRPm1p52FuWhQdEcCaA0R8Qg5Ldu6TeEzj5tJerw11H8243eNGQ/3oD/CJjg1jB9dUL4pc6fZzmjvZfuF1fLcEFgcrxD+fjk5Q18zoPGGYNe16g5w74vqc6ApC7Agvj32INpEEvmpnE1l+qyHaGkIhymQI/jYZ8P2Ek6D/Z7Vt+qpBVGeic3xKIJObmyxMDkyPtNUUY9axAT3D72Eblwdagf5kbx9poYw4gHW5eX/+TWcBtgUji+7t+yM+DfGmKH2wVFy0T6JHuH13uXF3vf9PxwzRO67VVr3P96qDHjCgq+XvV/K6D8qKRnnGPJxBJzPMATwA6dYCx+LAl1jP5OBHsptjSJVco5JGMDWQtuTUQSXzK6fpqgIYM1NfTh1eWLp08t3N8vuRLINJ5pBR5+voDNUOKjeKHgYWJy1gDC9ugJ7JWB6s2isEdDCER5bA/R5cuqWUY6P20NlZ3G9GrMnHs/gW9Tz7N5a3G02/q/PgZRSh6UaCuD5xVpDclydluHS9R799iG/cnJ3bny3emRhJ/zPVXx2rC8c8VeeXvAp3ier5AtqU0da1bx2sJlf1WRf7ueq6oVns91gvVC+Pn5XSu3LShInDKaX8WaP0Q6k3Rrong+CW84w3SvRfYO9q7LwSwLENtnwfA/U4/XRdrb7pDIS9l4PqOKSrxvFwT7jg+11OlJpz4PMTztEDL0tOWYX71gs4DWQkL15C2MbbVnqf9DzQQEeUWFSxPpHABdyikPQ42r/TfD8hTGeqgnzZ8eOlrNeGuU3MucA0rigOR+I/Vgz8JdGxG4md0zupgZczVfOlsuj0Tg53drdo5MmbsK4FI4uO5li4T56wZFojEI5bgfoGOzEj0gB/s3pnbtUOapNZnoh/dF2OP4r5AOP7TXHx1KRDuOllGFL8squlpG0VuDSzoPIJ3vMFpa5ywY/uOnrNV5B8ZulcOs8RaFAh3THXsII2NBkB9hq5vnIj3yZpw4ps5+aR2f38g0WSJ/nbXq4Fpa0JLPZbnJtbAwjWkiazdW1kvYhiJKKcI1nYncWai3r+FwaC9sY39dUB6MtSBnSAiT9REEgt8TfHRuRCv6nDX0YHKcS8JcLVk7HU3iW7v6Pm+64ftG+wY+3KFZGSCXFSrAfylJhy/OVcmKKoXdJ5YUjriNQEytmunCpbHXo3Ncfu4LfX+51UlnLFboeDrIypzZ7K8PNwxcmo4ERaRJwW6fxrrTTEsz6358npuJrRdNaErleqd7vYmKe+6V5aJeB9zcg24aND3bKbWBOt/elD0xsAppz2TS68GV0faPzx13PjnBFrnUOt9Ts28zgNYAwuTNeT0UfsGhpGIcoVCEkmD09fV+9cyGrRPg83a8n8oTCZ3ZxILGhrrlX/u1pOVg62+AUQgHP+pJdYyAQ7JaD1X899tjRN2ZOLY0drylwG9OXP5oh5L8D/DK0vf7N+dLUtNnts5vmZh4g6PZT0t0AMyeE+wNaWX4tajkpk4/lakrnN/4fd/i8BUS2RxIBL/zf5N8YnZmi+BSNdnR4t3OUSDDtWbI6sXdH6ad7zBa60b15JK2WcqZGuGcjkwwluyqPKmDSOcOoLds+VqhbRlrH1X/WiRx3o1EI7fmM2vklc1tJTWhBM/sFD0ElSdfdrRa13E2leYhjyRFQtV/E0hTzOURJTtFLITBme1hvxvMRo0oMmJ9uU3KeSFTJ6DQCf079YTSbwcCCemZ0tsysMdI2vC8YaR3uKVIvi6QK2M1nPFz6KhsqWZPIdU+5brFfJWhvOlqn93toWJZYH5nSdlzQBnbst+U8Px/y0q9ay0VL+cBXeGm2N1ZS9m6uidoYpttsHXMh0FAS4e5pWVNZH4T7Jpbb6qSPzYQCT+N4H8wem10yzLw4Xfh6i1vvwVY/Q8hSQz1O4dNWJk0X1oWOp15PpmVW8SmCsy3GaViOCb1uixKwOReN3EOWuGZU0CNDRYNeH4V7yVY96yRL8tUK/jZS5yMmteYbLSNDrkU1lElNX6OlVi67nRWt9zjAYNWOPJKWjq4mzYrVegh4von6YuTLxUsyBxES5/sSgT5zFpfteEmkjiR2PEs9YSXA9gTBbU87d6enbMyvhgrrG627ZTn8/UK6n/li+qHxWPtXRqJP5c/wLfGVpjpXpBW1VNOH6zt3TMWgiuTe9aKYPOlxeir7Z8N9Pn0VLrf8IosmD3XC21gNnDh5eunhpOhDP4yo5MnR8/o2Zh/E9FwHMCHOdS23pq30CcN7yh57PAXJqxwa1ieqDyMMdeFW0Olj2kip9lQX0tF6CptHREayAc//bkSOvYjJ1Kw4rimkjXxYHKmW9Ygl+5uWGHANNY6wpT2ip4IJJ4QaBHMaRElG0UYlR1Rizkf4DRoKHd6+KXCHB7VuW3SLsY/ZUxqd/G6iqXO3qwppUlU71jz1BYlwD4zO4do7KlS9NjI3lMS7Dy9Ww5o5oF8XrLwrws6/mtVZXbUrb5XWtd2dtOHmrinDXDikqGf9oS6cuXMzP9tN5/3Be29aZSh6+pr4hmxQk1rSwJeP3LBHp4lt0/n4Qxt2808qDT60oGIolJavRcseQKgX4oE9ebtJM1rXXjWgbymaq5bVOKSopbHCyDp6NB30m5d79MXC3QH2csd1W+Hw35vudU21ZSOuKlTOXpB90DFfpHsfGr5q6mJ3YvUO+oSU0dgSKv91ILuAzQikxdeXPQ7/qSCzWR+DcsYK5T32+AWbGg/xb2vPfUnUmTqZGucwB5kCElomyjwFeiQf8djASlqfPy812dtmzMdXlHVBcp5PGNtj6bjoHn5Eh7jRfeT0Ax3RJMB5CVi84bxVdjIf/t2dbPqgnH77YEF2RpOq9QxaNG8MQ2tZd1hiq2DfULqxd0HmiJ5xMQfAqC07Phyav3zReDz8Vq/X/IpnPqq2tFKHoxUzt97iWVuxW6RA0ehy1PxhLz3hzqQLmqoaXUWznmCAVOEMG5ovrRTF+lLebElivL/zqg6+BE1gcKRBLzBFqfufuCXBEL+Rx5empyU/zgIq/8PVM7re6lvnYqsAgGi5LW1idWB6s2puVrL3+xqOrw6iO9KmfC0s+K4tBsuFpOZBWmtBZ6YGFiWTbchIiI/nUjEA3GrixbyEhQ2ux6cuIvAj0mm09TIUagbyuwXIE3RXWVEVlv1O5Cr70p5SlOebzbtktP8RhvscdrbI9PLCmzxEwxkBpYmCaQj4hqZdbXc5UFsZCvLhvPrTzcMXKMeJYhy19/6N9pUfRNKJYDeEugq4yiTcXuND1mi63FSWDHTo94R3ssb5HxWD6BKbfEmiJAjYocIsDhgJZne74o5AfRoO+72XhuU+fHz1CPLMqmp9c+wBaFvKLAG4A2w6BVLGlP2SaBVLK7x4PtHhSXlHrs0hQw0rJkFIxMtkSqAakW6MEKOVKgRVmVG7Y5OVpX/tRAPsOJrD1oaLACFTN/L6LnZ+4+aM5tDpY95MT3Vy+Mn+dR3JcDQ/5mhT4PyCtGtEVS2qq2vaZlY9dGNE7r/fcyW1E8oXy/UaXqnaBiVXlEJqtYB0FwjGh/G1+SZdfW2Rz0uf40GCeysqDk0/llgfmdJ4nHWsqwElFWDG45iUUOmTS/a0Kxx3o+nVvA06AHKkujr8bOyNSuc/uUL00dgWKvd5lAy1hiGb4vqDwY65j3OTdeuxn0ACmc+KYleiNLKwP5YcvxsTrfMwP5DCey9qJpZUnA439cRE/M0D1iJ4DTokHfsw7V1x9Yot/O8dTfvPvvMTnYB8hI/eBEVual9deeaF35Uwp5gmEloox3RjmJRQ5aU1e23rZTnwawhdHIYAdWsFy3bDw3myex+vNl1zpMn9k9oKLMWbazo/vibJ7EQv+O4L4fK8D7Vwb0qLYyCmlWf0CPbt14DoAVmTi8QIcBeGhKpOu/HKqv31XgtzleSmNycRJrt7+ykhWmtD+2bNR8m2ElokziJBa5YVVdxWspxYxMbTNe6BSyrjuJM2PXBjbnwvlGg75njeiXFGJYehkZzjZvS/We09Y4YUdO5MvSJXVGufasy23KhnX1/rWMRPr1tdM7U5gOQUbiK1C/B9ZjVeGOcU6kTrR9w1cV8jRLOhOdftzNIBSmtE9ktYTKXjCQuxhaInK/EwrlJBa5aVXI/7gR/TwnJ1wfcLZBUyfl2qCz5Ur//ar6NZag6/kS25nSkzfUj+/MmZO+9wJ7Z0f3xQrhkh1u5Ynqw4yCc/raa7Vl+rteY3OVQKcUiXdRebgj/YuzN07r1S0bP6OQ51nSrrbtT0ZrfSsYicLkyEKSvd16nUJ2MLxE5OLNzBjVL3ESi9zWcqX/fqPmy5zMcq2ud6mdPCMaqmjOxfOPhfy3G9EgS9K1fFkHTZ2Ri0/atDVO2LGjvfssBZ5lSTrPhh1hFJwVrfWtsMWcDUhPhlqEj4wW752OtO3XBjYnsXX6rg0QyPm2Haq2uYaRKFyOTGStne1fp+AilUTk2kAlKTDntoTKfsNoUCb05Z7AXMLJLMfrepvayVNidZXLc/k6YleWLeRkliv5sgqaOilXJz2xezJLt2w6UyFcB8ZZ97aGKl5lGFy4X15Z/ldb9YuZul8K9NxAJH6JE9+9Oli1cXuq9xROZrnSwN8Uqyt7kYEoXI5t7dvbveMmhXDBRCJy9j4msl1tM92prZWJ9lVzsOzXAr2Ia2Y51Wftn5Q4Mdcnsf6pfzILuJSTn47ly9vdKT0hlyex/pUr1wY272jvnq6QxSxZJ0hnb4+ZyTi4pyXkvw/Qb2SwzG+YOGfNMCe+eUP9+M5Uz5YT+Jqho+X3UPSpJd9iHIZu/6b4xEC468uBSNd1NZH49wKRxOU189sPzYVzd2wia+3sSTuNsWuZHkTk4EClS1PmpFhd2ZOMBmWD5qD/3v7d6US2MxpprOuC5fkyKfFusaD/VwK9KHOv2eTtveH57ameE/Np4e62xgk7ou1tn1bI/SzhdLYt0msb+/zVs8rbGA13RYP++Qpk5A0egY4rLRl+sVPf3zqrepNu2Xi6iixhSae99B7q7t5+Ee69wGYsBq8qEj92aiSxdJgXa0TkDoH8yAIaBfozy+N9PbAw8U4gkriwv7pkKcvJL2+pLX+EN1wicqjz2QJNfYyPFVP2dc59f4Jtn9i/IDmlw583JnF8vu4m1hz032tsnKqQOIs6DfcGyAM72rtza2H3fdU4rTca9M0wip+wpNOSK1uh+GxLbflfGI1M3S/912VqkzAVudDJ749dG9gc3dB2JjdBS2edxa3NSxd/bu3sSTsZjcGrCccbvP1rL+pJ/WswqoaM2ickgY+p0S/33UdF9UCB3h0IJ+4Z37B+eDZeh+X0AXptU99/oyAiSheRl1Mm9fF8ezqD8qhzXlv+sia7j1XIa4zGkEYakeb2189K1Pu35PNlxup8zxhjf1wh77DQhzTIuTHaPm9GW+OEfN5wSGMh/1UGciVfYx5Krkir2snj+n94oMzmc3vbZQp5PAPHPh4z7vE4eoTGab2xoO8SVTSyqIdUX40BZkWD/q/zSayhCUTi37EE1wPSbat+MRr0H9ccKovEQhV/aw36l0Vry+6KBn3n9U9qQTaI6PnDK0t/nY1PZrlyQlPDXUGIhJk6RDT0ca08vGND90V5PlChPDFxzpphpaUjbgX0i4zGgLon3Qq9Ihr031FIV+2/sWvUfqOsOwX6WebAgAY524zoV1qu9BfUWwA18xPHiQf3CXQcs2BA+bJ4e6rn4nQ9tVc1t21KUUlxi4Pn+3Q06Dsp39u+saOspwH9iJvHTfb0VrfOGr/KlQmEcNdnINZdAh3FWjig/E+IrRc31/n/nFXtbyT+DQuY69T3G2BWLOi/JZ3fOWV+x2Eej+eV/rgaOcvu3PykVTH6LAH2F2Bk/3EVbZYlT0SDvjVV87sO8nqsFwQ6UlUviYbK7symMrDcOEhzqGyhQpayKhLR0Bp1CUefXHwuJ7EoV6ydPWlnc9D3JYXWch2kfey0ivwjZaeOLbRJrD7xa8q2RoO+zxmVaxSSYjbs0yDndRvmqEKbxMLuJ/mSPfYRgDzFTNiXXIGqyvejSxdPz8tXT3O87bN7k5/qXzbCTcWe/dw6VDRU9qAx9lEqWM4S3+f2/XlNdn8k2yaxdp+c5lo8PR7vD6T/QSa5PVbrW4T9Ssd5BPdaglsg8m2INHgs/BJASyCcmN5aV/a2Qr/b/2GR76Ohwcqm63HrZFST3V/hK4ZENMgbmQ3VUCzoq+UjxZSLosGysEmCHdi9dhbws23beo9YVVdRyK9kaizk+7Ha5mMKWcms2OPNYW40FT9mVbCsYF/JXD2rvK25fd6pUL2Ok597tAa2OSUa8n0v3f0I4y3qdTTNRQtiPaCWb1S2a699hkK6XBsIi7q6a2xLbfk/Uhu2HKOQJlbJPfb7DRQ3RNvbTojNnLA6S09zcy7FtGpuy34ApvfH107O/Y94t0aDvuHRVHyUAncL1APB1/v+v+3bkz8HpEeAyVWV9cdk0zW5NqvWl4TGZHKbVSLKyZuZYJOBTm8OlUUYDcplsZm+N/o7sIof90/O0v8RrDUwZ0VD/ivarx7HHR/7n7Ype3GLpo4wKgsUuffLr8ODnJix9dTmkH826g/gk46NjaY5VHYDYHNdvvfPlzuSPVs+HK0rd+TJtTXLV3U62aaLkQ2Fc58sX2kbPUshrkzede+w17t9ja2N1d3RoG+mQs7sn2Cl97TvqqlPNIf816FxWm/2nqc6ukGLqqb1qVGvd+ThAvUqpCtWV/n+P6rWH9AjilW7T6C976++PpkCz/f97yLVI7KpDFx9PKyl1n+bQv7IKkpE+2gFjH10S9C/mKGgfNDfgQ35r4GxjwHkFXZYoUZlQSKJabFg+aPMkH/XGarYFgv56mDkOABvMl/EVsWPd7R3HxqrK3uSGfLvosHyl6Ltrx2l0G8B0s18kZgNfDIa9H2ldVb1JscOdOtRSYG+7dh1iBbU5OSqWv/f1eD8/qdynM2PdW1XTejKXH31/SmRwiH8seJd7TtwY3/7Hqr4W7afr+lNOvuEvdjL09uOeHatpSj6fjtqVwQWJh4KRBKvQnCtAr9Pyrbr3vXpdbvKyMqq9Rhdf8+xp3v71zj7TET7cEO7f7Pax3JnQsrLAWdt+cvNSxcfbVSuAKQg12pRlb/AmKNiIV9dvu9KOPR88T3X/GrL4QaYpYJNBXpPeBwGh0VD/mu4TuIeNJ6cigbL/jfZ0/MhVbmvIHNFZLsqvtPTvf0Qt34IM4Bza/gkpeB+zIvV+haJ6uXOtima8R0r++59ffdAk8KxUDxXwH3+pWonPxIN+q/Nlfa9ddb4VQqJOfPt0tnSHnkjrd9o7X4VUuU9mw0INLnr710LvgNy0E4dlnxXAY3e9Re2ZVMZuD6RtXb2pIQauZCvVRDRB9zMjEK/FQ36ZnSGKrYxIpS37r3AjoV8PzNbNh4AxQ19g68CqeNvGcV50ZDvE9Ha8peZCPvo1qOSsaD/lp1291QVmVcoT9wo5NX+106DvjOitb4VTIR9H2RFQ74ZtpgTASwrkFyxFbi1N2UOjIb8P1w7e9JO946dusOha3oxNtP3RiHmcHPI/0ujuN6xMlO9NVuutaXe/3xzyH+cUbkYkGgB9fnfUui50aDvlA983S2bz1/VkV38TN/3Njam9YlEY+zdeaVV429eX/Yf5dASvdJ3TvPSxf/Vd88V6GFjYH35X/9A5LDdF5xV63ZmZOX5aK3vOVHzHXYziOjfSYeqOT0aLPtf8DFrKhCxawObm0P+63Zs755igDkK2ZGvHVZj5PPR9nmHxEL+B1jyg7O+dv949ErfN3p77BoDCefrbph9nendA5wj+NrpEAbIV5b/tTno/5iqfCpfJ7QUklTIHdDUQdGg/+tr6spcX/eoJVj5uhPLpxhjNxb0/THkbzSKn6c/Z/BoS6jshWxL5VjI97vm9tcOguKy/H6DSZpt1S/29QeiwbKcXXZo586ecLqfku7rA/b2YG7a26ja8n8oZKUAMmJYyZfe9x/de4Gt0D/0n4dYp/X9HQh3nSzQ/VWkd5PBkqzKokweOxBJ3C/Qc9nNICIFnum19YJMdECJssnEOWt8pSXDLlexavs6Dzlft0WWqNpzY8HyRZygTr+amzZUYETRFRYkBGhFzueLYpERzG0J+pcwXxzIl/mJ48SDWQDOFaiV45ez2Qh+3pPEvHX1/rUZj+289ZOluOQ1UeyXnrog90VDvhkFn7Qz7vEETjntD6J6dpruSduTmvzw6mBlLKuv+/IXi2oOqzlfBLMFelSe9PWfVYObY51ND6b7iaNMCYQT/y2Sxqf7FLObQ/65jrRRkcQVFnQhIJ1JTX0YvXZpUUlxi0JeiwZ9h/f9m+pI+4c98L6mgk0bk6ga65XFAj1aFT+LhvxXZFPsMzmRhfJwx8gx4lkGYBq7FkSFSfufzJUfxTpeux6NJ3PrcKJ3d2I/XH2WWHIpgE/1b4ecM6TDqN5lA79sDfnfYmG6oGllScDr/6xAv6rA6ZLhPt7A7gOyXoE7RFO3cV1Ed9TMWz8ZRSVfEchXBTol5wbDip/v7Oi5J9vW06lZkDhTLDychknCFWbLpuNi1wY2M1uB8Q3rh4+oKFkMwcfS0N5cFA36fp9L1x+IJD4O9D+lNUOgI3OrvspWQH8NY36Rr8sJBCKJ2/ruvWn4qnubg/4LHfsRp2GpN1B52DKBHqmQl1KaOqs1VPH+u6I2rCgOVI67Q4CLFBJPaeqQD/y3meppZvoEJjV1BIq93hcEOpbNNFFhUcgGVfPFWKhsCaNB9MGqwh3jimB9TsU6D8BJ2fgkhUI2AvgDFPdGX4stwa1HJVlymbF/U3xiiQfnieB8AMdl56SWdKrqA0ZwX8vSJUtx7wVcOzVDBVG9sPN4MZ4LLNHP9HXNs7S/8JqoubvHNveuqa/I6jWEahYkLhILdwq0aJBfsWJnCtOz4SmzbDL+5vVlI4aXPDWUByCMaDB2ZdnCXI1Bebhj5Gi1zoVlXQDB6aJanKXNSrcCi2Dw+57e7Q+7uV5dRvQ/NXjqXaL4/BDauD9G29suROO0Xqf7B8O8shTQqf0/Ohr94Q7T+7sN9eP7Nx6aOGfNsOLi4dPFg0ZRHApgixqZHq31Zd1mBFnRsakJd50qYv1pCA0+EeUYFXl4e7Lna/9sOIlo3zvzw0tLTxFLT1fIaQKtytDA0hbV5xWy2Fj2Ey1PLn2WkxHZp/qW9koUeU6zxPokgNMy9bqqQpIAlil0sQ083rp0yQvMl+wbfQYWdH5ELc8nZddTfR8HtDRDfYR2GPwVgie6U7oo1yZ1asIdx1uW53dQTBxgPXkgia2XrQ5WbWQ6vtfkSOvYIoy6U6BnDTC1O21jX9pSW/5IvsSiPNwxcqTlOUMMzhBLThPV6oz26yErAV1iVBd1d/QuKcDdZWVquOsaFev/DWROo3+TCsUNsacWN7h1T5w4Z42vpHR4WICLdp+DAdABoBuCCe+aIF2mRi7L1o1WsuYXukC468sicgebaKL8ppAdqpgdC/l+xmgQpaFjP7dzfFGJfFRUPqqWTANwCFSnpPMpHIXsFOBtA7whwOtq47ne5PaX8/5X1jy0f1N8YrEHx1rA0f25IjIt3ZOh/TtwKt4CsEKhr4qRv0dN/GXUH9DDEsghDUu9NWWHHm5ZOEbFOhKCaaL6IWDXVuxpbF82AHhHVF+G6MtJGy+21pW9nQ8TDaPhuQoitQL17yUGLxk1jS2hsoeZeHtXHY6fb4l8V6Af3nNbhE1Q/CyJbTfm++Rg/xptntJj1dKPCuRIAH1te5lDffk4gFcAfQW7XlF7OtteO8uUKZGu//JAGgE5T6DePcTQAHjItlPXr6qreC0T51oV7jjcI54vCeQUAfYHtEQh66FYpop7Y7W+Rdkc66x61DwQiX9HgO+zChDlJwX+pklzaWxm+UpGg8jBzklDSynKRk2xRCZ5BJMBLVfIWAXGimCEqox4T4dAsEkU2w2wUYCNqlgnFlYDWBNtn7cuXxZmpfca37B+eHFFSVWRwWS1ZDLElOGf+QIM/898Eelfv2OzAtv6ckVUEyqyPgVttbuxZu1s/3ou1J7Hkwi3tFfC8lahCJMsxQRAylThE8EoAGNU/3180Z8vik0QbFLoxv4dio291his2wormqj3b8nrgF3+YlH14dWfEMVxIjjwX/VJtBMGy1MGi1fX+99kZg1czfz2Q+HxngrFwYBU7Mo33QmVlWL0mWZNPFXIE+jjmtrKhxV5DxKVvro62Yg1UUR9ovD19QkAlKB//U0ZtWtiQLcpJCXQnWZXn2BTf30F1quatZZasZ7e7e+snT0pwezbs4lz1viKi0ecDkuPFkiVKrwi6OtHrVHVV1K95s+rZ5W3MVKDl3VrJkwNJ8IQDbJoiPKHQnYq9Fux9qYmDoaJiIiIiIhosLJuB6TE0aWPjR350QME/YuLEVHOk6eSSE5fFSz/E55+mr/QExERERER0eBHmFl5VjPu8dScdOpvLcEFLCKi3LRrjRRzTTRYFuErJkRERERERJQOkrVn1rCiODBu/H2iejaLiSi3qGJRqrc31Dpr/CpGg4iIiIiIiNJFsvrs+iezxt0uis+zqIiynwKroVofDZU9yGgQERERERFRunmy+uyejtgbhx/1R191zf4AjmBxEWUnFelVyI0723suXP3NyjcYESIiIiIiInKC5Mp5BhYm5orqTBYZUXZRyGJN2sHYzPKVjAYRERERERE5SXLpZGsWxOvFkrkCtVh0RJmlIi3G6DdbQv77GA0iIiIiIiJyg+TaCQfCXZ+BWL8T6DAWH1FGbFbID6LtbU1onNbLcBAREREREZFbJBdPOhDpPFJg/QHAJBYhkTsUkgTw0x07uv9f21UTuhgRIiIiIiIicpvk6omPa2orH+EtuVugp7AYiZyjgArkN0m793utdeNaGBEiIiIiIiLKFMnps59xj6fmlFNvsBRXsSiJ0s+oPAiT/G6srnI5o0FERERERESZJvlwETWRzk9b8PwK0HIWKdHQGZUHbdtubK0vf4XRICIiIiIiomwh+XIh1be0V0qJ93ZLMZ3FSjQ4nMAiIiIiIiKibCb5dj2BSFcQsG4Q6EgWL9HeKcSG6D3aKz+KzfS9wYgQERERERFRtpJ8vKiaeesnS1HJTwX4FIuY6P0pZCegt0PtOdFQRTMjQkRERERERNlO8vniaiJdF4tYc0S1kkVN9K9q36HQ+Tt29Py07aoJXYwHERERERER5cyINt8v0H9j16ixI+VbEJkFaAmLnAq4ur9ioPNjqcRvUX9AD+NBREREREREOTeyLZQLrZq/odprFf9YRM9nsVOhUEgSovdBZUE06HuWESEiIiIiIqJcJoV2wVWR+LFFwPUAzmDxUx5X7SjU/CIJc3trqGID40FERERERER5Mdot1AvnhBblGxXpVaN/BPTWWKjsyf4HsoiIiIiIiIjyiBR6AKYsiH/UI3IVBOcK1MOUoFyjkBdEze29sv13q4NVGxkRIiIiIiIiylfCEOxSNbdtSlFxcb2KXCbQUYwIZTOFrBLVu3tt3LW63v8mI0JERERERESFgBNZ/8HXFB891otLAFwuwCGMCGVRde00it+L4rfRWt8yvjpIREREREREBTcyZgg+WHVT/BiPF5cr5EKBjmREyG0KaVPF/ar2vS1PL30G915gMypERERERERUqDiRtQ/8N3aNGjNKzreACxXySYFajAo5RSHvAPqQ2vJgrGvec2hsNIwKERERERERESeyBqzmpg0V1nDv+SryeQDHCWNIQ6SQFIBnADxqjP1gS235PxgVIiIiIiIiovfiJMwQ7N8UnzjMo+cYS84WyCmiWsyo0D5aY4A/Q/GnTTYWJ+r9WxgSIiIiIiIioj3jRFaalIc7Ro60PGcI5BxLMR3QCkaF/kkhGwEsBcyTNrB4VbDsHUaFiIiIiIiIaGA4keVQXKsj7YdaKDoN0NMA+YRAhzMshUMhXQD+ptCnBeav0fYFr3CtKyIiIiIiIqKh4USWGxpWFE+prPiYpdaJluA4AB8DMJqByQ8KsQG8oarPiyXPJ5P67Op6/1v9/xcRERERERERpQ0nsjKhocGqrgweIuI5Tox1HARHAXogF47PDQpZBejfofKCIvX3nR2pl9saJ+xgZIiIiIiIiIicxYmTLOG/sWvU6BH6EcvyHAXokYAcCeAAgVqMTmbs2k1Q34ZguRh93aj1+g7T88KG+vGdjA4RERERERGR+ziRlcWqGlpKveUjD4bIIRA5uP8PcAhUp/DprfRRyE4AKwX6jkLeMWreVmPeWLV89Zu49agkI0RERERERESUHTgZkoMmzlkzrKR4RA3ETAWsqRANAHIAgKl9/7dAvYzSe1K9U4EWQFsArFLIKoU2w/SubKkdv5rrWRERERERERHlwOieIcgzDQ3W5P1qK60ia7IIJnmASUYwEYqJIlIJoO9PmUDL8uSKtwDSCWgngDUK2SBq1kOw1oZsMIp1vR09rVzDioiIiIiIiCj3cSKrUDUs9VZVTCuzRCsAbwUEYzwG+ylkPwBjINhPBWNgMEYEIwAU9f13gRYpZCQEpaJail2v5hULdNg+plwPoN27s2+rav+Of5sBmN1/J/snpxRbYGEztP/Prv9tY4uq6YKxOlLGjq/e1BFH47ReFiYRERERERFRYfj/AQAA//+s9d+cOEM8ZwAAAABJRU5ErkJggg==;" parent="18" vertex="1">
                    <mxGeometry x="141.85" y="90" width="94.8" height="24.37" as="geometry"/>
                </mxCell>
                <mxCell id="33" value="" style="endArrow=classic;html=1;strokeColor=#000000;exitX=0.5;exitY=0.16;exitDx=0;exitDy=0;exitPerimeter=0;" parent="18" source="29" edge="1">
                    <mxGeometry width="50" height="50" relative="1" as="geometry">
                        <mxPoint x="70" y="158.75" as="sourcePoint"/>
                        <mxPoint x="105" y="108.75" as="targetPoint"/>
                    </mxGeometry>
                </mxCell>
                <mxCell id="187" value="" style="shape=image;verticalLabelPosition=bottom;labelBackgroundColor=#ffffff;verticalAlign=top;aspect=fixed;imageAspect=0;image=data:image/svg+xml,PHN2ZyB4bWxucz0iaHR0cDovL3d3dy53My5vcmcvMjAwMC9zdmciIHhtbG5zOnhsaW5rPSJodHRwOi8vd3d3LnczLm9yZy8xOTk5L3hsaW5rIiB3aWR0aD0iMjU2cHgiIGhlaWdodD0iMjg4cHgiIHZpZXdCb3g9IjAgMCAyNTYgMjg4IiB2ZXJzaW9uPSIxLjEiIHByZXNlcnZlQXNwZWN0UmF0aW89InhNaWRZTWlkIj4mI3hhOyAgICA8ZyBmaWxsLXJ1bGU9ImV2ZW5vZGQiPiYjeGE7ICAgICAgICA8cGF0aCBkPSJNMTUyLjU3NTk5NSwzMi45NjM0NDUzIEwyMTEuNzIyMDU4LDY3LjExMjQ0MjcgQzIxMy4zODc1MDMsNjUuMzQ4MzI5IDIxNS4zMzI4NTksNjMuNzkwNzA4MSAyMTcuNTM5NzM0LDYyLjUwODg3MDggQzIyOS44MDY0NTcsNTUuNDU3MzQxMyAyNDUuNDUyMDM4LDU5LjY0NDE4NjkgMjUyLjU3NzAyMSw3MS45MTA5MTAxIEMyNTkuNjI4NTUsODQuMTc3NjMzMyAyNTUuNDQxNzA1LDk5LjgyMzIxNDMgMjQzLjE3NDk4MiwxMDYuOTQ4MTk3IEMyNDAuOTg0OTc0LDEwOC4yMDcxMjQgMjM4LjY4NDkyOSwxMDkuMTA3ODQgMjM2LjM0MzgxMiwxMDkuNjY4MzIgTDIzNi4zNDM4MTIsMTc3Ljk5MzAyIEMyMzguNjU5NTgyLDE3OC41NTQ2ODMgMjQwLjkzNDQyOSwxNzkuNDQ5Njg2IDI0My4xMDE1MjgsMTgwLjY5NTQ0MyBDMjU1LjQ0MTcwNSwxODcuODIwNDI2IDI1OS42Mjg1NSwyMDMuNDY2MDA3IDI1Mi41MDM1NjgsMjE1LjczMjczIEMyNDUuNDUyMDM4LDIyNy45OTk0NTMgMjI5LjczMzAwNCwyMzIuMTg2Mjk5IDIxNy40NjYyOCwyMjUuMTM0NzcgQzIxNS4wMjQxMDUsMjIzLjczMDg4NCAyMTIuOTAyMTg5LDIyMS45ODM0NDkgMjExLjEyNTQ1NiwyMTkuOTg4MTAzIEwxNTIuMzQwMTYyLDI1My45Mjg4MDMgQzE1My4xODA1MTksMjU2LjQ2ODA4IDE1My42MzUyNDgsMjU5LjE4NDMxIDE1My42MzUyNDgsMjYyLjAwODM5MyBDMTUzLjYzNTI0OCwyNzYuMTExNDUyIDE0Mi4xNzY1MTIsMjg3LjY0MzY0IDEyOCwyODcuNjQzNjQgQzExMy44MjM0ODgsMjg3LjY0MzY0IDEwMi4zNjQ3NTIsMjc2LjE4NDkwNSAxMDIuMzY0NzUyLDI2Mi4wMDgzOTMgQzEwMi4zNjQ3NTIsMjU5LjQ4ODQ4MSAxMDIuNzI2ODAyLDI1Ny4wNTQ0NDEgMTAzLjQwMTgxLDI1NC43NTUzNjIgTDQ0LjI3MTQ4ODcsMjIwLjYxNTQ1NCBDNDIuNjIzODI1NywyMjIuMzQ0OTMgNDAuNzA1Mzk0LDIyMy44NzMzNzggMzguNTMzNzE5NiwyMjUuMTM0NzcgQzI2LjE5MzU0MywyMzIuMTg2Mjk5IDEwLjU0Nzk2MiwyMjcuOTk5NDUzIDMuNDk2NDMyNDgsMjE1LjczMjczIEMtMy41NTUwOTcwMSwyMDMuNDY2MDA3IDAuNjMxNzQ4NjIxLDE4Ny44MjA0MjYgMTIuODk4NDcxOCwxODAuNjk1NDQzIEMxNS4wNjczMzk3LDE3OS40NDg2NjkgMTcuMzQxODM1NiwxNzguNTUzMjIyIDE5LjY1NjE4NzYsMTc3Ljk5MTY0NiBMMTkuNjU2MTg3NiwxMDkuNjY4MzIgQzE3LjMxNTA3MTQsMTA5LjEwNzg0IDE1LjAxNTAyNTcsMTA4LjIwNzEyNCAxMi44MjUwMTg0LDEwNi45NDgxOTcgQzAuNTU4Mjk1MTg5LDk5Ljg5NjY2NzcgLTMuNjI4NTUwNDQsODQuMTc3NjMzMyAzLjQyMjk3OTA0LDcxLjkxMDkxMDEgQzEwLjQ3NDUwODUsNTkuNjQ0MTg2OSAyNi4xOTM1NDMsNTUuNDU3MzQxMyAzOC40NjAyNjYyLDYyLjUwODg3MDggQzQwLjY1NTEzNzQsNjMuNzgzNzM2MSA0Mi41OTEzMjY5LDY1LjMzMTM5MzEgNDQuMjUwNzQxMyw2Ny4wODM2NzU2IEwxMDMuNDEyNzYsMzIuOTI1NDY2NCBDMTAyLjczMDcxOCwzMC42MTU0NTMyIDEwMi4zNjQ3NTIsMjguMTY4NzUwMyAxMDIuMzY0NzUyLDI1LjYzNTI0NzggQzEwMi4zNjQ3NTIsMTEuNDU4NzM1NCAxMTMuODIzNDg4LDAgMTI4LDAgQzE0Mi4xNzY1MTIsMCAxNTMuNjM1MjQ4LDExLjQ1ODczNTQgMTUzLjYzNTI0OCwyNS42MzUyNDc4IEMxNTMuNjM1MjQ4LDI4LjE4MjYzOTMgMTUzLjI2NTI1OCwzMC42NDIyNzY4IDE1Mi41NzU5OTUsMzIuOTYzNDQ1MyBaIE0xNDYuNDEzNjM4LDQzLjQ4NDg3MTMgTDIwNS43MDA1NTUsNzcuNzE1MTkzIEMyMDMuODY3ODk5LDg0LjE1MTY4ODggMjA0LjU0MDUxNSw5MS4yODg1NjM4IDIwOC4xMzc2OTQsOTcuNTQ2MTU3OSBDMjExLjc0NjYwMSwxMDMuODI0MTUxIDIxNy42MjU3ODMsMTA3Ljk4NTc4NSAyMjQuMTUwNTQzLDEwOS42MDc2NTQgTDIyNC4xNTA1NDMsMTc4LjAxNzg0MiBDMjIzLjgxODAzMiwxNzguMDk5NDYzIDIyMy40ODcxOCwxNzguMTg3Njc0IDIyMy4xNTgyMDEsMTc4LjI4MjQxOSBMMTQ1LjcyNTI5LDQ0LjE2ODYxODIgQzE0NS45NTkwMTcsNDMuOTQ1MDQ2OSAxNDYuMTg4NTEsNDMuNzE3MDg3NiAxNDYuNDEzNjM4LDQzLjQ4NDg3MTMgWiBNMTEwLjI5MDkzLDQ0LjE4NDEyMDMgTDMyLjg1OTMyNzksMTc4LjI5NTY1NiBDMzIuNTI0NTU5LDE3OC4xOTg0NCAzMi4xODc4NjExLDE3OC4xMDgwMTUgMzEuODQ5NDU3MywxNzguMDI0NDM4IEwzMS44NDk0NTczLDEwOS42MDc2NTQgQzM4LjM3NDIxNjgsMTA3Ljk4NTc4NSA0NC4yNTMzOTkyLDEwMy44MjQxNTEgNDcuODYyMzA1NSw5Ny41NDYxNTc5IEM1MS40NjY1OTksOTEuMjc2MTg5IDUyLjEzNDc0OTcsODQuMTIzNDU4MyA1MC4yODg1NDI2LDc3LjY3NzAxNTcgTDEwOS41NTg3NDcsNDMuNDU2MzQzNCBDMTA5Ljc5NzkxMyw0My43MDM4MDE5IDExMC4wNDIwMjcsNDMuOTQ2NDQ2OSAxMTAuMjkwOTMsNDQuMTg0MTIwMyBaIE0xMzUuMTYyNzQ5LDUwLjI1OTc2MyBMMjEyLjU3NjgxNywxODQuMzQwOTI4IEMyMTAuODQ0MjQxLDE4NS45OTI3OSAyMDkuMzE3Mzc2LDE4Ny45MTc1NSAyMDguMDY0MjQxLDE5MC4wOTc0ODIgQzIwNi44MTg0ODQsMTkyLjI2NDU4MSAyMDUuOTIzNDgxLDE5NC41Mzk0MjkgMjA1LjM2MTgxOCwxOTYuODU1MTk4IEw1MC42Mzk1NTY0LDE5Ni44NTUxOTggQzUwLjA3Nzk3OTgsMTk0LjU0MDg0NiA0OS4xODI1MzMzLDE5Mi4yNjYzNSA0Ny45MzU3NTg5LDE5MC4wOTc0ODIgQzQ2LjY3NzY3MTMsMTg3LjkzMTQ5NyA0NS4xNTM5MjQ4LDE4Ni4wMTc0MjggNDMuNDMwMDI5NywxODQuMzcyNjY3IEwxMjAuODU4ODIxLDUwLjI2NTk5OTMgQzEyMy4xMjQ5NDEsNTAuOTIwMDgyMiAxMjUuNTIwOTE1LDUxLjI3MDQ5NTcgMTI4LDUxLjI3MDQ5NTcgQzEzMC40ODY5NTIsNTEuMjcwNDk1NyAxMzIuODkwMjY1LDUwLjkxNzg1NDcgMTM1LjE2Mjc0OSw1MC4yNTk3NjMgWiBNMTQ2Ljk1ODA4NCwyNDQuNzM3OTk1IEwyMDUuODYwMTA3LDIxMC43Mjk4OTkgQzIwNS42ODMzOTgsMjEwLjE3NDkyNCAyMDUuNTI1NDgzLDIwOS42MTQwOTYgMjA1LjM4NjY0LDIwOS4wNDg0NjggTDUwLjYwNjc2NDMsMjA5LjA0ODQ2OCBDNTAuNTI0Njg4OCwyMDkuMzgwNzkyIDUwLjQzNjAwODQsMjA5LjcxMTQ3MiA1MC4zNDA3NzkyLDIxMC4wNDAyOTUgTDEwOS41MzE3ODIsMjQ0LjIxNTIzOSBDMTE0LjE5MjI5OCwyMzkuMzc4NTQ1IDEyMC43Mzk3MzksMjM2LjM3MzE0NSAxMjgsMjM2LjM3MzE0NSBDMTM1LjUxODM3OSwyMzYuMzczMTQ1IDE0Mi4yNzIzNTIsMjM5LjU5NjA0MSAxNDYuOTU4MDg0LDI0NC43Mzc5OTUgWiIgZmlsbD0iI0U1MzVBQiIvPiYjeGE7ICAgIDwvZz4mI3hhOzwvc3ZnPg==;" parent="18" vertex="1">
                    <mxGeometry x="141.85" y="38.629999999999995" width="44.44" height="50" as="geometry"/>
                </mxCell>
                <mxCell id="188" value="" style="shape=image;verticalLabelPosition=bottom;labelBackgroundColor=#ffffff;verticalAlign=top;aspect=fixed;imageAspect=0;image=data:image/svg+xml,PHN2ZyB4bWxucz0iaHR0cDovL3d3dy53My5vcmcvMjAwMC9zdmciIHhtbG5zOnhsaW5rPSJodHRwOi8vd3d3LnczLm9yZy8xOTk5L3hsaW5rIiB3aWR0aD0iMjU2cHgiIGhlaWdodD0iMjU2cHgiIHZpZXdCb3g9IjAgMCAyNTYgMjU2IiB2ZXJzaW9uPSIxLjEiIHByZXNlcnZlQXNwZWN0UmF0aW89InhNaWRZTWlkIj4mI3hhOyAgICA8Zz4mI3hhOyAgICAgICAgPHBhdGggZD0iTTE2MC4yMjcsMTc4LjUxODYgTDE4Ny44NTcsMTc4LjUxODYgTDE0My43NSw2NC4wNDg2IEwxMTMuMjAxLDY0LjA0ODYgTDY5LjA5NCwxNzguNTE4NiBMOTYuNzI2LDE3OC41MTg2IEwxMDMuOTM0LDE1OS4xMjg2IEwxNDUuNjA5LDE1OS4xMjg2IEwxMzguMDY1LDEzNy42NzI2IEwxMTAuNjI1LDEzNy42NzI2IEwxMjguNDc1LDg4LjQxODYgTDE2MC4yMjcsMTc4LjUxODYgWiBNMjUxLjMzOSw5My43NjggQzI1MC4zNTcsOTAuMjMyIDI0Ni43MDUsODguMTU1IDI0My4xNTQsODkuMTQxIEMyMzkuNjE3LDkwLjEyMyAyMzcuNTQ0LDkzLjc4NyAyMzguNTI2LDk3LjMyNCBDMjQxLjI5OSwxMDcuMzA5IDI0Mi43MDQsMTE3LjYzIDI0Mi43MDQsMTI4IEMyNDIuNzA0LDE5MS4yNDggMTkxLjI0OCwyNDIuNzAyIDEyOCwyNDIuNzAyIEM2NC43NTIsMjQyLjcwMiAxMy4yOTcsMTkxLjI0OCAxMy4yOTcsMTI4IEMxMy4yOTcsNjQuNzUxIDY0Ljc1MiwxMy4yOTYgMTI4LDEzLjI5NiBDMTU0Ljc5MywxMy4yOTYgMTgwLjcxOCwyMi44MTQgMjAxLjE3OSwzOS43NTIgQzIwMC4zODMsNDEuNjUyIDE5OS45NDEsNDMuNzM3IDE5OS45NDEsNDUuOTI1IEMxOTkuOTQxLDU0Ljc2IDIwNy4xMDMsNjEuOTIyIDIxNS45MzgsNjEuOTIyIEMyMjQuNzczLDYxLjkyMiAyMzEuOTM1LDU0Ljc2IDIzMS45MzUsNDUuOTI1IEMyMzEuOTM1LDM3LjA5IDIyNC43NzMsMjkuOTI4IDIxNS45MzgsMjkuOTI4IEMyMTQuMjM3LDI5LjkyOCAyMTIuNiwzMC4xOTkgMjExLjA2MiwzMC42OTEgQzE4OC4wMjIsMTEuMDU2IDE1OC41MTMsMCAxMjgsMCBDNTcuNDIxLDAgMCw1Ny40MiAwLDEyOCBDMCwxOTguNTc5IDU3LjQyMSwyNTUuOTk5IDEyOCwyNTUuOTk5IEMxOTguNTc5LDI1NS45OTkgMjU2LDE5OC41NzkgMjU2LDEyOCBDMjU2LDExNi40MjggMjU0LjQzMywxMDQuOTEgMjUxLjMzOSw5My43NjggWiIgZmlsbD0iIzExMkI0OSIvPiYjeGE7ICAgIDwvZz4mI3hhOzwvc3ZnPg==;" parent="18" vertex="1">
                    <mxGeometry x="186.29" y="38.629999999999995" width="45" height="45" as="geometry"/>
                </mxCell>
                <mxCell id="61" value="" style="dashed=0;outlineConnect=0;html=1;align=center;labelPosition=center;verticalLabelPosition=bottom;verticalAlign=top;shape=mxgraph.weblogos.github" parent="1" vertex="1">
                    <mxGeometry x="398.75" y="1053.12" width="75" height="75" as="geometry"/>
                </mxCell>
                <mxCell id="107" value="" style="endArrow=classic;html=1;dashed=1;strokeColor=#999999;fontSize=10;fontColor=#F0F0F0;entryX=0.299;entryY=0.017;entryDx=0;entryDy=0;entryPerimeter=0;" parent="1" edge="1">
                    <mxGeometry width="50" height="50" relative="1" as="geometry">
                        <mxPoint x="-40" y="840" as="sourcePoint"/>
                        <mxPoint x="-39.352499999999964" y="1045.8712500000004" as="targetPoint"/>
                    </mxGeometry>
                </mxCell>
                <mxCell id="154" value="レコード作成&lt;br&gt;成功時" style="text;html=1;fillColor=none;align=center;verticalAlign=middle;whiteSpace=wrap;rounded=0;fontSize=10;fontColor=#000000;strokeColor=#000000;" parent="1" vertex="1">
                    <mxGeometry x="370" y="740" width="70" height="30" as="geometry"/>
                </mxCell>
                <mxCell id="155" value="" style="endArrow=none;html=1;fontSize=12;fontColor=#000000;entryX=0.147;entryY=1.017;entryDx=0;entryDy=0;strokeColor=#000000;entryPerimeter=0;" parent="1" target="154" edge="1">
                    <mxGeometry width="50" height="50" relative="1" as="geometry">
                        <mxPoint x="330" y="810" as="sourcePoint"/>
                        <mxPoint x="360.59500000000014" y="789.96" as="targetPoint"/>
                        <Array as="points">
                            <mxPoint x="380" y="810"/>
                            <mxPoint x="380" y="770"/>
                        </Array>
                    </mxGeometry>
                </mxCell>
                <mxCell id="73" value="Transform &lt;br style=&quot;font-size: 10px;&quot;&gt;(.md to .html on Record)" style="text;html=1;fillColor=none;align=center;verticalAlign=middle;whiteSpace=wrap;rounded=0;fontSize=10;fontColor=#000000;strokeColor=#000000;" parent="1" vertex="1">
                    <mxGeometry x="121.5" y="670" width="110" height="30" as="geometry"/>
                </mxCell>
                <mxCell id="157" value="" style="rounded=1;whiteSpace=wrap;html=1;strokeColor=#000000;fillColor=#FFFFFF;" parent="1" vertex="1">
                    <mxGeometry x="660" y="730" width="200" height="130" as="geometry"/>
                </mxCell>
                <mxCell id="158" value="Development(local)&lt;br&gt;Windows10 with&amp;nbsp;WSL2(Ubuntu)" style="text;html=1;strokeColor=none;fillColor=none;align=center;verticalAlign=middle;whiteSpace=wrap;rounded=0;fontSize=12;fontColor=#000000;" parent="1" vertex="1">
                    <mxGeometry x="650" y="830.0000000000001" width="220" height="20" as="geometry"/>
                </mxCell>
                <mxCell id="159" value="" style="dashed=0;outlineConnect=0;html=1;align=center;labelPosition=center;verticalLabelPosition=bottom;verticalAlign=top;shape=mxgraph.weblogos.github" parent="1" vertex="1">
                    <mxGeometry x="582.5" y="633.9999999999999" width="75" height="75" as="geometry"/>
                </mxCell>
                <mxCell id="160" value="" style="outlineConnect=0;fontColor=#232F3E;gradientColor=#4D72F3;gradientDirection=north;fillColor=#3334B9;strokeColor=#ffffff;dashed=0;verticalLabelPosition=bottom;verticalAlign=top;align=center;html=1;fontSize=12;fontStyle=0;aspect=fixed;shape=mxgraph.aws4.resourceIcon;resIcon=mxgraph.aws4.cloud_development_kit;" parent="1" vertex="1">
                    <mxGeometry x="731" y="742" width="58" height="58" as="geometry"/>
                </mxCell>
                <mxCell id="161" value="AWS CDK(IaC)" style="text;html=1;strokeColor=none;fillColor=none;align=center;verticalAlign=middle;whiteSpace=wrap;rounded=0;fontSize=12;fontColor=#000000;" parent="1" vertex="1">
                    <mxGeometry x="650" y="800.0000000000001" width="220" height="20" as="geometry"/>
                </mxCell>
                <mxCell id="162" value="" style="endArrow=classic;html=1;strokeColor=#000000;fontSize=16;" parent="1" source="160" target="163" edge="1">
                    <mxGeometry width="50" height="50" relative="1" as="geometry">
                        <mxPoint x="601" y="795" as="sourcePoint"/>
                        <mxPoint x="541" y="795" as="targetPoint"/>
                    </mxGeometry>
                </mxCell>
                <mxCell id="163" value="" style="outlineConnect=0;fontColor=#232F3E;gradientColor=#F34482;gradientDirection=north;fillColor=#BC1356;strokeColor=#ffffff;dashed=0;verticalLabelPosition=bottom;verticalAlign=top;align=center;html=1;fontSize=12;fontStyle=0;aspect=fixed;shape=mxgraph.aws4.resourceIcon;resIcon=mxgraph.aws4.cloudformation;" parent="1" vertex="1">
                    <mxGeometry x="500" y="747" width="50" height="50" as="geometry"/>
                </mxCell>
                <mxCell id="164" value="CloudFormation&lt;br style=&quot;font-size: 9px;&quot;&gt;Stack" style="text;html=1;strokeColor=none;fillColor=none;align=center;verticalAlign=middle;whiteSpace=wrap;rounded=0;fontSize=9;fontColor=#000000;" parent="1" vertex="1">
                    <mxGeometry x="415" y="797.0000000000001" width="220" height="20" as="geometry"/>
                </mxCell>
                <mxCell id="165" value="" style="endArrow=classic;html=1;strokeColor=#000000;fontSize=16;entryX=0.5;entryY=1;entryDx=0;entryDy=0;" parent="1" target="166" edge="1">
                    <mxGeometry width="50" height="50" relative="1" as="geometry">
                        <mxPoint x="661" y="760" as="sourcePoint"/>
                        <mxPoint x="620" y="740" as="targetPoint"/>
                        <Array as="points">
                            <mxPoint x="620" y="760"/>
                        </Array>
                    </mxGeometry>
                </mxCell>
                <mxCell id="166" value="AWS リソース管理&lt;br style=&quot;font-size: 10px;&quot;&gt;用リポジトリ" style="text;html=1;strokeColor=none;fillColor=none;align=center;verticalAlign=middle;whiteSpace=wrap;rounded=0;fontSize=10;fontColor=#000000;" parent="1" vertex="1">
                    <mxGeometry x="510" y="710.0000000000001" width="220" height="20" as="geometry"/>
                </mxCell>
                <mxCell id="167" value="CDK Deploy" style="text;html=1;fillColor=none;align=center;verticalAlign=middle;whiteSpace=wrap;rounded=0;fontSize=10;fontColor=#000000;strokeColor=#000000;" parent="1" vertex="1">
                    <mxGeometry x="571.5" y="790" width="69" height="20" as="geometry"/>
                </mxCell>
                <mxCell id="168" value="" style="endArrow=none;html=1;fontSize=12;fontColor=#000000;entryX=0.5;entryY=1;entryDx=0;entryDy=0;strokeColor=#000000;exitX=0.742;exitY=0.827;exitDx=0;exitDy=0;exitPerimeter=0;" parent="1" edge="1">
                    <mxGeometry width="50" height="50" relative="1" as="geometry">
                        <mxPoint x="610.3299999999998" y="790.04" as="sourcePoint"/>
                        <mxPoint x="610.4250000000001" y="770" as="targetPoint"/>
                    </mxGeometry>
                </mxCell>
                <mxCell id="104" value="" style="endArrow=classic;html=1;fontSize=10;fontColor=#F0F0F0;entryX=0.175;entryY=0.5;entryDx=0;entryDy=0;entryPerimeter=0;dashed=1;strokeColor=#999999;" parent="1" source="4hbtPa9VFHNtGfl8PcOY-166" target="28" edge="1">
                    <mxGeometry width="50" height="50" relative="1" as="geometry">
                        <mxPoint x="-50" y="790" as="sourcePoint"/>
                        <mxPoint x="-400" y="960" as="targetPoint"/>
                        <Array as="points">
                            <mxPoint x="-40" y="849"/>
                            <mxPoint x="-40" y="740"/>
                            <mxPoint x="-190" y="740"/>
                            <mxPoint x="-340" y="740"/>
                            <mxPoint x="-340" y="825"/>
                        </Array>
                    </mxGeometry>
                </mxCell>
                <mxCell id="170" value="" style="endArrow=classic;html=1;strokeColor=#000000;" parent="1" source="4hbtPa9VFHNtGfl8PcOY-169" target="169" edge="1">
                    <mxGeometry width="50" height="50" relative="1" as="geometry">
                        <mxPoint x="480" y="600" as="sourcePoint"/>
                        <mxPoint x="530" y="550" as="targetPoint"/>
                        <Array as="points">
                            <mxPoint x="467" y="549"/>
                        </Array>
                    </mxGeometry>
                </mxCell>
                <mxCell id="171" value="Google Analytics" style="text;html=1;strokeColor=none;fillColor=none;align=center;verticalAlign=middle;whiteSpace=wrap;rounded=0;fontSize=10;fontColor=#000000;" parent="1" vertex="1">
                    <mxGeometry x="547" y="578.5" width="129.5" height="20" as="geometry"/>
                </mxCell>
                <mxCell id="172" value="" style="outlineConnect=0;fontColor=#232F3E;gradientColor=#F78E04;gradientDirection=north;fillColor=#D05C17;strokeColor=#ffffff;dashed=0;verticalLabelPosition=bottom;verticalAlign=top;align=center;html=1;fontSize=12;fontStyle=0;aspect=fixed;shape=mxgraph.aws4.resourceIcon;resIcon=mxgraph.aws4.lambda;" parent="1" vertex="1">
                    <mxGeometry x="359.25" y="558" width="32" height="32" as="geometry"/>
                </mxCell>
                <mxCell id="175" value="" style="endArrow=classic;html=1;strokeColor=#000000;fontSize=10;fontColor=#F0F0F0;" parent="1" source="4hbtPa9VFHNtGfl8PcOY-171" target="172" edge="1">
                    <mxGeometry width="50" height="50" relative="1" as="geometry">
                        <mxPoint x="311.3" y="525.25" as="sourcePoint"/>
                        <mxPoint x="310.50000000000006" y="573.25" as="targetPoint"/>
                        <Array as="points">
                            <mxPoint x="320" y="595"/>
                            <mxPoint x="320" y="574"/>
                        </Array>
                    </mxGeometry>
                </mxCell>
                <mxCell id="176" value="" style="endArrow=classic;html=1;strokeColor=#000000;fontSize=10;fontColor=#F0F0F0;entryX=1;entryY=0;entryDx=0;entryDy=0;" parent="1" source="172" target="4hbtPa9VFHNtGfl8PcOY-225" edge="1">
                    <mxGeometry width="50" height="50" relative="1" as="geometry">
                        <mxPoint x="391" y="552" as="sourcePoint"/>
                        <mxPoint x="369.25" y="566.3535911602211" as="targetPoint"/>
                        <Array as="points">
                            <mxPoint x="420" y="574"/>
                            <mxPoint x="420" y="590"/>
                        </Array>
                    </mxGeometry>
                </mxCell>
                <mxCell id="178" value="" style="endArrow=classic;html=1;strokeColor=#000000;fontSize=10;fontColor=#F0F0F0;" parent="1" edge="1">
                    <mxGeometry width="50" height="50" relative="1" as="geometry">
                        <mxPoint x="440" y="615" as="sourcePoint"/>
                        <mxPoint x="304" y="614.5471698113207" as="targetPoint"/>
                        <Array as="points">
                            <mxPoint x="420" y="615"/>
                            <mxPoint x="340" y="615"/>
                        </Array>
                    </mxGeometry>
                </mxCell>
                <mxCell id="180" value="" style="endArrow=none;html=1;fontSize=12;fontColor=#000000;entryX=0.5;entryY=1;entryDx=0;entryDy=0;strokeColor=#000000;" parent="1" target="4hbtPa9VFHNtGfl8PcOY-242" edge="1">
                    <mxGeometry width="50" height="50" relative="1" as="geometry">
                        <mxPoint x="320" y="580" as="sourcePoint"/>
                        <mxPoint x="304.2550000000001" y="556" as="targetPoint"/>
                        <Array as="points">
                            <mxPoint x="304" y="556"/>
                        </Array>
                    </mxGeometry>
                </mxCell>
                <mxCell id="49" value="" style="endArrow=classic;html=1;strokeColor=#000000;" parent="1" edge="1">
                    <mxGeometry width="50" height="50" relative="1" as="geometry">
                        <mxPoint x="-211" y="1041" as="sourcePoint"/>
                        <mxPoint x="-211" y="980" as="targetPoint"/>
                    </mxGeometry>
                </mxCell>
                <mxCell id="181" value="" style="shape=image;verticalLabelPosition=bottom;labelBackgroundColor=#ffffff;verticalAlign=top;aspect=fixed;imageAspect=0;image=data:image/svg+xml,PHN2ZyB4bWxucz0iaHR0cDovL3d3dy53My5vcmcvMjAwMC9zdmciIHhtbG5zOnhsaW5rPSJodHRwOi8vd3d3LnczLm9yZy8xOTk5L3hsaW5rIiB3aWR0aD0iNTEycHgiIGhlaWdodD0iMTMwcHgiIHZpZXdCb3g9IjAgMCA1MTIgMTMwIiB2ZXJzaW9uPSIxLjEiIHByZXNlcnZlQXNwZWN0UmF0aW89InhNaWRZTWlkIj4mI3hhOyAgICA8Zz4mI3hhOwkJCQk8cGF0aCBkPSJNMTYzLjU5Mjc1NywxMDEuODg0OTA5IEwxNjkuOTc5ODc5LDg3LjA1MDMwMTggQzE3Ni44ODIwOTMsOTIuMjAxMjA3MiAxODYuMDUwNzA0LDk0Ljg3OTY3ODEgMTk1LjExNjI5OCw5NC44Nzk2NzgxIEMyMDEuODEyNDc1LDk0Ljg3OTY3ODEgMjA2LjAzNjIxNyw5Mi4zMDQyMjU0IDIwNi4wMzYyMTcsODguMzg5NTM3MiBDMjA1LjkzMzE5OSw3Ny40Njk2MTc3IDE2NS45NjIxNzMsODYuMDIwMTIwNyAxNjUuNjUzMTE5LDU4LjYxNzMwMzggQzE2NS41NTAxMDEsNDQuNzA5ODU5MiAxNzcuOTEyMjc0LDMzLjk5NTk3NTkgMTk1LjQyNTM1MiwzMy45OTU5NzU5IEMyMDUuODMwMTgxLDMzLjk5NTk3NTkgMjE2LjIzNTAxLDM2LjU3MTQyODYgMjIzLjY1MjMxNCw0Mi40NDM0NjA4IEwyMTcuNjc3MjY0LDU3LjU4NzEyMjcgQzIxMC44NzgwNjgsNTMuMjYwMzYyMiAyMDIuNDMwNTg0LDUwLjE2OTgxODkgMTk0LjM5NTE3MSw1MC4xNjk4MTg5IEMxODguOTM1MjExLDUwLjE2OTgxODkgMTg1LjMyOTU3Nyw1Mi43NDUyNzE2IDE4NS4zMjk1NzcsNTYuMDQxODUxMSBDMTg1LjQzMjU5Niw2Ni43NTU3MzQ0IDIyNS43MTI2NzYsNjAuODgzNzAyMiAyMjYuMTI0NzQ4LDg3LjA1MDMwMTggQzIyNi4xMjQ3NDgsMTAxLjI2NjgwMSAyMTQuMDcxNjMsMTExLjI1OTU1NyAxOTYuNzY0NTg4LDExMS4yNTk1NTcgQzE4NC4wOTMzNiwxMTEuMjU5NTU3IDE3Mi40NTIzMTQsMTA4LjI3MjAzMiAxNjMuNTkyNzU3LDEwMS44ODQ5MDkgWiBNNDA4LjY3MjgzNyw4MS42OTMzNjAyIEw0MjYuMjg4OTM0LDkxLjQ4MDA4MDUgQzQxOS42OTU3NzUsMTAzLjMyNzE2MyA0MDcuMTI3NTY1LDExMS4yNTk1NTcgMzkyLjYwMjAxMiwxMTEuMjU5NTU3IEMzNzEuMjc3MjY0LDExMS4yNTk1NTcgMzUzLjk3MDIyMSw5My45NTI1MTUxIDM1My45NzAyMjEsNzIuNjI3NzY2NiBDMzUzLjk3MDIyMSw1MS4zMDMwMTgxIDM3MS4yNzcyNjQsMzMuOTk1OTc1OSAzOTIuNjAyMDEyLDMzLjk5NTk3NTkgQzQwNy4wMjQ1NDcsMzMuOTk1OTc1OSA0MTkuNjk1Nzc1LDQyLjAzMTM4ODMgNDI2LjI4ODkzNCw1My43NzU0NTI3IEw0MDguNjcyODM3LDYzLjU2MjE3MyBDNDA1LjQ3OTI3Niw1Ny45OTkxOTUyIDM5OS41MDQyMjUsNTQuMTg3NTI1MiAzOTIuNjAyMDEyLDU0LjE4NzUyNTIgQzM4Mi40MDMyMTksNTQuMTg3NTI1MiAzNzQuMTYxNzcxLDYyLjQyODk3MzggMzc0LjE2MTc3MSw3Mi42Mjc3NjY2IEMzNzQuMTYxNzcxLDgyLjgyNjU1OTQgMzgyLjQwMzIxOSw5MS4wNjgwMDggMzkyLjYwMjAxMiw5MS4wNjgwMDggQzM5OS41MDQyMjUsOTEuMDY4MDA4IDQwNS40NzkyNzYsODcuMjU2MzM4IDQwOC42NzI4MzcsODEuNjkzMzYwMiBaIE0yMzQuOTg0MzA2LDEuOTU3MzQ0MDYgTDI1Ny4wMzAxODEsMS45NTczNDQwNiBMMjU3LjAzMDE4MSwxMDkuODE3MzA0IEwyMzQuOTg0MzA2LDEwOS44MTczMDQgTDIzNC45ODQzMDYsMS45NTczNDQwNiBaIE00MzQuOTQyNDU1LDEuOTU3MzQ0MDYgTDQ1Ni45ODgzMywxLjk1NzM0NDA2IEw0NTYuOTg4MzMsNjUuMzEzNDgwOSBMNDgxLjkxODcxMiwzNS41NDEyNDc1IEw1MDguOTA5NDU3LDM1LjU0MTI0NzUgTDQ3OC4xMDcwNDIsNzEuMzkxNTQ5MyBMNTExLjM4MTg5MSwxMDkuODE3MzA0IEw0ODMuMTU0OTMsMTA5LjgxNzMwNCBMNDU2Ljk4ODMzLDc3LjQ2OTYxNzcgTDQ1Ni45ODgzMywxMDkuODE3MzA0IEw0MzQuOTQyNDU1LDEwOS44MTczMDQgTDQzNC45NDI0NTUsMS45NTczNDQwNiBaIE0zMjIuNTQ5Njk4LDgxLjg5OTM5NjQgTDMyMi41NDk2OTgsNjMuNjY1MTkxMSBDMzE5LjM1NjEzNyw1OC4zMDgyNDk1IDMxMi43NjI5NzgsNTQuMTg3NTI1MiAzMDUuMzQ1Njc0LDU0LjE4NzUyNTIgQzI5NS4xNDY4ODEsNTQuMTg3NTI1MiAyODYuOTA1NDMzLDYyLjQyODk3MzggMjg2LjkwNTQzMyw3Mi42Mjc3NjY2IEMyODYuOTA1NDMzLDgyLjgyNjU1OTQgMjk1LjE0Njg4MSw5MS4wNjgwMDggMzA1LjM0NTY3NCw5MS4wNjgwMDggQzMxMi43NjI5NzgsOTEuMDY4MDA4IDMxOS4zNTYxMzcsODcuMTUzMzE5OSAzMjIuNTQ5Njk4LDgxLjg5OTM5NjQgWiBNMzIyLjU0OTY5OCwzNS41NDEyNDc1IEwzNDQuNTk1NTczLDM1LjU0MTI0NzUgTDM0NC41OTU1NzMsMTA5LjcxNDI4NiBMMzIyLjU0OTY5OCwxMDkuNzE0Mjg2IEwzMjIuNTQ5Njk4LDEwMC45NTc3NDYgQzMxOC45NDQwNjQsMTA3LjAzNTgxNSAzMDkuOTgxNDg5LDExMS4yNTk1NTcgMzAwLjYwNjg0MSwxMTEuMjU5NTU3IEMyODEuMjM5NDM3LDExMS4yNTk1NTcgMjY1Ljk5Mjc1Nyw5My45NTI1MTUxIDI2NS45OTI3NTcsNzIuNTI0NzQ4NSBDMjY1Ljk5Mjc1Nyw1MS4wOTY5ODE5IDI4MS4yMzk0MzcsMzMuOTk1OTc1OSAzMDAuNjA2ODQxLDMzLjk5NTk3NTkgQzMwOS45ODE0ODksMzMuOTk1OTc1OSAzMTguOTQ0MDY0LDM4LjIxOTcxODMgMzIyLjU0OTY5OCw0NC4yOTc3ODY3IEwzMjIuNTQ5Njk4LDM1LjU0MTI0NzUgWiIgZmlsbD0iIzAwMDAwMCIvPiYjeGE7CQkJCTxwYXRoIGQ9Ik0yNy4yOTk3OTg4LDgxLjc5NjM3ODMgQzI3LjI5OTc5ODgsODkuMzE2NzAwMiAyMS4yMjE3MzA0LDk1LjM5NDc2ODYgMTMuNzAxNDA4NSw5NS4zOTQ3Njg2IEM2LjE4MTA4NjUyLDk1LjM5NDc2ODYgMC4xMDMwMTgxMDksODkuMzE2NzAwMiAwLjEwMzAxODEwOSw4MS43OTYzNzgzIEMwLjEwMzAxODEwOSw3NC4yNzYwNTYzIDYuMTgxMDg2NTIsNjguMTk3OTg3OSAxMy43MDE0MDg1LDY4LjE5Nzk4NzkgTDI3LjI5OTc5ODgsNjguMTk3OTg3OSBMMjcuMjk5Nzk4OCw4MS43OTYzNzgzIFogTTM0LjA5ODk5NCw4MS43OTYzNzgzIEMzNC4wOTg5OTQsNzQuMjc2MDU2MyA0MC4xNzcwNjI0LDY4LjE5Nzk4NzkgNDcuNjk3Mzg0Myw2OC4xOTc5ODc5IEM1NS4yMTc3MDYyLDY4LjE5Nzk4NzkgNjEuMjk1Nzc0Niw3NC4yNzYwNTYzIDYxLjI5NTc3NDYsODEuNzk2Mzc4MyBMNjEuMjk1Nzc0NiwxMTUuNzkyMzU0IEM2MS4yOTU3NzQ2LDEyMy4zMTI2NzYgNTUuMjE3NzA2MiwxMjkuMzkwNzQ0IDQ3LjY5NzM4NDMsMTI5LjM5MDc0NCBDNDAuMTc3MDYyNCwxMjkuMzkwNzQ0IDM0LjA5ODk5NCwxMjMuMzEyNjc2IDM0LjA5ODk5NCwxMTUuNzkyMzU0IEwzNC4wOTg5OTQsODEuNzk2Mzc4MyBaIiBmaWxsPSIjRTAxRTVBIi8+JiN4YTsJCQkJPHBhdGggZD0iTTQ3LjY5NzM4NDMsMjcuMTk2NzgwNyBDNDAuMTc3MDYyNCwyNy4xOTY3ODA3IDM0LjA5ODk5NCwyMS4xMTg3MTIzIDM0LjA5ODk5NCwxMy41OTgzOTAzIEMzNC4wOTg5OTQsNi4wNzgwNjg0MSA0MC4xNzcwNjI0LDAgNDcuNjk3Mzg0MywwIEM1NS4yMTc3MDYyLDAgNjEuMjk1Nzc0Niw2LjA3ODA2ODQxIDYxLjI5NTc3NDYsMTMuNTk4MzkwMyBMNjEuMjk1Nzc0NiwyNy4xOTY3ODA3IEw0Ny42OTczODQzLDI3LjE5Njc4MDcgWiBNNDcuNjk3Mzg0MywzNC4wOTg5OTQgQzU1LjIxNzcwNjIsMzQuMDk4OTk0IDYxLjI5NTc3NDYsNDAuMTc3MDYyNCA2MS4yOTU3NzQ2LDQ3LjY5NzM4NDMgQzYxLjI5NTc3NDYsNTUuMjE3NzA2MiA1NS4yMTc3MDYyLDYxLjI5NTc3NDYgNDcuNjk3Mzg0Myw2MS4yOTU3NzQ2IEwxMy41OTgzOTAzLDYxLjI5NTc3NDYgQzYuMDc4MDY4NDEsNjEuMjk1Nzc0NiAwLDU1LjIxNzcwNjIgMCw0Ny42OTczODQzIEMwLDQwLjE3NzA2MjQgNi4wNzgwNjg0MSwzNC4wOTg5OTQgMTMuNTk4MzkwMywzNC4wOTg5OTQgTDQ3LjY5NzM4NDMsMzQuMDk4OTk0IFoiIGZpbGw9IiMzNkM1RjAiLz4mI3hhOwkJCQk8cGF0aCBkPSJNMTAyLjE5Mzk2NCw0Ny42OTczODQzIEMxMDIuMTkzOTY0LDQwLjE3NzA2MjQgMTA4LjI3MjAzMiwzNC4wOTg5OTQgMTE1Ljc5MjM1NCwzNC4wOTg5OTQgQzEyMy4zMTI2NzYsMzQuMDk4OTk0IDEyOS4zOTA3NDQsNDAuMTc3MDYyNCAxMjkuMzkwNzQ0LDQ3LjY5NzM4NDMgQzEyOS4zOTA3NDQsNTUuMjE3NzA2MiAxMjMuMzEyNjc2LDYxLjI5NTc3NDYgMTE1Ljc5MjM1NCw2MS4yOTU3NzQ2IEwxMDIuMTkzOTY0LDYxLjI5NTc3NDYgTDEwMi4xOTM5NjQsNDcuNjk3Mzg0MyBaIE05NS4zOTQ3Njg2LDQ3LjY5NzM4NDMgQzk1LjM5NDc2ODYsNTUuMjE3NzA2MiA4OS4zMTY3MDAyLDYxLjI5NTc3NDYgODEuNzk2Mzc4Myw2MS4yOTU3NzQ2IEM3NC4yNzYwNTYzLDYxLjI5NTc3NDYgNjguMTk3OTg3OSw1NS4yMTc3MDYyIDY4LjE5Nzk4NzksNDcuNjk3Mzg0MyBMNjguMTk3OTg3OSwxMy41OTgzOTAzIEM2OC4xOTc5ODc5LDYuMDc4MDY4NDEgNzQuMjc2MDU2MywtNy4xMDU0MjczNmUtMTUgODEuNzk2Mzc4MywtNy4xMDU0MjczNmUtMTUgQzg5LjMxNjcwMDIsLTcuMTA1NDI3MzZlLTE1IDk1LjM5NDc2ODYsNi4wNzgwNjg0MSA5NS4zOTQ3Njg2LDEzLjU5ODM5MDMgTDk1LjM5NDc2ODYsNDcuNjk3Mzg0MyBaIiBmaWxsPSIjMkVCNjdEIi8+JiN4YTsJCQkJPHBhdGggZD0iTTgxLjc5NjM3ODMsMTAyLjE5Mzk2NCBDODkuMzE2NzAwMiwxMDIuMTkzOTY0IDk1LjM5NDc2ODYsMTA4LjI3MjAzMiA5NS4zOTQ3Njg2LDExNS43OTIzNTQgQzk1LjM5NDc2ODYsMTIzLjMxMjY3NiA4OS4zMTY3MDAyLDEyOS4zOTA3NDQgODEuNzk2Mzc4MywxMjkuMzkwNzQ0IEM3NC4yNzYwNTYzLDEyOS4zOTA3NDQgNjguMTk3OTg3OSwxMjMuMzEyNjc2IDY4LjE5Nzk4NzksMTE1Ljc5MjM1NCBMNjguMTk3OTg3OSwxMDIuMTkzOTY0IEw4MS43OTYzNzgzLDEwMi4xOTM5NjQgWiBNODEuNzk2Mzc4Myw5NS4zOTQ3Njg2IEM3NC4yNzYwNTYzLDk1LjM5NDc2ODYgNjguMTk3OTg3OSw4OS4zMTY3MDAyIDY4LjE5Nzk4NzksODEuNzk2Mzc4MyBDNjguMTk3OTg3OSw3NC4yNzYwNTYzIDc0LjI3NjA1NjMsNjguMTk3OTg3OSA4MS43OTYzNzgzLDY4LjE5Nzk4NzkgTDExNS44OTUzNzIsNjguMTk3OTg3OSBDMTIzLjQxNTY5NCw2OC4xOTc5ODc5IDEyOS40OTM3NjMsNzQuMjc2MDU2MyAxMjkuNDkzNzYzLDgxLjc5NjM3ODMgQzEyOS40OTM3NjMsODkuMzE2NzAwMiAxMjMuNDE1Njk0LDk1LjM5NDc2ODYgMTE1Ljg5NTM3Miw5NS4zOTQ3Njg2IEw4MS43OTYzNzgzLDk1LjM5NDc2ODYgWiIgZmlsbD0iI0VDQjIyRSIvPiYjeGE7CQk8L2c+JiN4YTs8L3N2Zz4=;" parent="1" vertex="1">
                    <mxGeometry x="280.3" y="954" width="102.4" height="26" as="geometry"/>
                </mxCell>
                <mxCell id="189" value="" style="shape=image;verticalLabelPosition=bottom;labelBackgroundColor=#ffffff;verticalAlign=top;aspect=fixed;imageAspect=0;image=data:image/svg+xml,PHN2ZyB4bWxucz0iaHR0cDovL3d3dy53My5vcmcvMjAwMC9zdmciIHhtbG5zOnhsaW5rPSJodHRwOi8vd3d3LnczLm9yZy8xOTk5L3hsaW5rIiB3aWR0aD0iNTEycHgiIGhlaWdodD0iMzA5cHgiIHZpZXdCb3g9IjAgMCA1MTIgMzA5IiB2ZXJzaW9uPSIxLjEiIHByZXNlcnZlQXNwZWN0UmF0aW89InhNaWRZTWlkIj4mI3hhOyAgICA8Zz4mI3hhOyAgICAgICAgPHBhdGggZD0iTTEyMC44MTA0Myw4MC41NjEzMTAyIEwyMTcuMzc4MzI1LDgwLjU2MTMxMDIgTDIxNy4zNzgzMjUsODguMjM2NjU4OSBMMTI5LjY2MjQ4Nyw4OC4yMzY2NTg5IEwxMjkuNjYyNDg3LDE0Ni4wMDM3NTggTDIxMi4xNDc1NjQsMTQ2LjAwMzc1OCBMMjEyLjE0NzU2NCwxNTMuNjc5MTA2IEwxMjkuNjYyNDg3LDE1My42NzkxMDYgTDEyOS42NjI0ODcsMjE3LjEwMTcyNSBMMjE4LjM4NDI0MSwyMTcuMTAxNzI1IEwyMTguMzg0MjQxLDIyNC43NzcwNzMgTDEyMC44MTA0MywyMjQuNzc3MDczIEwxMjAuODEwNDMsODAuNTYxMzEwMiBaIE0yMjYuMDI5Miw4MC41NjEzMTAyIEwyMzYuMjg5NTM4LDgwLjU2MTMxMDIgTDI4MS43NTY5MjIsMTQzLjk4MzkyOSBMMzI4LjIzMDIyMiw4MC41NjEzMTAyIEwzOTEuNDQxNDg2LDAgTDI4Ny41OTEyMzIsMTUwLjY0OTM2MyBMMzQxLjEwNTk0MSwyMjQuNzc3MDczIEwzMzAuNDQzMjM3LDIyNC43NzcwNzMgTDI4MS43NTY5MjIsMTU3LjMxNDc5OCBMMjMyLjg2OTQyNSwyMjQuNzc3MDczIEwyMjIuNDA3OTA0LDIyNC43NzcwNzMgTDI3Ni4zMjQ5NzgsMTUwLjY0OTM2MyBMMjI2LjAyOTIsODAuNTYxMzEwMiBaIE0zNDQuOTI4NDIxLDg4LjIzNjY1ODggTDM0NC45Mjg0MjEsODAuNTYxMzEwMiBMNDU0Ljk3NTU4NSw4MC41NjEzMTAyIEw0NTQuOTc1NTg1LDg4LjIzNjY1ODkgTDQwNC4yNzc0NCw4OC4yMzY2NTg5IEw0MDQuMjc3NDQsMjI0Ljc3NzA3MyBMMzk1LjQyNTM4MiwyMjQuNzc3MDczIEwzOTUuNDI1MzgyLDg4LjIzNjY1ODkgTDM0NC45Mjg0MjEsODguMjM2NjU4OCBaIE0xLjQyMTA4NTQ3ZS0xNCw4MC41NjEzMTAyIEwxMS4wNjUwNzE0LDgwLjU2MTMxMDIgTDE2My42NDU5MywzMDguODg0MDA3IEwxMDAuNTkxNTU4LDIyNC43NzcwNzMgTDkuMjU0NDIzMzEsOTEuNDY4Mzg0NyBMOC44NTIwNTcwOCwyMjQuNzc3MDczIEwxLjQyMTA4NTQ3ZS0xNCwyMjQuNzc3MDczIEwxLjQyMTA4NTQ3ZS0xNCw4MC41NjEzMTAyIFogTTQ1NC4wODM3MDUsMjE0Ljc4NTQ2OSBDNDUyLjI3NTE2NywyMTQuNzg1NDY5IDQ1MC45MTg3NjIsMjEzLjM4NDE4IDQ1MC45MTg3NjIsMjExLjU3MzI4NSBDNDUwLjkxODc2MiwyMDkuNzYyMzg4IDQ1Mi4yNzUxNjcsMjA4LjM2MTA5OSA0NTQuMDgzNzA1LDIwOC4zNjEwOTkgQzQ1NS45MTM3NzQsMjA4LjM2MTA5OSA0NTcuMjQ4NjQ4LDIwOS43NjIzODggNDU3LjI0ODY0OCwyMTEuNTczMjg1IEM0NTcuMjQ4NjQ4LDIxMy4zODQxOCA0NTUuOTEzNzc0LDIxNC43ODU0NjkgNDU0LjA4MzcwNSwyMTQuNzg1NDY5IFogTTQ2Mi43ODE5MTUsMjA2LjMzNDYxOCBMNDY3LjUxODU2MywyMDYuMzM0NjE4IEM0NjcuNTgzMTUzLDIwOC45MDAwNTUgNDY5LjQ1NjI4NCwyMTAuNjI0NzE5IDQ3Mi4yMTIxNTEsMjEwLjYyNDcxOSBDNDc1LjI5MDk3MiwyMTAuNjI0NzE5IDQ3Ny4wMzQ5MiwyMDguNzcwNzA1IDQ3Ny4wMzQ5MiwyMDUuMjk5ODIgTDQ3Ny4wMzQ5MiwxODMuMzEwMzYzIEw0ODEuODU3NjksMTgzLjMxMDM2MyBMNDgxLjg1NzY5LDIwNS4zMjEzNzkgQzQ4MS44NTc2OSwyMTEuNTczMjg1IDQ3OC4yNDA2MTMsMjE1LjE3MzUxOCA0NzIuMjU1MjEyLDIxNS4xNzM1MTggQzQ2Ni42MzU4MjQsMjE1LjE3MzUxOCA0NjIuNzgxOTE1LDIxMS42ODEwNzYgNDYyLjc4MTkxNSwyMDYuMzM0NjE4IFogTTQ4OC4xNjYwNDUsMjA2LjA1NDM2MiBMNDkyLjk0NTc1NCwyMDYuMDU0MzYyIEM0OTMuMzU0ODI4LDIwOS4wMDc4NDggNDk2LjIzOTg3OCwyMTAuODgzNDE5IDUwMC4zOTUyMTEsMjEwLjg4MzQxOSBDNTA0LjI3MDY1MiwyMTAuODgzNDE5IDUwNy4xMTI2NCwyMDguODc4NDk4IDUwNy4xMTI2NCwyMDYuMTE5MDM2IEM1MDcuMTEyNjQsMjAzLjc0NzYyNSA1MDUuMzA0MTAyLDIwMi4zMjQ3NzcgNTAxLjE5MTgyOCwyMDEuMzU0NjUzIEw0OTcuMTg3MjA5LDIwMC4zODQ1MzEgQzQ5MS41Njc4MiwxOTkuMDY5NDc0IDQ4OS4wMDU3MjMsMTk2LjM1MzEyOSA0ODkuMDA1NzIzLDE5MS43ODI3NzIgQzQ4OS4wMDU3MjMsMTg2LjI0MjI5IDQ5My41MjcwNzEsMTgyLjU1NTgyMyA1MDAuMzA5MDksMTgyLjU1NTgyMyBDNTA2LjYxNzQ0NSwxODIuNTU1ODIzIDUxMS4yMjQ5MTIsMTg2LjI0MjI5IDUxMS41MDQ4MDUsMTkxLjQ4MDk1NSBMNTA2LjgxMTIxNywxOTEuNDgwOTU1IEM1MDYuMzU5MDgzLDE4OC42MTM3MDMgNTAzLjg2MTU3NiwxODYuODI0MzY1IDUwMC4yNDQ0OTksMTg2LjgyNDM2NSBDNDk2LjQzMzY1LDE4Ni44MjQzNjUgNDkzLjg5MzA4NSwxODguNjU2ODE5IDQ5My44OTMwODUsMTkxLjQ1OTM5OCBDNDkzLjg5MzA4NSwxOTMuNjc5OTAxIDQ5NS41MjkzOCwxOTQuOTUxODQgNDk5LjU3NzA2MywxOTUuOTAwNDA2IEw1MDMuMDAwMzY4LDE5Ni43NDExNzggQzUwOS4zNzMzMTQsMTk4LjIyODcwMiA1MTIsMjAwLjgxNTY5NSA1MTIsMjA1LjQ5Mzg0NiBDNTEyLDIxMS40NDM5MzUgNTA3LjM5MjUzMywyMTUuMTczNTE4IDUwMC4wMjkxOTcsMjE1LjE3MzUxOCBDNDkzLjEzOTUyNiwyMTUuMTczNTE4IDQ4OC41MTA1MywyMTEuNjE2NCA0ODguMTY2MDQ1LDIwNi4wNTQzNjIgWiIgZmlsbD0iIzAwMDAwMCIgZmlsbC1ydWxlPSJub256ZXJvIi8+JiN4YTsgICAgPC9nPiYjeGE7PC9zdmc+;" parent="1" vertex="1">
                    <mxGeometry x="500" y="574.9999999999999" width="66.28" height="40" as="geometry"/>
                </mxCell>
                <mxCell id="191" value="" style="endArrow=none;html=1;strokeColor=#000000;fontSize=10;entryX=0.5;entryY=0;entryDx=0;entryDy=0;" edge="1" parent="1" target="138">
                    <mxGeometry width="50" height="50" relative="1" as="geometry">
                        <mxPoint x="12" y="970" as="sourcePoint"/>
                        <mxPoint x="28.59874999999988" y="988.03" as="targetPoint"/>
                    </mxGeometry>
                </mxCell>
                <mxCell id="169" value="" style="shape=image;verticalLabelPosition=bottom;labelBackgroundColor=#ffffff;verticalAlign=top;aspect=fixed;imageAspect=0;image=data:image/svg+xml,PHN2ZyB4bWxucz0iaHR0cDovL3d3dy53My5vcmcvMjAwMC9zdmciIHhtbG5zOnhsaW5rPSJodHRwOi8vd3d3LnczLm9yZy8xOTk5L3hsaW5rIiB3aWR0aD0iMjU2cHgiIGhlaWdodD0iMjU2cHgiIHZpZXdCb3g9IjAgMCAyNTYgMjU2IiB2ZXJzaW9uPSIxLjEiIHByZXNlcnZlQXNwZWN0UmF0aW89InhNaWRZTWlkIj4mI3hhOyAgICA8ZGVmcz4mI3hhOyAgICAgICAgPGxpbmVhckdyYWRpZW50IHgxPSIwJSIgeTE9IjUwJSIgeDI9Ijk5LjkzNDI1MzglIiB5Mj0iNTAlIiBpZD0ibGluZWFyR3JhZGllbnQtMSI+JiN4YTsgICAgICAgICAgICA8c3RvcCBzdG9wLWNvbG9yPSIjRkZGRkZGIiBzdG9wLW9wYWNpdHk9IjAuMSIgb2Zmc2V0PSIwJSIvPiYjeGE7ICAgICAgICAgICAgPHN0b3Agc3RvcC1jb2xvcj0iI0ZGRkZGRiIgc3RvcC1vcGFjaXR5PSIwIiBvZmZzZXQ9IjEwMCUiLz4mI3hhOyAgICAgICAgPC9saW5lYXJHcmFkaWVudD4mI3hhOyAgICAgICAgPHBhdGggZD0iTTIzNC44MzEwMzQsMCBMMTg4LjYzNzUxOSwwIEMxNzcuMzgzMDk5LDAgMTY4LjE0NDM5Niw5LjIzODcwMzA2IDE2OC4xNDQzOTYsMjAuNDkzMTIzMiBMMTY4LjE0NDM5Niw4MC42Mjg2ODEzIEwxMDAuOTUzODI4LDgwLjYyODY4MTMgQzg5Ljg2NzM4NDMsODAuNjI4NjgxMyA4MC43OTY2NTc3LDg5LjY5OTQwNzkgODAuNzk2NjU3NywxMDAuNzg1ODUyIEw4MC43OTY2NTc3LDE2Ny45NzY0MTkgTDIwLjE1NzE3MDMsMTY3Ljk3NjQxOSBDOS4wNzA3MjY2NCwxNjcuOTc2NDE5IDAsMTc3LjA0NzE0NiAwLDE4OC4xMzM1OSBMMCwyMzUuMTY2OTg3IEMwLDI0Ni4yNTM0MzEgOS4wNzA3MjY2NCwyNTUuMzI0MTU3IDIwLjE1NzE3MDMsMjU1LjMyNDE1NyBMMjM0LjgzMTAzNCwyNTUuMzI0MTU3IEMyNDYuMDg1NDU0LDI1NS4zMjQxNTcgMjU1LjMyNDE1NywyNDYuMDg1NDU0IDI1NS4zMjQxNTcsMjM0LjgzMTAzNCBMMjU1LjMyNDE1NywyMC40OTMxMjMyIEMyNTUuMzI0MTU3LDkuMjM4NzAzMDYgMjQ2LjA4NTQ1NCwwIDIzNC44MzEwMzQsMCBaIiBpZD0icGF0aC0yIi8+JiN4YTsgICAgICAgIDxwYXRoIGQ9Ik04MC42Mjg2ODEzLDIwLjE1NzE3MDMgTDgwLjYyODY4MTMsODcuMzQ3NzM4IEwyMC4xNTcxNzAzLDg3LjM0NzczOCBDOS4wNzA3MjY2NCw4Ny4zNDc3MzggMCw5Ni40MTg0NjQ3IDAsMTA3LjUwNDkwOCBMMCwxNTQuNTM4MzA2IEMwLDE2NS42MjQ3NDkgOS4wNzA3MjY2NCwxNzQuNjk1NDc2IDIwLjE1NzE3MDMsMTc0LjY5NTQ3NiBMMTY3Ljk3NjQxOSwxNzQuNjk1NDc2IEwxNjcuOTc2NDE5LDAgTDEwMC43ODU4NTIsMCBDODkuNjk5NDA3OSwwIDgwLjYyODY4MTMsOS4wNzA3MjY2NCA4MC42Mjg2ODEzLDIwLjE1NzE3MDMgWiIgaWQ9InBhdGgtNCIvPiYjeGE7ICAgICAgICA8ZmlsdGVyIHg9Ii0xMS4zJSIgeT0iLTkuNyUiIHdpZHRoPSIxMjIuNiUiIGhlaWdodD0iMTIxLjglIiBmaWx0ZXJVbml0cz0ib2JqZWN0Qm91bmRpbmdCb3giIGlkPSJmaWx0ZXItNSI+JiN4YTsgICAgICAgICAgICA8ZmVPZmZzZXQgZHg9IjAiIGR5PSIyIiBpbj0iU291cmNlQWxwaGEiIHJlc3VsdD0ic2hhZG93T2Zmc2V0T3V0ZXIxIi8+JiN4YTsgICAgICAgICAgICA8ZmVHYXVzc2lhbkJsdXIgc3RkRGV2aWF0aW9uPSI2IiBpbj0ic2hhZG93T2Zmc2V0T3V0ZXIxIiByZXN1bHQ9InNoYWRvd0JsdXJPdXRlcjEiLz4mI3hhOyAgICAgICAgICAgIDxmZUNvbG9yTWF0cml4IHZhbHVlcz0iMCAwIDAgMCAwICAgMCAwIDAgMCAwICAgMCAwIDAgMCAwICAwIDAgMCAwLjIgMCIgdHlwZT0ibWF0cml4IiBpbj0ic2hhZG93Qmx1ck91dGVyMSIvPiYjeGE7ICAgICAgICA8L2ZpbHRlcj4mI3hhOyAgICAgICAgPGxpbmVhckdyYWRpZW50IHgxPSItNDkuNjE0NjQzNSUiIHkxPSIyNS4yNDAzODQ2JSIgeDI9IjkzLjE3OTM4MzQlIiB5Mj0iOTYuNTAwMDk2MiUiIGlkPSJsaW5lYXJHcmFkaWVudC02Ij4mI3hhOyAgICAgICAgICAgIDxzdG9wIHN0b3AtY29sb3I9IiNCRjM2MEMiIHN0b3Atb3BhY2l0eT0iMC4yIiBvZmZzZXQ9IjAlIi8+JiN4YTsgICAgICAgICAgICA8c3RvcCBzdG9wLWNvbG9yPSIjQkYzNjBDIiBzdG9wLW9wYWNpdHk9IjAuMDIiIG9mZnNldD0iMTAwJSIvPiYjeGE7ICAgICAgICA8L2xpbmVhckdyYWRpZW50PiYjeGE7ICAgICAgICA8bGluZWFyR3JhZGllbnQgeDE9IjMzLjUyOTY3MTElIiB5MT0iMzMuNTc1NTkyMSUiIHgyPSI5OC4yMTc4Mjg5JSIgeTI9Ijk4LjI2Mzc1JSIgaWQ9ImxpbmVhckdyYWRpZW50LTciPiYjeGE7ICAgICAgICAgICAgPHN0b3Agc3RvcC1jb2xvcj0iI0ZGRkZGRiIgc3RvcC1vcGFjaXR5PSIwLjEiIG9mZnNldD0iMCUiLz4mI3hhOyAgICAgICAgICAgIDxzdG9wIHN0b3AtY29sb3I9IiNGRkZGRkYiIHN0b3Atb3BhY2l0eT0iMCIgb2Zmc2V0PSIxMDAlIi8+JiN4YTsgICAgICAgIDwvbGluZWFyR3JhZGllbnQ+JiN4YTsgICAgPC9kZWZzPiYjeGE7CQk8Zz4mI3hhOwkJCQk8cGF0aCBkPSJNMjM0LjgzMTAzNCwwIEwxODguMzAxNTY2LDAgQzE3Ny4wNDcxNDYsMCAxNjcuODA4NDQzLDkuMjM4NzAzMDYgMTY3LjgwODQ0MywyMC40OTMxMjMyIEwxNjcuODA4NDQzLDgwLjYyODY4MTMgTDEwMC40NDk4OTksODAuNjI4NjgxMyBDODkuNTMxNDMxNSw4MC42Mjg2ODEzIDgwLjYyODY4MTMsODkuNTMxNDMxNSA4MC42Mjg2ODEzLDEwMC42MTc4NzUgTDgwLjYyODY4MTMsMTY3Ljk3NjQxOSBMMTkuOTg5MTkzOSwxNjcuOTc2NDE5IEM4LjkwMjc1MDIyLDE2Ny45NzY0MTkgMCwxNzYuODc5MTcgMCwxODcuOTY1NjEzIEwwLDIzNC45OTkwMTEgQzAsMjQ2LjA4NTQ1NCA4LjkwMjc1MDIyLDI1NC45ODgyMDUgMTkuOTg5MTkzOSwyNTUuMzI0MTU3IEwxNjcuOTc2NDE5LDI1NS4zMjQxNTcgTDE4OC40Njk1NDIsMjU1LjMyNDE1NyBMMjM0Ljk5OTAxMSwyNTUuMzI0MTU3IEMyNDYuMjUzNDMxLDI1NS4zMjQxNTcgMjU1LjQ5MjEzNCwyNDYuMDg1NDU0IDI1NS40OTIxMzQsMjM0LjgzMTAzNCBMMjU1LjQ5MjEzNCwyMC40OTMxMjMyIEMyNTUuMzI0MTU3LDkuMjM4NzAzMDYgMjQ2LjA4NTQ1NCwwIDIzNC44MzEwMzQsMCBaIiBmaWxsPSJ1cmwoI2xpbmVhckdyYWRpZW50LTEpIiBmaWxsLXJ1bGU9Im5vbnplcm8iLz4mI3hhOwkJCQk8cGF0aCBkPSJNMjM0LjgzMTAzNCwwIEwxODguMzAxNTY2LDAgQzE3Ny4wNDcxNDYsMCAxNjcuODA4NDQzLDkuMjM4NzAzMDYgMTY3LjgwODQ0MywyMC40OTMxMjMyIEwxNjcuODA4NDQzLDgwLjYyODY4MTMgTDEwMC40NDk4OTksODAuNjI4NjgxMyBDODkuNTMxNDMxNSw4MC42Mjg2ODEzIDgwLjYyODY4MTMsODkuNTMxNDMxNSA4MC42Mjg2ODEzLDEwMC42MTc4NzUgTDgwLjYyODY4MTMsMTY3Ljk3NjQxOSBMMTkuOTg5MTkzOSwxNjcuOTc2NDE5IEM4LjkwMjc1MDIyLDE2Ny45NzY0MTkgMCwxNzYuODc5MTcgMCwxODcuOTY1NjEzIEwwLDIzNC45OTkwMTEgQzAsMjQ2LjA4NTQ1NCA4LjkwMjc1MDIyLDI1NC45ODgyMDUgMTkuOTg5MTkzOSwyNTUuMzI0MTU3IEwxNjcuOTc2NDE5LDI1NS4zMjQxNTcgTDE4OC40Njk1NDIsMjU1LjMyNDE1NyBMMjM0Ljk5OTAxMSwyNTUuMzI0MTU3IEMyNDYuMjUzNDMxLDI1NS4zMjQxNTcgMjU1LjQ5MjEzNCwyNDYuMDg1NDU0IDI1NS40OTIxMzQsMjM0LjgzMTAzNCBMMjU1LjQ5MjEzNCwyMC40OTMxMjMyIEMyNTUuMzI0MTU3LDkuMjM4NzAzMDYgMjQ2LjA4NTQ1NCwwIDIzNC44MzEwMzQsMCBaIiBmaWxsPSJ1cmwoI2xpbmVhckdyYWRpZW50LTEpIiBmaWxsLXJ1bGU9Im5vbnplcm8iLz4mI3hhOwkJCQk8Zz4mI3hhOwkJCQkJCTxtYXNrIGlkPSJtYXNrLTMiIGZpbGw9IndoaXRlIj4mI3hhOwkJCQkJCQkJPHVzZSB4bGluazpocmVmPSIjcGF0aC0yIi8+JiN4YTsJCQkJCQk8L21hc2s+JiN4YTsJCQkJCQk8Zy8+JiN4YTsJCQkJCQk8ZyBtYXNrPSJ1cmwoI21hc2stMykiIGZpbGwtcnVsZT0ibm9uemVybyI+JiN4YTsJCQkJCQkJCTxwYXRoIGQ9Ik0yMzQuODMxMDM0LDAgTDE4OC42Mzc1MTksMCBDMTc3LjM4MzA5OSwwIDE2OC4xNDQzOTYsOS4yMzg3MDMwNiAxNjguMTQ0Mzk2LDIwLjQ5MzEyMzIgTDE2OC4xNDQzOTYsODAuNjI4NjgxMyBMMTY4LjE0NDM5NiwyNTUuMzI0MTU3IEwxODguNjM3NTE5LDI1NS4zMjQxNTcgQzE4OC42Mzc1MTksMjU1LjMyNDE1NyAxODguNjM3NTE5LDI1NS4zMjQxNTcgMTg4LjYzNzUxOSwyNTUuMzI0MTU3IEwyMzQuODMxMDM0LDI1NS4zMjQxNTcgQzI0Ni4wODU0NTQsMjU1LjMyNDE1NyAyNTUuMzI0MTU3LDI0Ni4wODU0NTQgMjU1LjMyNDE1NywyMzQuODMxMDM0IEwyNTUuMzI0MTU3LDIwLjQ5MzEyMzIgQzI1NS4zMjQxNTcsOS4yMzg3MDMwNiAyNDYuMDg1NDU0LDAgMjM0LjgzMTAzNCwwIFoiIGZpbGw9IiNGNTdDMDAiLz4mI3hhOwkJCQkJCQkJPGcgdHJhbnNmb3JtPSJ0cmFuc2xhdGUoMC4wMDAwMDAsIDgwLjYyODY4MSkiPiYjeGE7CQkJCQkJCQkJCTxnPiYjeGE7CQkJCQkJCQkJCQkJPHVzZSBmaWxsPSJibGFjayIgZmlsbC1vcGFjaXR5PSIxIiBmaWx0ZXI9InVybCgjZmlsdGVyLTUpIiB4bGluazpocmVmPSIjcGF0aC00Ii8+JiN4YTsJCQkJCQkJCQkJCQk8dXNlIGZpbGw9IiNGRkMxMDciIGZpbGwtcnVsZT0iZXZlbm9kZCIgeGxpbms6aHJlZj0iI3BhdGgtNCIvPiYjeGE7CQkJCQkJCQkJCTwvZz4mI3hhOwkJCQkJCQkJPC9nPiYjeGE7CQkJCQkJPC9nPiYjeGE7CQkJCQkJPHBhdGggZD0iTTE2Ny45NzY0MTksODAuNjI4NjgxMyBMMTY3Ljk3NjQxOSwyNTUuMzI0MTU3IEwxODguNDY5NTQyLDI1NS4zMjQxNTcgQzE4OC40Njk1NDIsMjU1LjMyNDE1NyAxODguNDY5NTQyLDI1NS4zMjQxNTcgMTg4LjQ2OTU0MiwyNTUuMzI0MTU3IEwyMzQuNjYzMDU4LDI1NS4zMjQxNTcgQzI0NS45MTc0NzgsMjU1LjMyNDE1NyAyNTUuMTU2MTgxLDI0Ni4wODU0NTQgMjU1LjE1NjE4MSwyMzQuODMxMDM0IEwyNTUuMTU2MTgxLDE2Ny45NzY0MTkgTDE2Ny45NzY0MTksODAuNjI4NjgxMyBaIiBmaWxsPSJ1cmwoI2xpbmVhckdyYWRpZW50LTYpIiBmaWxsLXJ1bGU9Im5vbnplcm8iIG1hc2s9InVybCgjbWFzay0zKSIvPiYjeGE7CQkJCQkJPHBhdGggZD0iTTEwMC43ODU4NTIsODIuMzA4NDQ1NSBMMTY3Ljk3NjQxOSw4Mi4zMDg0NDU1IEwxNjcuOTc2NDE5LDgwLjYyODY4MTMgTDEwMC43ODU4NTIsODAuNjI4NjgxMyBDODkuNjk5NDA3OSw4MC42Mjg2ODEzIDgwLjYyODY4MTMsODkuNjk5NDA3OSA4MC42Mjg2ODEzLDEwMC43ODU4NTIgTDgwLjYyODY4MTMsMTAyLjQ2NTYxNiBDODAuNjI4NjgxMyw5MS4zNzkxNzIxIDg5LjY5OTQwNzksODIuMzA4NDQ1NSAxMDAuNzg1ODUyLDgyLjMwODQ0NTUgWiIgZmlsbD0iI0ZGRkZGRiIgZmlsbC1ydWxlPSJub256ZXJvIiBvcGFjaXR5PSIwLjIiIG1hc2s9InVybCgjbWFzay0zKSIvPiYjeGE7CQkJCQkJPHBhdGggZD0iTTIwLjE1NzE3MDMsMTY5LjY1NjE4NCBMODAuNjI4NjgxMywxNjkuNjU2MTg0IEw4MC42Mjg2ODEzLDE2Ny45NzY0MTkgTDIwLjE1NzE3MDMsMTY3Ljk3NjQxOSBDOS4wNzA3MjY2NCwxNjcuOTc2NDE5IDAsMTc3LjA0NzE0NiAwLDE4OC4xMzM1OSBMMCwxODkuODEzMzU0IEMwLDE3OC43MjY5MSA5LjA3MDcyNjY0LDE2OS42NTYxODQgMjAuMTU3MTcwMywxNjkuNjU2MTg0IFoiIGZpbGw9IiNGRkZGRkYiIGZpbGwtcnVsZT0ibm9uemVybyIgb3BhY2l0eT0iMC4yIiBtYXNrPSJ1cmwoI21hc2stMykiLz4mI3hhOwkJCQkJCTxwYXRoIGQ9Ik0yMzQuODMxMDM0LDAgTDE4OC42Mzc1MTksMCBDMTc3LjM4MzA5OSwwIDE2OC4xNDQzOTYsOS4yMzg3MDMwNiAxNjguMTQ0Mzk2LDIwLjQ5MzEyMzIgTDE2OC4xNDQzOTYsMjIuMTcyODg3NCBDMTY4LjE0NDM5NiwxMC45MTg0NjczIDE3Ny4zODMwOTksMS42Nzk3NjQxOSAxODguNjM3NTE5LDEuNjc5NzY0MTkgTDIzNC44MzEwMzQsMS42Nzk3NjQxOSBDMjQ2LjA4NTQ1NCwxLjY3OTc2NDE5IDI1NS4zMjQxNTcsMTAuOTE4NDY3MyAyNTUuMzI0MTU3LDIyLjE3Mjg4NzQgTDI1NS4zMjQxNTcsMjAuNDkzMTIzMiBDMjU1LjMyNDE1Nyw5LjIzODcwMzA2IDI0Ni4wODU0NTQsMCAyMzQuODMxMDM0LDAgWiIgZmlsbD0iI0ZGRkZGRiIgZmlsbC1ydWxlPSJub256ZXJvIiBvcGFjaXR5PSIwLjIiIG1hc2s9InVybCgjbWFzay0zKSIvPiYjeGE7CQkJCQkJPHBhdGggZD0iTTIzNC44MzEwMzQsMjUzLjY0NDM5MyBMMTg4LjYzNzUxOSwyNTMuNjQ0MzkzIEMxODguNjM3NTE5LDI1My42NDQzOTMgMTg4LjYzNzUxOSwyNTMuNjQ0MzkzIDE4OC42Mzc1MTksMjUzLjY0NDM5MyBMMTY3Ljk3NjQxOSwyNTMuNjQ0MzkzIEwyMC4xNTcxNzAzLDI1My42NDQzOTMgQzkuMDcwNzI2NjQsMjUzLjY0NDM5MyAwLDI0NC41NzM2NjcgMCwyMzMuNDg3MjIzIEwwLDIzNS4xNjY5ODcgQzAsMjQ2LjI1MzQzMSA5LjA3MDcyNjY0LDI1NS4zMjQxNTcgMjAuMTU3MTcwMywyNTUuMzI0MTU3IEwxNjcuOTc2NDE5LDI1NS4zMjQxNTcgTDE4OC40Njk1NDIsMjU1LjMyNDE1NyBDMTg4LjQ2OTU0MiwyNTUuMzI0MTU3IDE4OC40Njk1NDIsMjU1LjMyNDE1NyAxODguNDY5NTQyLDI1NS4zMjQxNTcgTDIzNC42NjMwNTgsMjU1LjMyNDE1NyBDMjQ1LjkxNzQ3OCwyNTUuMzI0MTU3IDI1NS4xNTYxODEsMjQ2LjA4NTQ1NCAyNTUuMTU2MTgxLDIzNC44MzEwMzQgTDI1NS4xNTg0MzYsMjMzLjE1MTI3IEMyNTUuMzI0MTU3LDI0NC40MDU2OSAyNDYuMDg1NDU0LDI1My42NDQzOTMgMjM0LjgzMTAzNCwyNTMuNjQ0MzkzIFoiIGZpbGw9IiNCRjM2MEMiIGZpbGwtcnVsZT0ibm9uemVybyIgb3BhY2l0eT0iMC4yIiBtYXNrPSJ1cmwoI21hc2stMykiLz4mI3hhOwkJCQk8L2c+JiN4YTsJCQkJPHBhdGggZD0iTTIzNC44MzEwMzQsMCBMMTg4LjYzNzUxOSwwIEMxNzcuMzgzMDk5LDAgMTY4LjE0NDM5Niw5LjIzODcwMzA2IDE2OC4xNDQzOTYsMjAuNDkzMTIzMiBMMTY4LjE0NDM5Niw4MC42Mjg2ODEzIEwxMDAuOTUzODI4LDgwLjYyODY4MTMgQzg5Ljg2NzM4NDMsODAuNjI4NjgxMyA4MC43OTY2NTc3LDg5LjY5OTQwNzkgODAuNzk2NjU3NywxMDAuNzg1ODUyIEw4MC43OTY2NTc3LDE2Ny45NzY0MTkgTDIwLjE1NzE3MDMsMTY3Ljk3NjQxOSBDOS4wNzA3MjY2NCwxNjcuOTc2NDE5IDAsMTc3LjA0NzE0NiAwLDE4OC4xMzM1OSBMMCwyMzUuMTY2OTg3IEMwLDI0Ni4yNTM0MzEgOS4wNzA3MjY2NCwyNTUuMzI0MTU3IDIwLjE1NzE3MDMsMjU1LjMyNDE1NyBMMjM0LjgzMTAzNCwyNTUuMzI0MTU3IEMyNDYuMDg1NDU0LDI1NS4zMjQxNTcgMjU1LjMyNDE1NywyNDYuMDg1NDU0IDI1NS4zMjQxNTcsMjM0LjgzMTAzNCBMMjU1LjMyNDE1NywyMC40OTMxMjMyIEMyNTUuMzI0MTU3LDkuMjM4NzAzMDYgMjQ2LjA4NTQ1NCwwIDIzNC44MzEwMzQsMCBaIiBmaWxsPSJ1cmwoI2xpbmVhckdyYWRpZW50LTcpIiBmaWxsLXJ1bGU9Im5vbnplcm8iLz4mI3hhOwkJPC9nPiYjeGE7PC9zdmc+;" parent="1" vertex="1">
                    <mxGeometry x="582.5" y="520" width="58.5" height="58.5" as="geometry"/>
                </mxCell>
                <mxCell id="193" value="" style="dashed=0;outlineConnect=0;html=1;align=center;labelPosition=center;verticalLabelPosition=bottom;verticalAlign=top;shape=mxgraph.weblogos.github" vertex="1" parent="1">
                    <mxGeometry x="-256.84" y="650" width="48.56" height="50" as="geometry"/>
                </mxCell>
                <mxCell id="182" value="" style="shape=image;verticalLabelPosition=bottom;labelBackgroundColor=#ffffff;verticalAlign=top;aspect=fixed;imageAspect=0;image=data:image/svg+xml,PHN2ZyB4bWxucz0iaHR0cDovL3d3dy53My5vcmcvMjAwMC9zdmciIHhtbG5zOnhsaW5rPSJodHRwOi8vd3d3LnczLm9yZy8xOTk5L3hsaW5rIiB3aWR0aD0iMjU2cHgiIGhlaWdodD0iMjg4cHgiIHZpZXdCb3g9IjAgMCAyNTYgMjg4IiB2ZXJzaW9uPSIxLjEiIHByZXNlcnZlQXNwZWN0UmF0aW89InhNaWRZTWlkIj4mI3hhOyAgICA8ZyBmaWxsLXJ1bGU9ImV2ZW5vZGQiPiYjeGE7ICAgICAgICA8cGF0aCBkPSJNMTUyLjU3NTk5NSwzMi45NjM0NDUzIEwyMTEuNzIyMDU4LDY3LjExMjQ0MjcgQzIxMy4zODc1MDMsNjUuMzQ4MzI5IDIxNS4zMzI4NTksNjMuNzkwNzA4MSAyMTcuNTM5NzM0LDYyLjUwODg3MDggQzIyOS44MDY0NTcsNTUuNDU3MzQxMyAyNDUuNDUyMDM4LDU5LjY0NDE4NjkgMjUyLjU3NzAyMSw3MS45MTA5MTAxIEMyNTkuNjI4NTUsODQuMTc3NjMzMyAyNTUuNDQxNzA1LDk5LjgyMzIxNDMgMjQzLjE3NDk4MiwxMDYuOTQ4MTk3IEMyNDAuOTg0OTc0LDEwOC4yMDcxMjQgMjM4LjY4NDkyOSwxMDkuMTA3ODQgMjM2LjM0MzgxMiwxMDkuNjY4MzIgTDIzNi4zNDM4MTIsMTc3Ljk5MzAyIEMyMzguNjU5NTgyLDE3OC41NTQ2ODMgMjQwLjkzNDQyOSwxNzkuNDQ5Njg2IDI0My4xMDE1MjgsMTgwLjY5NTQ0MyBDMjU1LjQ0MTcwNSwxODcuODIwNDI2IDI1OS42Mjg1NSwyMDMuNDY2MDA3IDI1Mi41MDM1NjgsMjE1LjczMjczIEMyNDUuNDUyMDM4LDIyNy45OTk0NTMgMjI5LjczMzAwNCwyMzIuMTg2Mjk5IDIxNy40NjYyOCwyMjUuMTM0NzcgQzIxNS4wMjQxMDUsMjIzLjczMDg4NCAyMTIuOTAyMTg5LDIyMS45ODM0NDkgMjExLjEyNTQ1NiwyMTkuOTg4MTAzIEwxNTIuMzQwMTYyLDI1My45Mjg4MDMgQzE1My4xODA1MTksMjU2LjQ2ODA4IDE1My42MzUyNDgsMjU5LjE4NDMxIDE1My42MzUyNDgsMjYyLjAwODM5MyBDMTUzLjYzNTI0OCwyNzYuMTExNDUyIDE0Mi4xNzY1MTIsMjg3LjY0MzY0IDEyOCwyODcuNjQzNjQgQzExMy44MjM0ODgsMjg3LjY0MzY0IDEwMi4zNjQ3NTIsMjc2LjE4NDkwNSAxMDIuMzY0NzUyLDI2Mi4wMDgzOTMgQzEwMi4zNjQ3NTIsMjU5LjQ4ODQ4MSAxMDIuNzI2ODAyLDI1Ny4wNTQ0NDEgMTAzLjQwMTgxLDI1NC43NTUzNjIgTDQ0LjI3MTQ4ODcsMjIwLjYxNTQ1NCBDNDIuNjIzODI1NywyMjIuMzQ0OTMgNDAuNzA1Mzk0LDIyMy44NzMzNzggMzguNTMzNzE5NiwyMjUuMTM0NzcgQzI2LjE5MzU0MywyMzIuMTg2Mjk5IDEwLjU0Nzk2MiwyMjcuOTk5NDUzIDMuNDk2NDMyNDgsMjE1LjczMjczIEMtMy41NTUwOTcwMSwyMDMuNDY2MDA3IDAuNjMxNzQ4NjIxLDE4Ny44MjA0MjYgMTIuODk4NDcxOCwxODAuNjk1NDQzIEMxNS4wNjczMzk3LDE3OS40NDg2NjkgMTcuMzQxODM1NiwxNzguNTUzMjIyIDE5LjY1NjE4NzYsMTc3Ljk5MTY0NiBMMTkuNjU2MTg3NiwxMDkuNjY4MzIgQzE3LjMxNTA3MTQsMTA5LjEwNzg0IDE1LjAxNTAyNTcsMTA4LjIwNzEyNCAxMi44MjUwMTg0LDEwNi45NDgxOTcgQzAuNTU4Mjk1MTg5LDk5Ljg5NjY2NzcgLTMuNjI4NTUwNDQsODQuMTc3NjMzMyAzLjQyMjk3OTA0LDcxLjkxMDkxMDEgQzEwLjQ3NDUwODUsNTkuNjQ0MTg2OSAyNi4xOTM1NDMsNTUuNDU3MzQxMyAzOC40NjAyNjYyLDYyLjUwODg3MDggQzQwLjY1NTEzNzQsNjMuNzgzNzM2MSA0Mi41OTEzMjY5LDY1LjMzMTM5MzEgNDQuMjUwNzQxMyw2Ny4wODM2NzU2IEwxMDMuNDEyNzYsMzIuOTI1NDY2NCBDMTAyLjczMDcxOCwzMC42MTU0NTMyIDEwMi4zNjQ3NTIsMjguMTY4NzUwMyAxMDIuMzY0NzUyLDI1LjYzNTI0NzggQzEwMi4zNjQ3NTIsMTEuNDU4NzM1NCAxMTMuODIzNDg4LDAgMTI4LDAgQzE0Mi4xNzY1MTIsMCAxNTMuNjM1MjQ4LDExLjQ1ODczNTQgMTUzLjYzNTI0OCwyNS42MzUyNDc4IEMxNTMuNjM1MjQ4LDI4LjE4MjYzOTMgMTUzLjI2NTI1OCwzMC42NDIyNzY4IDE1Mi41NzU5OTUsMzIuOTYzNDQ1MyBaIE0xNDYuNDEzNjM4LDQzLjQ4NDg3MTMgTDIwNS43MDA1NTUsNzcuNzE1MTkzIEMyMDMuODY3ODk5LDg0LjE1MTY4ODggMjA0LjU0MDUxNSw5MS4yODg1NjM4IDIwOC4xMzc2OTQsOTcuNTQ2MTU3OSBDMjExLjc0NjYwMSwxMDMuODI0MTUxIDIxNy42MjU3ODMsMTA3Ljk4NTc4NSAyMjQuMTUwNTQzLDEwOS42MDc2NTQgTDIyNC4xNTA1NDMsMTc4LjAxNzg0MiBDMjIzLjgxODAzMiwxNzguMDk5NDYzIDIyMy40ODcxOCwxNzguMTg3Njc0IDIyMy4xNTgyMDEsMTc4LjI4MjQxOSBMMTQ1LjcyNTI5LDQ0LjE2ODYxODIgQzE0NS45NTkwMTcsNDMuOTQ1MDQ2OSAxNDYuMTg4NTEsNDMuNzE3MDg3NiAxNDYuNDEzNjM4LDQzLjQ4NDg3MTMgWiBNMTEwLjI5MDkzLDQ0LjE4NDEyMDMgTDMyLjg1OTMyNzksMTc4LjI5NTY1NiBDMzIuNTI0NTU5LDE3OC4xOTg0NCAzMi4xODc4NjExLDE3OC4xMDgwMTUgMzEuODQ5NDU3MywxNzguMDI0NDM4IEwzMS44NDk0NTczLDEwOS42MDc2NTQgQzM4LjM3NDIxNjgsMTA3Ljk4NTc4NSA0NC4yNTMzOTkyLDEwMy44MjQxNTEgNDcuODYyMzA1NSw5Ny41NDYxNTc5IEM1MS40NjY1OTksOTEuMjc2MTg5IDUyLjEzNDc0OTcsODQuMTIzNDU4MyA1MC4yODg1NDI2LDc3LjY3NzAxNTcgTDEwOS41NTg3NDcsNDMuNDU2MzQzNCBDMTA5Ljc5NzkxMyw0My43MDM4MDE5IDExMC4wNDIwMjcsNDMuOTQ2NDQ2OSAxMTAuMjkwOTMsNDQuMTg0MTIwMyBaIE0xMzUuMTYyNzQ5LDUwLjI1OTc2MyBMMjEyLjU3NjgxNywxODQuMzQwOTI4IEMyMTAuODQ0MjQxLDE4NS45OTI3OSAyMDkuMzE3Mzc2LDE4Ny45MTc1NSAyMDguMDY0MjQxLDE5MC4wOTc0ODIgQzIwNi44MTg0ODQsMTkyLjI2NDU4MSAyMDUuOTIzNDgxLDE5NC41Mzk0MjkgMjA1LjM2MTgxOCwxOTYuODU1MTk4IEw1MC42Mzk1NTY0LDE5Ni44NTUxOTggQzUwLjA3Nzk3OTgsMTk0LjU0MDg0NiA0OS4xODI1MzMzLDE5Mi4yNjYzNSA0Ny45MzU3NTg5LDE5MC4wOTc0ODIgQzQ2LjY3NzY3MTMsMTg3LjkzMTQ5NyA0NS4xNTM5MjQ4LDE4Ni4wMTc0MjggNDMuNDMwMDI5NywxODQuMzcyNjY3IEwxMjAuODU4ODIxLDUwLjI2NTk5OTMgQzEyMy4xMjQ5NDEsNTAuOTIwMDgyMiAxMjUuNTIwOTE1LDUxLjI3MDQ5NTcgMTI4LDUxLjI3MDQ5NTcgQzEzMC40ODY5NTIsNTEuMjcwNDk1NyAxMzIuODkwMjY1LDUwLjkxNzg1NDcgMTM1LjE2Mjc0OSw1MC4yNTk3NjMgWiBNMTQ2Ljk1ODA4NCwyNDQuNzM3OTk1IEwyMDUuODYwMTA3LDIxMC43Mjk4OTkgQzIwNS42ODMzOTgsMjEwLjE3NDkyNCAyMDUuNTI1NDgzLDIwOS42MTQwOTYgMjA1LjM4NjY0LDIwOS4wNDg0NjggTDUwLjYwNjc2NDMsMjA5LjA0ODQ2OCBDNTAuNTI0Njg4OCwyMDkuMzgwNzkyIDUwLjQzNjAwODQsMjA5LjcxMTQ3MiA1MC4zNDA3NzkyLDIxMC4wNDAyOTUgTDEwOS41MzE3ODIsMjQ0LjIxNTIzOSBDMTE0LjE5MjI5OCwyMzkuMzc4NTQ1IDEyMC43Mzk3MzksMjM2LjM3MzE0NSAxMjgsMjM2LjM3MzE0NSBDMTM1LjUxODM3OSwyMzYuMzczMTQ1IDE0Mi4yNzIzNTIsMjM5LjU5NjA0MSAxNDYuOTU4MDg0LDI0NC43Mzc5OTUgWiIgZmlsbD0iI0U1MzVBQiIvPiYjeGE7ICAgIDwvZz4mI3hhOzwvc3ZnPg==;" parent="1" vertex="1">
                    <mxGeometry x="66.81" y="1045" width="44.44" height="50" as="geometry"/>
                </mxCell>
                <mxCell id="183" value="" style="shape=image;verticalLabelPosition=bottom;labelBackgroundColor=#ffffff;verticalAlign=top;aspect=fixed;imageAspect=0;image=data:image/svg+xml,PHN2ZyB4bWxucz0iaHR0cDovL3d3dy53My5vcmcvMjAwMC9zdmciIHhtbG5zOnhsaW5rPSJodHRwOi8vd3d3LnczLm9yZy8xOTk5L3hsaW5rIiB3aWR0aD0iMjU2cHgiIGhlaWdodD0iMjU2cHgiIHZpZXdCb3g9IjAgMCAyNTYgMjU2IiB2ZXJzaW9uPSIxLjEiIHByZXNlcnZlQXNwZWN0UmF0aW89InhNaWRZTWlkIj4mI3hhOyAgICA8Zz4mI3hhOyAgICAgICAgPHBhdGggZD0iTTE2MC4yMjcsMTc4LjUxODYgTDE4Ny44NTcsMTc4LjUxODYgTDE0My43NSw2NC4wNDg2IEwxMTMuMjAxLDY0LjA0ODYgTDY5LjA5NCwxNzguNTE4NiBMOTYuNzI2LDE3OC41MTg2IEwxMDMuOTM0LDE1OS4xMjg2IEwxNDUuNjA5LDE1OS4xMjg2IEwxMzguMDY1LDEzNy42NzI2IEwxMTAuNjI1LDEzNy42NzI2IEwxMjguNDc1LDg4LjQxODYgTDE2MC4yMjcsMTc4LjUxODYgWiBNMjUxLjMzOSw5My43NjggQzI1MC4zNTcsOTAuMjMyIDI0Ni43MDUsODguMTU1IDI0My4xNTQsODkuMTQxIEMyMzkuNjE3LDkwLjEyMyAyMzcuNTQ0LDkzLjc4NyAyMzguNTI2LDk3LjMyNCBDMjQxLjI5OSwxMDcuMzA5IDI0Mi43MDQsMTE3LjYzIDI0Mi43MDQsMTI4IEMyNDIuNzA0LDE5MS4yNDggMTkxLjI0OCwyNDIuNzAyIDEyOCwyNDIuNzAyIEM2NC43NTIsMjQyLjcwMiAxMy4yOTcsMTkxLjI0OCAxMy4yOTcsMTI4IEMxMy4yOTcsNjQuNzUxIDY0Ljc1MiwxMy4yOTYgMTI4LDEzLjI5NiBDMTU0Ljc5MywxMy4yOTYgMTgwLjcxOCwyMi44MTQgMjAxLjE3OSwzOS43NTIgQzIwMC4zODMsNDEuNjUyIDE5OS45NDEsNDMuNzM3IDE5OS45NDEsNDUuOTI1IEMxOTkuOTQxLDU0Ljc2IDIwNy4xMDMsNjEuOTIyIDIxNS45MzgsNjEuOTIyIEMyMjQuNzczLDYxLjkyMiAyMzEuOTM1LDU0Ljc2IDIzMS45MzUsNDUuOTI1IEMyMzEuOTM1LDM3LjA5IDIyNC43NzMsMjkuOTI4IDIxNS45MzgsMjkuOTI4IEMyMTQuMjM3LDI5LjkyOCAyMTIuNiwzMC4xOTkgMjExLjA2MiwzMC42OTEgQzE4OC4wMjIsMTEuMDU2IDE1OC41MTMsMCAxMjgsMCBDNTcuNDIxLDAgMCw1Ny40MiAwLDEyOCBDMCwxOTguNTc5IDU3LjQyMSwyNTUuOTk5IDEyOCwyNTUuOTk5IEMxOTguNTc5LDI1NS45OTkgMjU2LDE5OC41NzkgMjU2LDEyOCBDMjU2LDExNi40MjggMjU0LjQzMywxMDQuOTEgMjUxLjMzOSw5My43NjggWiIgZmlsbD0iIzExMkI0OSIvPiYjeGE7ICAgIDwvZz4mI3hhOzwvc3ZnPg==;" parent="1" vertex="1">
                    <mxGeometry x="111.25" y="1047.5" width="45" height="45" as="geometry"/>
                </mxCell>
                <mxCell id="184" value="" style="shape=image;verticalLabelPosition=bottom;labelBackgroundColor=#ffffff;verticalAlign=top;aspect=fixed;imageAspect=0;image=data:image/svg+xml,PHN2ZyB4bWxucz0iaHR0cDovL3d3dy53My5vcmcvMjAwMC9zdmciIHhtbG5zOnhsaW5rPSJodHRwOi8vd3d3LnczLm9yZy8xOTk5L3hsaW5rIiB3aWR0aD0iNTEycHgiIGhlaWdodD0iMzA5cHgiIHZpZXdCb3g9IjAgMCA1MTIgMzA5IiB2ZXJzaW9uPSIxLjEiIHByZXNlcnZlQXNwZWN0UmF0aW89InhNaWRZTWlkIj4mI3hhOyAgICA8Zz4mI3hhOyAgICAgICAgPHBhdGggZD0iTTEyMC44MTA0Myw4MC41NjEzMTAyIEwyMTcuMzc4MzI1LDgwLjU2MTMxMDIgTDIxNy4zNzgzMjUsODguMjM2NjU4OSBMMTI5LjY2MjQ4Nyw4OC4yMzY2NTg5IEwxMjkuNjYyNDg3LDE0Ni4wMDM3NTggTDIxMi4xNDc1NjQsMTQ2LjAwMzc1OCBMMjEyLjE0NzU2NCwxNTMuNjc5MTA2IEwxMjkuNjYyNDg3LDE1My42NzkxMDYgTDEyOS42NjI0ODcsMjE3LjEwMTcyNSBMMjE4LjM4NDI0MSwyMTcuMTAxNzI1IEwyMTguMzg0MjQxLDIyNC43NzcwNzMgTDEyMC44MTA0MywyMjQuNzc3MDczIEwxMjAuODEwNDMsODAuNTYxMzEwMiBaIE0yMjYuMDI5Miw4MC41NjEzMTAyIEwyMzYuMjg5NTM4LDgwLjU2MTMxMDIgTDI4MS43NTY5MjIsMTQzLjk4MzkyOSBMMzI4LjIzMDIyMiw4MC41NjEzMTAyIEwzOTEuNDQxNDg2LDAgTDI4Ny41OTEyMzIsMTUwLjY0OTM2MyBMMzQxLjEwNTk0MSwyMjQuNzc3MDczIEwzMzAuNDQzMjM3LDIyNC43NzcwNzMgTDI4MS43NTY5MjIsMTU3LjMxNDc5OCBMMjMyLjg2OTQyNSwyMjQuNzc3MDczIEwyMjIuNDA3OTA0LDIyNC43NzcwNzMgTDI3Ni4zMjQ5NzgsMTUwLjY0OTM2MyBMMjI2LjAyOTIsODAuNTYxMzEwMiBaIE0zNDQuOTI4NDIxLDg4LjIzNjY1ODggTDM0NC45Mjg0MjEsODAuNTYxMzEwMiBMNDU0Ljk3NTU4NSw4MC41NjEzMTAyIEw0NTQuOTc1NTg1LDg4LjIzNjY1ODkgTDQwNC4yNzc0NCw4OC4yMzY2NTg5IEw0MDQuMjc3NDQsMjI0Ljc3NzA3MyBMMzk1LjQyNTM4MiwyMjQuNzc3MDczIEwzOTUuNDI1MzgyLDg4LjIzNjY1ODkgTDM0NC45Mjg0MjEsODguMjM2NjU4OCBaIE0xLjQyMTA4NTQ3ZS0xNCw4MC41NjEzMTAyIEwxMS4wNjUwNzE0LDgwLjU2MTMxMDIgTDE2My42NDU5MywzMDguODg0MDA3IEwxMDAuNTkxNTU4LDIyNC43NzcwNzMgTDkuMjU0NDIzMzEsOTEuNDY4Mzg0NyBMOC44NTIwNTcwOCwyMjQuNzc3MDczIEwxLjQyMTA4NTQ3ZS0xNCwyMjQuNzc3MDczIEwxLjQyMTA4NTQ3ZS0xNCw4MC41NjEzMTAyIFogTTQ1NC4wODM3MDUsMjE0Ljc4NTQ2OSBDNDUyLjI3NTE2NywyMTQuNzg1NDY5IDQ1MC45MTg3NjIsMjEzLjM4NDE4IDQ1MC45MTg3NjIsMjExLjU3MzI4NSBDNDUwLjkxODc2MiwyMDkuNzYyMzg4IDQ1Mi4yNzUxNjcsMjA4LjM2MTA5OSA0NTQuMDgzNzA1LDIwOC4zNjEwOTkgQzQ1NS45MTM3NzQsMjA4LjM2MTA5OSA0NTcuMjQ4NjQ4LDIwOS43NjIzODggNDU3LjI0ODY0OCwyMTEuNTczMjg1IEM0NTcuMjQ4NjQ4LDIxMy4zODQxOCA0NTUuOTEzNzc0LDIxNC43ODU0NjkgNDU0LjA4MzcwNSwyMTQuNzg1NDY5IFogTTQ2Mi43ODE5MTUsMjA2LjMzNDYxOCBMNDY3LjUxODU2MywyMDYuMzM0NjE4IEM0NjcuNTgzMTUzLDIwOC45MDAwNTUgNDY5LjQ1NjI4NCwyMTAuNjI0NzE5IDQ3Mi4yMTIxNTEsMjEwLjYyNDcxOSBDNDc1LjI5MDk3MiwyMTAuNjI0NzE5IDQ3Ny4wMzQ5MiwyMDguNzcwNzA1IDQ3Ny4wMzQ5MiwyMDUuMjk5ODIgTDQ3Ny4wMzQ5MiwxODMuMzEwMzYzIEw0ODEuODU3NjksMTgzLjMxMDM2MyBMNDgxLjg1NzY5LDIwNS4zMjEzNzkgQzQ4MS44NTc2OSwyMTEuNTczMjg1IDQ3OC4yNDA2MTMsMjE1LjE3MzUxOCA0NzIuMjU1MjEyLDIxNS4xNzM1MTggQzQ2Ni42MzU4MjQsMjE1LjE3MzUxOCA0NjIuNzgxOTE1LDIxMS42ODEwNzYgNDYyLjc4MTkxNSwyMDYuMzM0NjE4IFogTTQ4OC4xNjYwNDUsMjA2LjA1NDM2MiBMNDkyLjk0NTc1NCwyMDYuMDU0MzYyIEM0OTMuMzU0ODI4LDIwOS4wMDc4NDggNDk2LjIzOTg3OCwyMTAuODgzNDE5IDUwMC4zOTUyMTEsMjEwLjg4MzQxOSBDNTA0LjI3MDY1MiwyMTAuODgzNDE5IDUwNy4xMTI2NCwyMDguODc4NDk4IDUwNy4xMTI2NCwyMDYuMTE5MDM2IEM1MDcuMTEyNjQsMjAzLjc0NzYyNSA1MDUuMzA0MTAyLDIwMi4zMjQ3NzcgNTAxLjE5MTgyOCwyMDEuMzU0NjUzIEw0OTcuMTg3MjA5LDIwMC4zODQ1MzEgQzQ5MS41Njc4MiwxOTkuMDY5NDc0IDQ4OS4wMDU3MjMsMTk2LjM1MzEyOSA0ODkuMDA1NzIzLDE5MS43ODI3NzIgQzQ4OS4wMDU3MjMsMTg2LjI0MjI5IDQ5My41MjcwNzEsMTgyLjU1NTgyMyA1MDAuMzA5MDksMTgyLjU1NTgyMyBDNTA2LjYxNzQ0NSwxODIuNTU1ODIzIDUxMS4yMjQ5MTIsMTg2LjI0MjI5IDUxMS41MDQ4MDUsMTkxLjQ4MDk1NSBMNTA2LjgxMTIxNywxOTEuNDgwOTU1IEM1MDYuMzU5MDgzLDE4OC42MTM3MDMgNTAzLjg2MTU3NiwxODYuODI0MzY1IDUwMC4yNDQ0OTksMTg2LjgyNDM2NSBDNDk2LjQzMzY1LDE4Ni44MjQzNjUgNDkzLjg5MzA4NSwxODguNjU2ODE5IDQ5My44OTMwODUsMTkxLjQ1OTM5OCBDNDkzLjg5MzA4NSwxOTMuNjc5OTAxIDQ5NS41MjkzOCwxOTQuOTUxODQgNDk5LjU3NzA2MywxOTUuOTAwNDA2IEw1MDMuMDAwMzY4LDE5Ni43NDExNzggQzUwOS4zNzMzMTQsMTk4LjIyODcwMiA1MTIsMjAwLjgxNTY5NSA1MTIsMjA1LjQ5Mzg0NiBDNTEyLDIxMS40NDM5MzUgNTA3LjM5MjUzMywyMTUuMTczNTE4IDUwMC4wMjkxOTcsMjE1LjE3MzUxOCBDNDkzLjEzOTUyNiwyMTUuMTczNTE4IDQ4OC41MTA1MywyMTEuNjE2NCA0ODguMTY2MDQ1LDIwNi4wNTQzNjIgWiIgZmlsbD0iIzAwMDAwMCIgZmlsbC1ydWxlPSJub256ZXJvIi8+JiN4YTsgICAgPC9nPiYjeGE7PC9zdmc+;" parent="1" vertex="1">
                    <mxGeometry x="77.35999999999999" y="1084.37" width="66.28" height="40" as="geometry"/>
                </mxCell>
                <mxCell id="186" value="" style="shape=image;verticalLabelPosition=bottom;labelBackgroundColor=#ffffff;verticalAlign=top;aspect=fixed;imageAspect=0;image=data:image/svg+xml,PHN2ZyB4bWxucz0iaHR0cDovL3d3dy53My5vcmcvMjAwMC9zdmciIHhtbG5zOnhsaW5rPSJodHRwOi8vd3d3LnczLm9yZy8xOTk5L3hsaW5rIiB3aWR0aD0iMjU2cHgiIGhlaWdodD0iMjU2cHgiIHZpZXdCb3g9IjAgMCAyNTYgMjU2IiB2ZXJzaW9uPSIxLjEiIHByZXNlcnZlQXNwZWN0UmF0aW89InhNaWRZTWlkIj4mI3hhOyAgICA8Zz4mI3hhOyAgICAgICAgPHBhdGggZD0iTTE2MC4yMjcsMTc4LjUxODYgTDE4Ny44NTcsMTc4LjUxODYgTDE0My43NSw2NC4wNDg2IEwxMTMuMjAxLDY0LjA0ODYgTDY5LjA5NCwxNzguNTE4NiBMOTYuNzI2LDE3OC41MTg2IEwxMDMuOTM0LDE1OS4xMjg2IEwxNDUuNjA5LDE1OS4xMjg2IEwxMzguMDY1LDEzNy42NzI2IEwxMTAuNjI1LDEzNy42NzI2IEwxMjguNDc1LDg4LjQxODYgTDE2MC4yMjcsMTc4LjUxODYgWiBNMjUxLjMzOSw5My43NjggQzI1MC4zNTcsOTAuMjMyIDI0Ni43MDUsODguMTU1IDI0My4xNTQsODkuMTQxIEMyMzkuNjE3LDkwLjEyMyAyMzcuNTQ0LDkzLjc4NyAyMzguNTI2LDk3LjMyNCBDMjQxLjI5OSwxMDcuMzA5IDI0Mi43MDQsMTE3LjYzIDI0Mi43MDQsMTI4IEMyNDIuNzA0LDE5MS4yNDggMTkxLjI0OCwyNDIuNzAyIDEyOCwyNDIuNzAyIEM2NC43NTIsMjQyLjcwMiAxMy4yOTcsMTkxLjI0OCAxMy4yOTcsMTI4IEMxMy4yOTcsNjQuNzUxIDY0Ljc1MiwxMy4yOTYgMTI4LDEzLjI5NiBDMTU0Ljc5MywxMy4yOTYgMTgwLjcxOCwyMi44MTQgMjAxLjE3OSwzOS43NTIgQzIwMC4zODMsNDEuNjUyIDE5OS45NDEsNDMuNzM3IDE5OS45NDEsNDUuOTI1IEMxOTkuOTQxLDU0Ljc2IDIwNy4xMDMsNjEuOTIyIDIxNS45MzgsNjEuOTIyIEMyMjQuNzczLDYxLjkyMiAyMzEuOTM1LDU0Ljc2IDIzMS45MzUsNDUuOTI1IEMyMzEuOTM1LDM3LjA5IDIyNC43NzMsMjkuOTI4IDIxNS45MzgsMjkuOTI4IEMyMTQuMjM3LDI5LjkyOCAyMTIuNiwzMC4xOTkgMjExLjA2MiwzMC42OTEgQzE4OC4wMjIsMTEuMDU2IDE1OC41MTMsMCAxMjgsMCBDNTcuNDIxLDAgMCw1Ny40MiAwLDEyOCBDMCwxOTguNTc5IDU3LjQyMSwyNTUuOTk5IDEyOCwyNTUuOTk5IEMxOTguNTc5LDI1NS45OTkgMjU2LDE5OC41NzkgMjU2LDEyOCBDMjU2LDExNi40MjggMjU0LjQzMywxMDQuOTEgMjUxLjMzOSw5My43NjggWiIgZmlsbD0iIzExMkI0OSIvPiYjeGE7ICAgIDwvZz4mI3hhOzwvc3ZnPg==;" parent="1" vertex="1">
                    <mxGeometry x="-14.560000000000002" y="1050" width="45" height="45" as="geometry"/>
                </mxCell>
                <mxCell id="185" value="" style="shape=image;verticalLabelPosition=bottom;labelBackgroundColor=#ffffff;verticalAlign=top;aspect=fixed;imageAspect=0;image=data:image/svg+xml,PHN2ZyB4bWxucz0iaHR0cDovL3d3dy53My5vcmcvMjAwMC9zdmciIHhtbG5zOnhsaW5rPSJodHRwOi8vd3d3LnczLm9yZy8xOTk5L3hsaW5rIiB3aWR0aD0iMjU2cHgiIGhlaWdodD0iMjg4cHgiIHZpZXdCb3g9IjAgMCAyNTYgMjg4IiB2ZXJzaW9uPSIxLjEiIHByZXNlcnZlQXNwZWN0UmF0aW89InhNaWRZTWlkIj4mI3hhOyAgICA8ZyBmaWxsLXJ1bGU9ImV2ZW5vZGQiPiYjeGE7ICAgICAgICA8cGF0aCBkPSJNMTUyLjU3NTk5NSwzMi45NjM0NDUzIEwyMTEuNzIyMDU4LDY3LjExMjQ0MjcgQzIxMy4zODc1MDMsNjUuMzQ4MzI5IDIxNS4zMzI4NTksNjMuNzkwNzA4MSAyMTcuNTM5NzM0LDYyLjUwODg3MDggQzIyOS44MDY0NTcsNTUuNDU3MzQxMyAyNDUuNDUyMDM4LDU5LjY0NDE4NjkgMjUyLjU3NzAyMSw3MS45MTA5MTAxIEMyNTkuNjI4NTUsODQuMTc3NjMzMyAyNTUuNDQxNzA1LDk5LjgyMzIxNDMgMjQzLjE3NDk4MiwxMDYuOTQ4MTk3IEMyNDAuOTg0OTc0LDEwOC4yMDcxMjQgMjM4LjY4NDkyOSwxMDkuMTA3ODQgMjM2LjM0MzgxMiwxMDkuNjY4MzIgTDIzNi4zNDM4MTIsMTc3Ljk5MzAyIEMyMzguNjU5NTgyLDE3OC41NTQ2ODMgMjQwLjkzNDQyOSwxNzkuNDQ5Njg2IDI0My4xMDE1MjgsMTgwLjY5NTQ0MyBDMjU1LjQ0MTcwNSwxODcuODIwNDI2IDI1OS42Mjg1NSwyMDMuNDY2MDA3IDI1Mi41MDM1NjgsMjE1LjczMjczIEMyNDUuNDUyMDM4LDIyNy45OTk0NTMgMjI5LjczMzAwNCwyMzIuMTg2Mjk5IDIxNy40NjYyOCwyMjUuMTM0NzcgQzIxNS4wMjQxMDUsMjIzLjczMDg4NCAyMTIuOTAyMTg5LDIyMS45ODM0NDkgMjExLjEyNTQ1NiwyMTkuOTg4MTAzIEwxNTIuMzQwMTYyLDI1My45Mjg4MDMgQzE1My4xODA1MTksMjU2LjQ2ODA4IDE1My42MzUyNDgsMjU5LjE4NDMxIDE1My42MzUyNDgsMjYyLjAwODM5MyBDMTUzLjYzNTI0OCwyNzYuMTExNDUyIDE0Mi4xNzY1MTIsMjg3LjY0MzY0IDEyOCwyODcuNjQzNjQgQzExMy44MjM0ODgsMjg3LjY0MzY0IDEwMi4zNjQ3NTIsMjc2LjE4NDkwNSAxMDIuMzY0NzUyLDI2Mi4wMDgzOTMgQzEwMi4zNjQ3NTIsMjU5LjQ4ODQ4MSAxMDIuNzI2ODAyLDI1Ny4wNTQ0NDEgMTAzLjQwMTgxLDI1NC43NTUzNjIgTDQ0LjI3MTQ4ODcsMjIwLjYxNTQ1NCBDNDIuNjIzODI1NywyMjIuMzQ0OTMgNDAuNzA1Mzk0LDIyMy44NzMzNzggMzguNTMzNzE5NiwyMjUuMTM0NzcgQzI2LjE5MzU0MywyMzIuMTg2Mjk5IDEwLjU0Nzk2MiwyMjcuOTk5NDUzIDMuNDk2NDMyNDgsMjE1LjczMjczIEMtMy41NTUwOTcwMSwyMDMuNDY2MDA3IDAuNjMxNzQ4NjIxLDE4Ny44MjA0MjYgMTIuODk4NDcxOCwxODAuNjk1NDQzIEMxNS4wNjczMzk3LDE3OS40NDg2NjkgMTcuMzQxODM1NiwxNzguNTUzMjIyIDE5LjY1NjE4NzYsMTc3Ljk5MTY0NiBMMTkuNjU2MTg3NiwxMDkuNjY4MzIgQzE3LjMxNTA3MTQsMTA5LjEwNzg0IDE1LjAxNTAyNTcsMTA4LjIwNzEyNCAxMi44MjUwMTg0LDEwNi45NDgxOTcgQzAuNTU4Mjk1MTg5LDk5Ljg5NjY2NzcgLTMuNjI4NTUwNDQsODQuMTc3NjMzMyAzLjQyMjk3OTA0LDcxLjkxMDkxMDEgQzEwLjQ3NDUwODUsNTkuNjQ0MTg2OSAyNi4xOTM1NDMsNTUuNDU3MzQxMyAzOC40NjAyNjYyLDYyLjUwODg3MDggQzQwLjY1NTEzNzQsNjMuNzgzNzM2MSA0Mi41OTEzMjY5LDY1LjMzMTM5MzEgNDQuMjUwNzQxMyw2Ny4wODM2NzU2IEwxMDMuNDEyNzYsMzIuOTI1NDY2NCBDMTAyLjczMDcxOCwzMC42MTU0NTMyIDEwMi4zNjQ3NTIsMjguMTY4NzUwMyAxMDIuMzY0NzUyLDI1LjYzNTI0NzggQzEwMi4zNjQ3NTIsMTEuNDU4NzM1NCAxMTMuODIzNDg4LDAgMTI4LDAgQzE0Mi4xNzY1MTIsMCAxNTMuNjM1MjQ4LDExLjQ1ODczNTQgMTUzLjYzNTI0OCwyNS42MzUyNDc4IEMxNTMuNjM1MjQ4LDI4LjE4MjYzOTMgMTUzLjI2NTI1OCwzMC42NDIyNzY4IDE1Mi41NzU5OTUsMzIuOTYzNDQ1MyBaIE0xNDYuNDEzNjM4LDQzLjQ4NDg3MTMgTDIwNS43MDA1NTUsNzcuNzE1MTkzIEMyMDMuODY3ODk5LDg0LjE1MTY4ODggMjA0LjU0MDUxNSw5MS4yODg1NjM4IDIwOC4xMzc2OTQsOTcuNTQ2MTU3OSBDMjExLjc0NjYwMSwxMDMuODI0MTUxIDIxNy42MjU3ODMsMTA3Ljk4NTc4NSAyMjQuMTUwNTQzLDEwOS42MDc2NTQgTDIyNC4xNTA1NDMsMTc4LjAxNzg0MiBDMjIzLjgxODAzMiwxNzguMDk5NDYzIDIyMy40ODcxOCwxNzguMTg3Njc0IDIyMy4xNTgyMDEsMTc4LjI4MjQxOSBMMTQ1LjcyNTI5LDQ0LjE2ODYxODIgQzE0NS45NTkwMTcsNDMuOTQ1MDQ2OSAxNDYuMTg4NTEsNDMuNzE3MDg3NiAxNDYuNDEzNjM4LDQzLjQ4NDg3MTMgWiBNMTEwLjI5MDkzLDQ0LjE4NDEyMDMgTDMyLjg1OTMyNzksMTc4LjI5NTY1NiBDMzIuNTI0NTU5LDE3OC4xOTg0NCAzMi4xODc4NjExLDE3OC4xMDgwMTUgMzEuODQ5NDU3MywxNzguMDI0NDM4IEwzMS44NDk0NTczLDEwOS42MDc2NTQgQzM4LjM3NDIxNjgsMTA3Ljk4NTc4NSA0NC4yNTMzOTkyLDEwMy44MjQxNTEgNDcuODYyMzA1NSw5Ny41NDYxNTc5IEM1MS40NjY1OTksOTEuMjc2MTg5IDUyLjEzNDc0OTcsODQuMTIzNDU4MyA1MC4yODg1NDI2LDc3LjY3NzAxNTcgTDEwOS41NTg3NDcsNDMuNDU2MzQzNCBDMTA5Ljc5NzkxMyw0My43MDM4MDE5IDExMC4wNDIwMjcsNDMuOTQ2NDQ2OSAxMTAuMjkwOTMsNDQuMTg0MTIwMyBaIE0xMzUuMTYyNzQ5LDUwLjI1OTc2MyBMMjEyLjU3NjgxNywxODQuMzQwOTI4IEMyMTAuODQ0MjQxLDE4NS45OTI3OSAyMDkuMzE3Mzc2LDE4Ny45MTc1NSAyMDguMDY0MjQxLDE5MC4wOTc0ODIgQzIwNi44MTg0ODQsMTkyLjI2NDU4MSAyMDUuOTIzNDgxLDE5NC41Mzk0MjkgMjA1LjM2MTgxOCwxOTYuODU1MTk4IEw1MC42Mzk1NTY0LDE5Ni44NTUxOTggQzUwLjA3Nzk3OTgsMTk0LjU0MDg0NiA0OS4xODI1MzMzLDE5Mi4yNjYzNSA0Ny45MzU3NTg5LDE5MC4wOTc0ODIgQzQ2LjY3NzY3MTMsMTg3LjkzMTQ5NyA0NS4xNTM5MjQ4LDE4Ni4wMTc0MjggNDMuNDMwMDI5NywxODQuMzcyNjY3IEwxMjAuODU4ODIxLDUwLjI2NTk5OTMgQzEyMy4xMjQ5NDEsNTAuOTIwMDgyMiAxMjUuNTIwOTE1LDUxLjI3MDQ5NTcgMTI4LDUxLjI3MDQ5NTcgQzEzMC40ODY5NTIsNTEuMjcwNDk1NyAxMzIuODkwMjY1LDUwLjkxNzg1NDcgMTM1LjE2Mjc0OSw1MC4yNTk3NjMgWiBNMTQ2Ljk1ODA4NCwyNDQuNzM3OTk1IEwyMDUuODYwMTA3LDIxMC43Mjk4OTkgQzIwNS42ODMzOTgsMjEwLjE3NDkyNCAyMDUuNTI1NDgzLDIwOS42MTQwOTYgMjA1LjM4NjY0LDIwOS4wNDg0NjggTDUwLjYwNjc2NDMsMjA5LjA0ODQ2OCBDNTAuNTI0Njg4OCwyMDkuMzgwNzkyIDUwLjQzNjAwODQsMjA5LjcxMTQ3MiA1MC4zNDA3NzkyLDIxMC4wNDAyOTUgTDEwOS41MzE3ODIsMjQ0LjIxNTIzOSBDMTE0LjE5MjI5OCwyMzkuMzc4NTQ1IDEyMC43Mzk3MzksMjM2LjM3MzE0NSAxMjgsMjM2LjM3MzE0NSBDMTM1LjUxODM3OSwyMzYuMzczMTQ1IDE0Mi4yNzIzNTIsMjM5LjU5NjA0MSAxNDYuOTU4MDg0LDI0NC43Mzc5OTUgWiIgZmlsbD0iI0U1MzVBQiIvPiYjeGE7ICAgIDwvZz4mI3hhOzwvc3ZnPg==;" parent="1" vertex="1">
                    <mxGeometry x="-59" y="1050" width="44.44" height="50" as="geometry"/>
                </mxCell>
                <mxCell id="45" value="" style="shape=image;verticalLabelPosition=bottom;labelBackgroundColor=#ffffff;verticalAlign=top;aspect=fixed;imageAspect=0;image=data:image/png,iVBORw0KGgoAAAANSUhEUgAABLIAAAE1CAYAAADzkck+AAB65klEQVR42uzdCXxcZbk/8N9zzmRpUko7k6UpbdPMpGwFyo7sFAqyKaIU9YIKiGgnaQoVhQtqCF4FLLQ0zUwVkEUQsYqCsvxZy64gyFrWzKRpoWmWme7NMjPn+X+SVihYsjUzc87M7/u5fK6F6Zxznvc573nfZ855jwtE9DFfoOMMiHGdQPew715Ku6ouCrXVX4O6OoutRkRERERERNlCGAKirXyBjhkQ43GBGk7YXwuoDfs9V7PliIiIiIiIKFsYDAHRNmLMcUoRq293IRez0YiIiIiIiCibsJBF9IkKJ+2sQMd5rw3tymYjIiIiIiKibMFCFtEnHPeobSLP4OPBRERERERElDVYyCIiIiIiIiIiIkdgIYuIiIiIiIiIiByBhSwiIiIiIiIiInIEFrKIiIiIiIiIiMgRWMgiIiIiIiIiIiJHYCGLiIiIiIiIiIgcgYUsIiIiIiIiIiJyBBayiIiIiIiIiIjIEVjIIiIiIiIiIiIiR2Ahi4iIiIiIiIiIHIGFLCIiIiIiIiIicgQWsoiIiIiIiIiIyBFYyCIiIiIiIiIiIkdgIYuIiIiIiIiIiByBhSwiIiIiIiIiInIEFrKIiIiIiIiIiMgRWMgiIiIiIiIiIiJHYCGLiIiIiIiIiIgcgYUsIiIiIiIiIiJyBBayiIiIiIiIiIjIEVjIIiIiIiIiIiIiR2Ahi4iIiIiIiIiIHIGFLCIiIiIiIiIicgQWsoiIiIiIiIiIyBFYyCIiIiIiIiIiIkdgIYuIiIiIiIiIiByBhSwiIiIiIiIiInIEFrKIiIiIiIiIiMgRWMgiIiIiIiIiIiJHYCGLiIiIiIiIiIgcgYUsIiIiIiIiIiJyBBayiIiIiIiIiIjIEVjIItpGVLc4bZ+bzXgnW46IiIiIiIiyBQtZRNuoyBOO2l/gOdRM7WbLERERERERUbZgIYtom3UbrV8p5GVn7K20W4hXsdWIiIiIiIgomwhDQLSd2uW5laWlZ6vKvjAkz267p6oJWGju7Oq+u+XSCR1sMCIiIiIiIiIiIiIiIiIiIiKb4aOFRERERERERETkCCxkERERERERERGRI7CQRUREREREREREjsBCFhEREREREREROQILWURERERERERE5AgsZBERERERERERkSO4GILU8S5qn2rkyF5q0wJiImE1rZhT8vqQjuna0K5G4dgvqKmj7HhMmsCGnljnPz6cN6lzsH9ncrDVa6o5zRCYtkwkS1eGqotf7T08nlVERERERESUTYQhSIFZS03fjJm/Feh37L6rCnlSN6z9avhy3/qBPuttiH5DTNwiqoW2PiaRVo3ja+E57uf7/WBtreErrQkI8AP7txOe77S6zlhdvVuEJxgRERERERFlCz5amAK+GTPnOaGIhb7Kph4vY8YtGOhzk+rbfGLgd3YvYvUdk2qpYeKvpfPX9LuvlSVzfuCEItbWdsKR+ZIf5NlFRERERERE2YSFrFQQfM1Zu6tnDfSZPNP8skBznHNUWjy6IPfofj8hhrPaSeRMzFpq8gQjIiIiIiKibMFCViooxjtsj8cMfEjY1XnNoAO1g8dJxyPQnPIjDtmFJxgRERERERFlCxayiIiIiIiIiIjIEVjIIiIiIiIiIiIiR2Ahi4iIiIiIiIiIHIGFLCIiIiIiIiIicgQWsoiIiIiIiIiIyBFYyCIiIiIiIiIiIkdgIYuIaLhql7l8wY6qiQtWjWIwiIiIiIiIko+FLCKiYfKW7HelQBry8wve8wai3wQgjAoREREREVHysJBFRDQMFfWRQ0Xkp9v+OMkQvdsXjDznXdxxMKNDRERERESUHCxkERENUVnt6gIjR+4UqLn9vxfgCDHlJV8gelt5oG08I0VERERERDSyWMgiIhqigtK8G0R19x39NwFERM9ziet9XyBSjVlLTUaMiIiIiIhoZLCQRUQ0BL5g9BQBfjDQ5wS6iwgW+2ac8JQv0FbJyBEREREREe08FrKIiAapfGHTWAC3DuXvCHAUDNdrvkDHtxlBIiIiIiKincNCFhHRIOXkjbleoENe+0pUC0XkDl8wevvEBatGMZJERERERETDw0IWEdEgVCxpPxrAd3fmOwT6nfz8wufLF7ZMYUSJiIiIiIiGjoUsIqKBzFpqGmouHpkv0wNy8vJe9DVED2dgiYiIiIiIhoaFLCKiAXiPm3mhQKeP3DdqiRh4sjIYmcXoEhERERERDR4LWURE/SirXV0ggqtG/ps1XyH3eJd0zGaUiYiIiIiIBoeFLCKifhSU5s4dzgLvgyFQw1AJ+pZErmCkiYiIiIiIBsZCFhHR5yhf2DRWIJclezui+IUvGP05I05ERERERNQ/FrKIiD6HmTtmDoBdU7Etgf6kMtBxOaNORERERET0+VjIIiLageJA22gRmZvSjYpc4wtGf8ToExERERER7RgLWUREO7CLmBcK1JPq7Qr0V95gx/+wBYiIiIiIiP4bC1lERJ9Vu8xlCH6Yrs0LjNsrGtqPYUMQERERERF9GgtZRESf4S3Z78tQTEzX9gWaY5jG/eWByF5sDSIiIiIiok+wkEVE9BliiD/t+6AY6zLkPs91HbuwRYiIiIiIiLZiIYuIaDtTgh17iOoJdtgXUd197Gjj1r6btIiIiIiIiIiFLCKi7ZlizLbT/ojoWZWByMVsGSIiIiIiIhayiIg+MWupKQrbvTFQRX5VUR85lA1ERERERETZjoUsIqJtKo85YSagxXbbL4G6DJfcVTp/TSFbiYiIiIiIshkLWURE26gh37Drvgl06ujC3F+ylYiIiIiIKJuxkEVE1Kv+gzwR/aq9d1LneBdHj2RjERERERFRtmIhK0WzT4Yg/UTYDvT5fOa4kwGMsXUOA2KY+hvULnOxxYiIiIiIKBuxkJWKyadqi5P2VyFrB/yMIuq0dkgoWgaoEnQ4LLO6m9fdvoFn2EiF0zjDIXs6zVc6vYYNRkRERERE2YiFrBRQ4G5HzecVfxjwQ4nu+wDpck4byGpt2/BMv59R/b2T2skS/BF1dRbPsJFJewhOdc7Oam3Z9auL2GxERERERJRtWMhKgVCVJ6Aii9QBjxgq5C8bt/T8eKDPhedOWGkhcZZCIrY/JpEmWIkvNddV9Ft4C/s9tytwnUIS9m8nPIz1a3lXzggpr2/fX1RLHbTLY0aNyq9lyxERERERUbYRhiCFk+VA23hDZXdD7VlAjMfjK5ovKVsxpGOqbcpH6Zj9XQkr35ZBN7ExtGzZa/jT2YMuTo2vbykeZbj2sms79aiuWlVTEuIZNXJ8weilAp3vpH1WSExjXZXhuRNWsgWJgLLa1QW5Y7tzmy+pWMdoEJFdea8N7drZOSrWUjdhC6NBRDQ8LGQRUdbzBSMPCHCa0/ZbIbeG/O7vsgUpK8/bhujhMPF1AY5WxZ4CLdh2XiQgWAnVF9WS+8PtLX9B3bQeRoyIUq621qgorj7VEPNrEBwJoEKgrm191SYIlouly2KW3tE8p+hdBoyIaHBYyCKirO8HK4ORtQB2ddqO907YNdbl5V1ZlE18wfaDAONGAY4a5Hmypnc6GfK7b+ZbhIkoVSqDHV8GjAWA+gbZV92rsa55vKYTEQ2Ma2QRUVYrX9yxhxOLWNi66LtpuPIuZitStvAGInMB85+DLWJtO0/GC/Q3vmD0/5UvbBrLKBJRUtUuz/UGIjcBcv9gi1jb+qqvSW7e6xUN7acziERE/WMhi4iymsuUw5y8/2rIRe76yBi2JGU6XyB6tSG48T+P5QyVQE9y5Y15dnx9SzGjSURJUbs811dadq8h+N6w+inFWMMw768IdJzDYBIRfT4Wsogoy8lBjt571cJxJr7NdqRM5mvo+JaI/nSnzxdgn9Fm7v246OUcRpWIRryvKi37tUBP37l+Sg1DjNumBNuPZUSJiHaMhSwiynb7OP0ARPADNiNlqskL28tgGIGRO2FwuHf/iv9lZIloJFUGI7MEev7IdFOaY8K8m3dcExHtGAtZRJTdBHtnwFFMqwh0HMLGpEzkyjOvFOguI3vay+Vl168uYnSJaETULs8FcMPI9lM6YaxLLmNwiYh2MD60645VNLQfI4ZxhkA8Nt3F9WrhkXC1+6HBfNhzXccuu46WC6Rv0ix59pvLa1wF4ViXddvKS4pbBvvXKhraTzMM8yQAtvzFSEXbEZf7wnPczw/m86Xz1xSOLnSdB8h+dmwnAAlVXSEit4f87lWDG1wtc3lLps8S0aMBKbBfI0EV+Ahx3BOe634rlZueHGweJ6qlmdCZG2KcC+BfvKxRJpm4YNUoEZw30u8aFOiowlG5FwK4llEmop3lLS77KqCTRnx8LupH/QdXo2ZqN6NMRLT9WM6GfEsiV4jiF04IoEIWh/zumn4vbvPXlEhh7nMCneqA41lrIXZck7/0jQEv2sHIzQZwoSPaSeXSUJX7hgEmTO78/IJnAUfcobMhEceJTTWel/r9VO0yV2Xpfg8A+KIDci8u0P9p9Hv+lLK+pqH9QDGMVzKhM1eR1tCaRRNQV2fx0kaZwheMniLQh5L09f9s9HsOZ5SJaAT6qr8I9MxkfLdlyWmD/eGciChb2O7RwsnBVi9UrnZKAAU6x9cQ7XcgbBTk1jqhiLXteMaZyFk00OemBNuPdUoRa9uBXTtxQWS3/j6Sl1dwmUOKWL3GGC5ZPODAqnS/c5xQxNqWey6F/Br1H6TuTjhDJmdKZy6qpd6iuZyUU0ZR1UOT9t2Qg1C7zMUoE9EIDGKOSOJs7SgGmIjos12jzbhgfkGgpsOieNQAM0xHvXVEgSMH+owpxpHOGl+oKycP/U/yDTnWYcd0aHltU/4AbXmUw47JXeEas0fKct3KnELW1g5Uv8LLGmXU3FCSd44KNGc3z37jGWUi2hml89cUJnOZAgNaySgTEX22b7QblVzHRVG1sP9igox2WDFh4NeSW3BcOwnQfzso8h2Xe2P732eBOO4V85aKkcJZcklGTfodcvcd0RC4k/nlOZLwMMREtDPyXVqc3KmRuBllIqJP41sLiShriWhGTWJFsW/Fja2lbFnKFKrJXctTDXuuFUpE9ElHBT4CTUT0GSxkEVE2T5Iz7ldOceXMYMsSEREREVGmYiGLiLKY5GXcERnggu9ERERERJSxWMgioqwlgsIMPKwvsGWJiIiIiChTsZBFRNksJ+OOSLA/apdxPQ0iIiIiIspInOwQEWUQUc0tL9q3shl49/M+UxxoG11gGRNdpuFWC2NVrHEGZBxEd4FufdxSBbuIiCmWWgps2PrliAO6VoG1AmNtwtJozMJHHz37RAv+dHaC0SciIiIiomRjIYuIsllPJh6UaRgHeBdFXTB1qhhSqdDdBVIOYJJAJwAYAxN9r0KSvvty//PiNvn4f/b9P9Xt/9XHn9n6Z4XLQN8/vhkzE3J8pEVVmhT6nqF4Gxbe3qQ9/15TU9bONCMiIiIiopHCQhYRZS1VbJEMfPm+IXr3Jw9N6seFp2QRqAnFRIFOFODovg2awGjkwheMrBTgRVU8o3F5KjzXvTypO0NERERERBmNhSwiyloi2skoJDnGwGQAk0UwS3IUlcFomwIPAtbfurs6H/lw3iS2ARERERERDRoXeyeirKWQCKOQ8qiXCPR8gfw1b1Rhe2UweueUQOQk1NbyekRERERERAPixIGIspYALGSlM/6qhYCe6xI84hs/t7Ey0HH55GDzOEaGiIiIiIg+DwtZRJS1FGhhFOxBVCsgck2O7LLKF4z8quz61UWMChERERERfRYLWUSUtUSxglGwW5tooQA/KizIa/QGIz8rq11dwKgQEREREdF/sJBFRFkrblksZNnXrgZQV1Cav9wXiJ7McBAREREREVjIIqJs1tzRGlZIgpGwL4FOEdGHvcFoA2qX5zIiRERERETZjYUsIspeddN6BPoeA+GEi5VWVZaOf7o80Dae0SAiIiIiyua5ARFRFlPgDUbBMb7gEtcrUxoihzEURERERETZiYUsIspy8m/GwEGtBZ1gmvJMZSDyXUaDiIiIiCj7sJBFRFktDn2WUXAWUc1VkSsYCSIiIiKi7MNCFhFltebWNf8GpIuRcBZRXcooEBERERFlHxayiCi71U3rUcHzDISzWFb8bkaBiIiIiCj7sJBFRFlPVR9gFBzUXpD3wnNK32QkiIiIiIiyDwtZRJT1LOjDjIJzKJR3YxERERERZSkWsogo663wF70H4G1GwhlEEyxkERERERFlKRayiIgAWIp7GAX7U8iToaqSRkaCiIiIiCg7sZBFRAQgluBdPk5giQYZBSIiIiKi7MVCFhERgFU1JSGFPM1I2JdC3mtaU/9XRoKIiIiIKHuxkEVEtI0qfsMo2LmBrF+irs5iIIiIiIiIshcLWURE24TbWu4FpJ2RsB8VvBlqW3wXI0FERERElN1YyCIi+o+6aT0qeiMDYT+akMt5NxYREREREbGQRUS0nXjXhqBCNjES9qEifw9Xux9iJIiIiIiIiIUsIqLtNF9SsQ7QACNhDwrptBLdcxgJIiIiIiKCHQtZIlDHRVEQ7/8/I8ZUs8OEWGMDtJPjHlvaaI7ho1ZJEO/ecC2A9YyELfysqbqsmWEgIiIiIiLYsZBliRV2WhBVJdTvf4d+4KjjEWkaxKec2E6NA3yi0VlHJO3RGs+G/o9ZmxzVRoAaMW1J93703ZWlei0vEWk/Z58JtS5awEgQEREREdF/2K6Q1TS7+DkFXnDOxFve6+nefN8As7H5CrGcM3nErwb6zJa2nj8rJOygdnpyRbXnpX4/Y8lChcSdc0wDt1NPN25RyFrndElyW9PFpa122JOu7s5FClnBy0TarLe0+9tc4J2IiIiIiLZnxzWyNN694TSF3Grz1+CvV+CenoR1/IfzJnX298FQVdEyAKcr5GUV6bHjwSgkriLvq8pFYb/71wN9vqVuwhYAxynkXns/giXtCvx6bVzP3Fr76aedqt3/ULVOVsi/AOm2aTslAAmpYk7I775hoM9/OM/zkSZixyrkURXZbM9j6j0sfGhBfhlqbZltl/3qPa8F1lxeJtLDUpnNRwqJiIiIiOi/ZvkMARHR56hd5qos3e81ANMYjNSxIIGw313NSJA3EL3PED0jWd8f08QBzVUlrzHSRDRc5QtbpuTk5SZtKQeFPB3yu49jpImIPuFiCIiIPqN2mctbMn2WGLgKqrszIKmjKs+E21rmMRJERERERLQjLGQREW0zvr6luMDMO98QrQZ0kgPfoepw0tipnV9F3bQexoKIiIiIiHaEhSwiymoTF6walTOq4FRD5RwApws0h1FJB2lXjZ+yunq3CGNBRERERESfh4UsIso6vmB0kmXpiaaBk1XkVFEtBG+/SqcNaiVODlWXNDIURERERETUHxayiCjjVdzYWmrmmocpjBkAvijQvcxt72wVZQErzTbELZy0orr43wwFERERERENhIUsIsoo5YG28aZl7C2mcaBAD1XIoQItR99rWlm0spltRSzPiwxFUsjkhe3jjRxjssAqNiDjFDJOBG5sfROWSwyMhmI9VBWi3aJYnwDWm5Z0WJZ81GV2tvBxzyxRW2tM3LWmzMzHJEO12ADGqYhbFGP78kUkx1AdpcCGvs8b6FGVqABrE6prTZWP1m22VkYuK9rIYGa+iQtWjXLlj5psJLCbGuI2RNwKjBPVUX35YqBQLFgAOrd1RxsFui5hYJ3EZU0CPaubdeNq1EztZjRp2GO+2qZ8s2jXgwzDmm5BikUwCoINSEhjl6UvfFTj+ZBR2mbWUnPSMceX5liGW3MT4wxL3CKSaykKt/+YApsA7RZYa+MJMypmItpcVdIKProw5DGYd1F0Glx6MIBJAoxWYIsY8pHGrdfCzzz5Kv50dsKuO++dv6bEyjfKTNM1QWB5VGUsBGOhcEHEVGiBKDZCEO/NGYHGVGUzxGrXuNFuuKQlFI+0JbOPF+YYETlK/Qd5PpenpPeiYKlVYYhUAL3/6B6A7C3QcQyS/alIq8ZjJ4bnlL7JaIzAgGNR+1R1yaGGyL4Q2VsUeysweYTWfNsAkUaFvqcqr4vi9S2dXS+3XDqhI+nHFYjeZ4iekazvj2nigOaqkteybXBdvrhjD5eBQ9WQfUWxV2/OQHsH2joSP3CuV8gHAJb3/mNZ+tp6Cy9GazwbeKY6T+n8NYUFo80DRY2DAEwTYG9Adhdo0QhtYlVvvijwTm/fAk28Enqj+U3cdHDMMcWUhS1TcvJym5J2vYQ8HfK7j2M2bhfzxWsqXGbO5QJ8A8CYfmL3L4FV37jsyT/YuWgwksquX11UmJd3kGVir63nrOyBvh90ZcJw+3gV6YHiQwDNonhHxXobCV2+bou8wh8vPs1dHxkzzsQcCC4SYHI/udmiilt7ujcv+HDepGi69nd8fUtxoZl3EMQ6AJDp6MsXVAp09MiM97Fua+5Io4o2iqVvQo1XQk8//u7OnpODKmRNCXbsYaqcCMhBEJRv6zB4NxcRpdLYbUWqMQyFsynk3Xh39ynNl5StYDSGx7souo/h0hNVcAIghwvUnYZ2fE+gz1mWPN6FzseScecWC1kjQsoDbdNd4jpRoCcA+AKAXVObK73/J+8C+pQqHk/0bHiy+ZKKdTyT7ad0/prCwkLzOBHzRCiOBbCvQM0Up2y3Av8E8LRlJZ5oenrZ83YuQrCQlcJY1zbl55SMqVWRHw7lhxqFvBJX/VZzleedTItJRUNLuWHmnQjVGQI5DFBfKvt2Ad62gH8AumxLPPbYmpqy9mzNz4pAx5cMMW4S6Pgh5GZELVSHq933pGIfJwebx+Vgl5MUOlMgR0vfjQBpmAuIbBbV5xTyuCZijwznh+3+CllSGYycpZBLBXoou04iIhqBAfljMWz8+kp/+VpGYwhmLTUrjp9xhFjm2SI4U6C72atd+wazL6rKn+NWz1+a54wfkUkdC1nDVLvM5S3Z91iBzIIhXxHVUpv1AxaAZwG9tyeh966aU7SaJ3n6eOevKZHRuV8W1d5x//F2e3tv3y/6wMMWcG9TLPqA3R5HZCErRUWCJe1HGzBvEdXdhztxthJ6ZlO15zGHh0LKg5HDTMVZIvJlgU61Wf/+mqr+JZ7AvStrPG9nS376ApErRfB/w/37FuSasN99ZTIe4Zy0uGNCrilfQ++YADhSoIYN07pRofdqzPpteG7xB4P6Gzs82Po2X67LvEOAI3l5JyKiERncKH4VeuqJK7Ll9v4RGbg3tO9uinG+inxHoGWOaWvgeYjcvm6D9cedeeyAhawhDqQbotPU0AsMyLcALXZIriggyyy1brXaNt7bXFfRxTM/BS56Occ7veJLInI+gFNSf9fVsG1Qlb9AcHPI737BDjvEQlZyuesjY9ymXANR/wjEshPATLvkzpCuh4vapyLHPM+Afqt3uu6M/l3eBXBrXON3NleVrMnUHPUGo5cZ0Gt39nsslV+Eq9w/GZGdqv8gz2t4zhQD3wX0BHHQklIKeVTV+lW4quiJ/j73XwfkC0RPhuBPI/VcJBERZbe+26aR+E7YX/wgozEItbVGRXH1qYZhzhPoDIe3/SZV3G6J1bDCX/TekAeHLGQNbNZSs+K4E840BBc7/QdIFaxT4BZRqQ/53avYGSRhwjV/TYkU5PhFxO+UYufn9y94Cyr18bb1d6azAMpCVhLztSF6qmHor0eycKOQjzqtzumOeJFJba3hLan5iojUCPRYB48F4gAesKzEwqbq4mcyKUcrF0e+qCYeHqlCUUJwVtNsz73D/fu71Ucm5rnEL8D307HsxAjnzeMWYj9s8pe+saP/Lp/tLMTAfXa7pZiIiBzrke6EXsBHhwYzYF3m8pbsd64Y8r/DfXTCxhNOBeQ+IPGLkL/4lUFPYljI6idflud6S8suEOAygU7JrHyRBESXxmL4v2x6NCWpBYFFqyeLK+8KETkP0LzMOjppg1oL18NqaK8q2ZTqrbOQNfImNHzkKTBG3Qjoucn4fktxc7jKc5Ht+3fBj0W1IsP691fUwvXh9kVLUVdnOflYJi5YNSovv+Dd/hZ1H05/Zm1Yu3v4ct/6IfVDizv2dJnG5QDOGaEXt9gjX0R6YOnVobY3rkPdjPinIvWf/+FriE6DgZcEWsDLPRER7aT1luLicJXndoZioAFrreErmXOuiPGzVC7SmsZByd+1B1eE57rfGnDyzULWDvJlmctXOv0Cgf7EKY+XDH/C0zvnwT09scRPV9WUhNhZDGeiFdktLw8/hcgFmf5Ddd/dv4pf9XRvXvzhvEmdqdouC1kjyxeMfh1Awwi+GXNHMU30xON72K5f2VbAMqBXZHr/DuBthV4Z8hfdn4x1oVKTq5E5AtSPfH7qFSF/0TWD2odAWyUM82oovuGkxweHcc4+qhvWnr19gc/4z6BIDNzJIhYREe0sC3Jnoie+B4tYA/MG2o7ylc59SUTuyIYiVi9R/ZLk6Bu+YPTWihtbS5kFg1fREDnRV7rfqwL9TRZMcnpH5CKKb+a6XO94l0Tmly9sGsssGJyJC1aN8gYjP8vLl/dF+h4xycn8fFGPIXpdXn7hO9uKIeSonI3sVhmM3i/Qe5JZxNqWK2auy/y+vfr39tN9pWVvGdAl2dC/A9hbIH+tDESeLw9GvuDQXueC5HyvceEg+ni3NxhtgLje7r1OZnIRa9s5e5KMGfvc+PqWjx+J7ytkeUumfxfQA9iFEhHRcKnIi1ZCjgr73d9uuri0lRH5fL0XYl8w8ntDzGcFelC2HX9fgQJ6vpnret8bjFyMWUtNZkX/EzxfMPoX08CjAuyTffmiOYbiUlferh/4Ah3fZkYMMCEOdHwpP7/gPQOoy8YfqQVaLtB7KoPRZRUN7bszI+zfZL5A9Hv5+VgO6JdTuNmv2OHgfYG2Sl8w+ohpGH+32xsIU3TCHp4D/KMyGL1z+yKF3ZUH2sYLdP8k9WHevjutdqS21vAGoz/Iyy9sNKBV2bQkVO/4p9CV9yDqP+h7PN7o/XciuJx9KBERDYdC3rEsfDU02314eI77eUZkoEFrx7cLXXnvCPA/jAbGGMBC34yZ//Quiu7DcPz3uM0biH4/Px9vC/TMrA8GtEhE7vAFo4+VL15TwfT4NO/8NSW+YOQeU+RvWXJHx0BXp+NMw3zDtyRyBWqXuRgP+5lU3+arDEafFNGbAOya4v5kqrs+MiZtB1+7zOUNRH8Mcb0h0JOYDXpuoSvvXaf8WGGouW8yv98yzOn/1ccviu7jGz/3BQO6RKDjsnQccIjP9FzZ1wYVDe1HZ9oioURElIIhB+TlhOCsUOuifcLVnr86dY2DVJnQ8JHHF4z+tXciLlAPI/KpgcnBkoNXKwMdl/PurK0mL2wv8wWj/8+Qvjd2jWFEPpUvM12u3De9wcj5jMZWFYGOL0lh7nIB+Ejdp69UeaL4RWXJfs9Mqm/zMR42MWup6QtEf5jrcr0JaNrW/xpnSFoKvn13YZVOf8EQvU6go5gQH/ft7r4fKwKRB73z15TYel8FuyX1+y1M/PT5ErlScvGKqB7GRMEPy65fXeQyxTiFpw0REQ1qSgCJQ3GfWtaS8BzPk4zI4HgXdxwvhnGnQCcwGp87gHVB5BrfcTNP6To6cs5HNZ4PszZfgu2nCczbk71OjKPzRbVQgFt9wehpMWz83kp/+dpsjEN5bVO+q3TMAgFm87eEfjuYw3NzXK9XBDq+31RV9HsGJI3926LoPpKDWwV6SLr3JS7xnNT375HzIbK4tw9jNnzO6So4VQpz3/IG288P+4sftGeXgtFJ3kDfmlflC1umuPJy7xLgSCj7+G3jxYKCgrxvGipyMMNBRET9Uci7qvhJrDsxOVTlnhWeU8Qi1iCvt95g9DIxjcdYxBrsAFaPyXfJqxXByMysO/jaWsMXjP7cgPEAi1iDHtB+LUd2eWXK4rbp2XbsFQ0t5a7SXZ/dWsSiAXNFtdAUuasyEA2gdnkuI5Ji9R/k+YLROsnBq3YoYqHv8TDZkqptldc25fuC0VsN4FYWsQY18izuvRZWBiLX2PFObRUk/XFlX6DjDFd+7qt9RSz6rFNcAnCNASIi2sFFWt6HpffFkfhDc1XJa4zI0JTOX1M4ujD3jt6JNqMx5OJEkQF5BIKsucumfGHTWDN/zB9E9WRmwJALFBWm6fpHZbDjokZ/0V3ZcMy+QMcMiLGUBc9hJYzfVzp+f52/5szwj8a3MSAp6N+CkS/kALcAOs1O+7WlM/FRKrZT0dBSbhh5fxYobyAZ+oDgct/xMw/pPPajr6+u3i2SLYdtAN+DyN680fZzE2O6i+suEBHRNutV8bwCj8YSiQdW1ZSEGJLhmbywvSw333wAqgcyGsMdu6oBICvWEts2yXlYVPdiyw87X0YBcqcvGN0j5Hf/LJPX7PMGIudB5KZselvVyOcLjkBh7ouT6yOnrazxvM2IJEdZ7eqCgvH5v4RiDrb26XbKglDrj8ZvTvZWfMH2gyDmg6JayowYZkupnjDKGPXSlGDHqSv8Re9lyWHvzZbv95o/wQCUt9YSEWXfJaAbIv9WldsVWp1AfHpja707VOU5LVzlWcQi1vBNro/snZNn/JNFLBrsJMcw814UsIg1QoPbn/iCkbsy9dExXyBylSG4jUWsEcmVKTkueaaiPnIoozHyKoKRmQWl+ctFda7YrogFKPSxpMegof10wHyGRawROV+9Jox/TAm2H8toUC+XQmLCe9aIiDKKCtaJSocCUQHWqKBJVVcY0HBPXBpXRl5/H3Uz4ozUCA9aAx2HGCIP8XEfGuQk5xiB8Xeo8u74EZ3w4H98pWXFW2pXf6WlbsKWTDksXzAS4HpYIz459pgu+XtFQ8uhTdVlzYzIzitf2DTWlbfrDQK9wM43Rlpx3Jbk8cA5hhi/s2MRz8Hn6zgT5mO+QMesUFXR/YxIFs9zIDEXgM0AOOAmInIAy5LTErHurY9BuHLyYVj56Ems6/tzrtmFns1dzetWbGKRKvW8i6NHGqIPASxK0CAmOQ2REw1D7gdfvZ6sCc+JBaV5j3qvDZ0Wvty33tEHM2up6Ttu5i0CPY8tm5QpUYlh5N6F2tpjUVdnMR7D5wt2fAUwlgh0vK1bXPFQU43npaSNB5Z0zDZUgnyTaFL69hwV4y8VgY5v8w2kWa3RxRgQETnl6i3/Dle7H2IgbDh4b4geDgOPAWBRggZUEYzMNCAP8vGwZE94cCTGjHvUe23oJMcWs2prDV/pCb8T6P+wRZOaK0d5S+Z+PYy6PzAaQ1ceaBvvgmuxQM+ye/FGIREIfpCs7/+kiEXJO1/VMEXu8gWiBaEq982MSFbmwAu81ZGIyCEUWMIo2M+UhshhYuj/E95ZQ4PgW9x+nAH5G4tYKRvsHipjxv29rHZ1gRN331daExCARawUMAxcyigMo08LRr7jEtdyET3LAbu7IWHpaSG/e1VSYrEkeiGLWCnt4H9dEeg4h4HIwjmRyp9ZyCIicoYNmzb18Jdim5lcH9nbNOQBvgGYBjfhaz9ITON+Fj1TPdfRowtK8+932gLwlYHIDYLk3TlC/zUzOtC7qH0qAzE4FQ0t5b5g9BEBbheo2/bNK3gzltDDVlR7XkzG93sbot+A4jfMjJT27YYhxu8qg5FZjEYWddWQd0Jtix41AN3IcBAR2Zul8rtUvCaaBm/ywvayHBce5sLuNBjlC1umQMwHWfRM24Rnpnd82c1bnyKzP29DpAaCS9hyqWW4jGMYhQHU1hq+YGSOYeYtF+hJDpj0xlRRF4pFD2meU/RuMrbhW9x+nBjgwu7p6dsNQO6sWNJ+NKORLW1uXY66Oqu34RMMBxGRvcUTyscKbaQ40DY6N898UIDJjAYNZHKweZwrL+9hvoI9vQzVb/sC0Tq776e3IXKmGLKQLZZ6KtiDUfh85Ys79vSV1jwrQL2oFtq+PSEvaQwHhqo8V6FmandS+vf6yN5iGvfxcfG0tnSeoeb9vfnJWGR4S6v8vtFf9Lfe/+0SaCdDQkRk64HY0ytr3G8zErYhY8R1O6AHOCB34gJ9TyHvquoKCD40oB0KbLIgm4yEFYdh5qvqKEPgtkSKBFoOiA/ANIHuxubeSbOWmjnY5R6B7umAfIkBeGdrzmCFWvhQRSOGYLMqNoqlCZjmqN58EUPcYllFCpkCQyqhffky3vYnr+hPKwKRN5qqPH+24/55F0X3ERN3itr/zg6FrAXwBoCQQpuh0mqIRhOW1WkoNgmMPDV1lKqMhUi+qFYA4hUDXgX2sGMhRIFx7LR24KKXc3zTK34sIj8FNM8BudkpqleGnnq8Hn86O2k3bUxcsMqdkyMPQHVXh7TkBoU0qWIFgFUCjQi0yxLpwtZif75C8gVSrAYmQVHe2y0JdLTt+3bouBzTeGBysPmQlf7ytTxpd/oc6j1vGgG8LaorVORDWFY7DGy0LNlsqBWDKWNVjVEQ7c2ZcVAthaBcILsrsOdIL6OgkJe2tHVd9J8/uxTSLXw1KBGRfS8mFn7NKNhoohmI/kigX7PpUK5bgacBPAYLz4esyL935lfosutXFxUW5B5hQY41gJMB7M0MGGK+zJj5c7s+ftM72QP0SQUe1zheaHor/CpuOjg23O+ruLG1VHJcR4rIsRCcLKq72/G4DUNu9y6Kvhue637LTvs1Odg8zgDug33vdFmlwMOq8pRq9wtN1WXNw/6m2mUuX+k+0wHjCKgcAwOn2KGwJYDFXuvTfMH2gwDztwKdDgfMGVXkiXi853vNc8Y3JXVDs5aaefmFf9haoLWt5VA8aqm8hETilfDc4kYMtRFra43yojm7GwYOEjEO3zoWUJ9NW9/nktF3Y9bS05NZwMzIucbWH7KeA6zHLNHnYp1dL384b1LnzpwfvmNn7qmGHioqJ0Bwws782KWQZ3XD2i+11Pm2fNxf+5ZE/yaqX2LzERHZsjDR3tjaMhF103oYCxsM6AMdMyDG43ZaB0MhvROvh9TC7zdK/IH2qpJNydrWpPo2X67L/CZEvmXXIsVQxDRxQHNVyWtJzJczROQ+mw1W4wAesETvinVueWinBqoDKF/csafLNL4JwbfsNtlTyAcbNH5gMs+XoXb2vmDk7wKcZrM4tQD6O8D6U8hf/EqytjNxwapROaMKTjUUswD5aroe07Ig14T97iuGlOcLW6bk5OU2JbENng753celOhbltU35rpIxdRD5oUBNB3Tp6xMW5jVVe25DCipuvmD05wL9if0KEnheRX+Pnp4Hw3MnrEzGNryL2qeKy/xyX9/eV+C0Wwzk/0J+90+TuQ1vMHKxATj6EXDte1IPj0hC79ZN6/8Wvty3PpnXuCkNkUMNE2eJyrmDL2pJlwW9Jtz6xi9RNyP+2YvmHwT4BqcnRET2Y0F+Gfa7r2Qk0m9Cw0eeUcaoNwQ6wSYDtbUAAgBuStarxPuddC9uPxYucx5UTxeHLKD9WcksZE1cENktL19eF6jHJnWSdkt1cQKJm5urStakdNO1tUZlUc2Jaso8O92dpiq3h6rc59thX3yBSLUIFtsoNs9ArIWh1jcf+OzkIdkmL2wvc+WZ1QL8INVvw7MU54erPLcP5e9kYiGroqH9GMMwbxHoVGdMyOWvcY37U9W3bf1RS56wy7VPIREFbkIscVt4bvEHqdx2eaBt/xy4vqeC8wRaYJN4WAkkjl/hL346WdtweCFrfW++WFZPYKfurB2uWUvNimNnnGIY5nnb7t4u3EEbfqCKpfGeRGDlJcUtOxzVeIORmw3gQk5RiIhsNzCLd8W14qMaz4eMhg0mmsHoXwX6FZsMWOdv1HjADneTTK6P7O0yUWsIznZamyatkFVba/hK5z4m0ONtkC9rFHpdT9eW3yTz7qtBT3rq2w/IcZlXAfplW/Szlnw9VO1ems59qAi27mci5yWbrD30SAy4qtnv+We6d6SsdnVBYUluDUQuB5CSNYhUE1NDVSWNQ8rpDCpkuesjY8a5cK0Asx0xThJptaBVTbM996ZqmxMXrHLn5Re+YZM1JFf1jgc2bY7dmu43W5ddv7qooCB/DoAqO/yAo5CPurs27/fhvEnRZHy/EwtZComKWvPXbkIgclnRRlvs1EUv55RPnzzNgDHJEJhQrI/16LufV7zanksgm8A1soiI7HjJ+TOLWPZQGew4F2kuYvWtX6C6cG1CfxGt8WywS2xW1njeBvB1X7D9V4CxSIAjsz1ffKVzZqe/iCVdCvxqg8bn2+jxOTTXFL8K4Azv4uiRYmKRQA9K6w4ZCI6vb1m2pqasPS3br13mMiXnNmh6i1gKeR2JxMWhOcVP2SVXWuombAFwbdn1q28ZNSq/VgSzk/mIW28MhlrEyiTeYPtpBrAEwCRHjJBUbo9h47xUL+ydN6qgQTS9RSwVrIMl/xdqa1lsl6UnWi6d0NHbo5UvbFpo5o+5UiA1opqbtisgdLf8/MJFAL6V9bMJSExFFyW61v+i+ZKKdbbauZsOjjUDr2HrP0O7fKvqOk5RiIjsx4qDr1+3gfH1LcUK48Y0D9ifsazEPqEqz2V2KmJtL+QvfiXk9xytwHkKiWbtZHDR6smAcU2aB62Pxrq79wr53bV2KmJtLzzH/XyoddGhUK1SyMY0TnY8hTm5i9KWLyXT50H1wDTmyibLwtxQ66ID7VTE+uwEOVzlnhOPJw7pK7glLxpZec0tu351kS8QvcuA8YATilgKWZGwcFKoyn1+qotY3mD7aaL4ZnqPH0u6O7f4QlXuG+y4fmrzJRXrwrM9P4ppbC8FHk5ztpzrC0ZPyeYxrEKejSes/XrbxHZFrJ1kiCDKaQoRkd0uPHihqcbzEiORfoVm3sL03Sbf9xbCmlCV+7im6uL3nZC6Ib/njrjGp6nioWzMF8nJDwh0l7QEX2Szinwv5Hd/sfmSshW2D1ZdndVYVRTUWNc+Cnk6bW2m+Gbl4sgXU73dycFWryGoS9vJ2lcg794nXO2p720Lu6dLc03xq6HXwoeoom7bSwtGcrL3r1Br/Z3Z1l95A9FvFhTkvyOi5zhgQm6pyKJNm3v2aar2PJbq7RcH2kYbMJak8fhXqOrxIb/Hn6zH5UbSSn9pOOT3nGoBF6T5x4rflM5fU5iFo5FuS3FxyO8+tnlO0buZeISGpcpCFhGR3S4/wI2MQvr5gtEj0jfAl0YrETsk5PcshsPWAGiuKlkTqvKcDsU8hSSyKF9OEejpadr8ciuRODA0232L0+IWnjthZWjZ4ydYQK2mKdfVlEW46OWUvikvBzk3AJqf+gkx1FJcFXrq8ePTstDvzrjp4FioynOVJYnjFTJSC3uv11jiHCcU80bKxAWR3XxLon8zRO8WaJEDdnl5HHpkaLb74nStBbUrzCvTdceaqvx+g8b3DVUVLXNc/+733GZZ3fsq5OU07cKk0YW5l2fZLCKUQOzQcJVnETJ4DSlD1FjLqQoRkX0opLmx9Y2/MhJpVltrAEjXI0ePxLrXHxKeU/qmk1O5scqzEInEzKx41HBrEWRBmvqMv2zcHDvMIXft7difzk6E/Z6rFdaX0vHrvUD38O5fUZWq7XkXdxyfjpdH9MZWLTk9XOWp6425U9OlaXbxs3GNH6CQZ3fyqzYkLOvLqX7TWzpnuL5g9KK8fHlHVL/kgPFQTBV1jfHoQel8AUH54jUVELkkTcc/J1TlPteuj4kP6nytLmsOxSNHKeTWtCQ9cGn5wpYpWTKHeDTWvf7gJn/pG5l+rEbC4B1ZREQ205Dq153TDiaaxXPPFujBadj0bxuXPXFapqxlEJpT/FQC1hEq0pTR+bK/97sC3TMNo9aFodZFs9L9xqqREvYXPxjX+DEKWZ36yY78xF0fGZOKTYlp3JCGCc5HFmJHhavdGfHYb9+dn6+FT1DgOoVYw4hHOBa3jmuqLn4mK65pi9qnVgajTwr0N+l6/HmI7fOSxnBgqMpzFWqmdqdzX1xmzjVpeKvoBqj1xVCVpyEjErBmanfI7/6uQn6YhmzKd+Xn/jILTvPfhlpfPy3T1sL6PIZLEx2crhAR2WTgJrJZN6y9mZFIs9plLjFwdao3ayluaPR7vufkOyV2ZIW/6L2umB6jkPcyMV0mLlg1yhC9Mg358rPGKs+8THskqrmq5DVo/FgFVqZyuwL1jDMxL9nb8QU7zhDo/qmNqoTiiZ6jM+5X+psOjoX8nsthJQ6xBP9vkH9rvUKu3tLate+2t2hmtllLTV8weqnkmK8Depztx0GQTijmhZY9fkR4rvutdO/PlMVt0wGcneIYdKhlzXDio4QDCfndCyzF+cMpPu9kUL8xuT6yd6ae5h+PH7Poh3BjS1t8NWcsREQ2GcBZuC18uW89I5Fe3pL9zhXo1BQPXG8MV3kuzdT1DD6q8Xxo9cSO7Z1QZ9qx5eYXfB+KiSketF4VrvL8PFPPwVBVSWO8u+dYhXyUyu2K4OLyhU1jk7aBvkeWJcXtJqHOuB7XPGd8xt4VGaou/nd4tueUWCLmtSCzVeX3CjyvkPdU8KZCllmQQEJwVlfXlrKQ313bUjdhS8Zfyxa37uubMfNFgc4X6Cjbj4FEnogneqb1PZZukx90DMNVJ31Pp6VsLNBhWYkje3M6U/MyXOW53RI9O5XFrN42zHHhZ5k5ecDCTB4/9tOmfYuTbhZoAacuRETpvA5Be+KJqatqSkKMRnqvjb5gdLlA90rhwPWOkN99fjYMQnzB6CQA/xTohHTvS0wTB/Td/bNThYllrsrx+zWlspClkPqQ3z03G07Giob23Q3D/IdA3SmM749Dfvf8JB3P6aZh/D2F3VmbavzIUFVJI7v25Chf2DIlJy+3KYn5+HTI7x7anVT1H+T5TM+VEPyvQF0OCOP6hIV5TdWe2+x0HZxcH9k714XlKdzkhr47sTK4iLW9ykDkuxDckspxtmVZe47EepLeYORiA1iY9rmDyu2hKvcF2VbE6mVgazWLd2UREaWZAH9mESv9fMHoyaksYgHyVKi15aJsGYSE/O5V8XjidBXJiDWdvCXTZ6W0iCXy99Cyx+dly/nYO+FQjZ+hIj2p64t1DmqXJWXybxjmvNRN2qTTSlinsYiVXcqDkS9Uutz/FtGfOqGIpZC/xjSxZ1O151a7XQdzXUjl+RrThHVGthSxejVWeX4L1f9N4ThbTDEz5kcghTwZamv5fjYWsfCfQhZU29ntExGl+4JkXcco2EIq30y0avOWrlmom9aTTQFuril+VVTPz4RjEUldvqjI++s2WOdk2hpqAwlXlTwHoCqFm5zkK57+1REvMNS3HyDQGSm8plwYnlP0Mrv07FA6f02hb0n0RhfwAgDbrwWkIq0JwVkhv/urzVUla+y2f975a0oAOTd1W7QuCc0pfirb8raxquhaFfwhdXmH8yYuWOV2/pxBmjutzrOzbfy4PWNbg65k909ElNYL0mMhf/ErjER6TQ62egGdmaI2T8QtzGq5dEJWvnSl0e/5k0LqnXwMUxa3TRfoIanZmnQjga9GLivamI35EprtvkUhd6RwhPy9kf7KHNO8MHXXFCwJ+4vuZq+eHSoaIieOLsx9S1TnpnI9p2Hnp8rtMd24V9Nsz7123UcpzP1Oqt5UuHV5gaJAtubvljXdFyrk9ZS0K7QgL7/gHIfPGeIJS7++unq3SDb3e/8pZK3iJYCIKJ2DOt6NZQc5yDk/VZMAVa1bUe15MZvjHYpHfqwQx75FzTRd303dwFV/FKp2L8/mfNmg8erUvSxAT/AuWj15pL6tvLYpH6LnpGiS805315YfskfPfOULm8b6AtHbTAOPCnSKAybgKxIWTgpVuc9f6S9fa/PdTVH/Lo1bWrv82ZzHLXUTtlhW4uy+N1amIuKQ8x0+abgq28eP+PjRwgQLWUREabseibwYrip6gpFIOwH02ykazL8WbnvjmqyPeM3U7ng8cZ5CnPeo3EUv5wBIVWHi2ZDf05Dt6dJeVbIpIYnzU9QZiOTkjVh/YJbseiaAXVOQK1bC0vM/nDepk116ZvMGIl915e/6roieZ/txDsRSkUWbNvfs01Tteczu++sLRo8Q6B7Jjws0IYkLsuENmgPpWw8RekWKMvKA8kDb/g4dqr4aanuDP35/XMgCC1lEROkb4VnXMgjpVx6MHCbA5FQMXC21LkLdjDijvnW9LKje4LT99k33npCKN+kpJB5XzdrFXP9rsjO7+FkFbkrRhGHWiH2T4KzUFAywhL/UZ/i1KtA23heM/tkQ3CuqpQ7Y5eVx6JGh2e6LW3803ikv+fh6ivqYht4+jVm9Vbi1vl6B51KxLVNcsxw3XQBUkfgex49bbX1roWFxjSwiorRclOS1kL/ofkYi/UwgRYMaub2pquhfjPgn1m3S/1PIGkfttKQoXwSB5irPO8yST3RaXVeoYF3yQ6/7Tapv8+3s9xQH2kYLcGoKrifRODb+lBmSubyByHkucb0t0K85YHwTV8jVjfHoQc1+zz+d1LsL9MwUbGd9d9fmq5jV26mrs+KamKMp+OFGgK85L0ByG9fT/URfISuGLWGGgogoDQM91Z/zTgu7jFwlBQNX6Yp1J65ktD+tbwFzgXMm4LW1veOnM1Ix0Yl3redE5zNWV+8WEQtXp2JbuS7XTvcLow3zi4DmJ79woD93wLpDNAzlC1um+ILRRw3BbQIdZ/uxDeRfGsMBIb+7FjVTu50U64r6yCEAJqUgRr/4cN6kKLP705qrSl6DJv/FHgLdw9cQneagUWrv+PEnzJBP9BWyei96CuGFj4gotQO9d8Jt9fcxEuk3qb7NJ6oVSW9zwW9WXlLcwoj/t9Ca129P3ULeO8dXWn2AQD1JzxfFjc2XVKxjdvy3ru4tv1ZIKs6lk3Z6+mHhiym4nrT0dG35DTMjI01z5ee9JdATHTCu6VTID0PLHj88PNf9lhODLS6cnII4re7u2tzA1N6x7m79iYr0JL2tRU9yzpwBv+b48dOM7ceQDAcRUQovShauRl2dxUikX55ppGKiGYt1JbhA5+epmxGHqjMWwJcU5IvI5njPhhuZGDu2bTHz65Pe1MDRfW8c3KnJkqSiALGAC7xnJoEWiWqh/Sfa8mQMsX1CfvcC/OnshHPjjeSfr6pBnq/99e+ej0T1zuRfZ3GiI+YLkFhPwprPzPi07QpZykIWEVHqLA+3L1rKMNhlkGDMSMFGfs9f0/rX2LbmTkeslaUyIwVbuYV3Y/Vvg8ZvSv5aWZpvFu1yxHD/9uRgq1egU5I8ydm4bqPFu7EoXdZDcWHI75650l/q6OVqSuevKQTkC8ndinRt6ezm+TqAnjgWJH8rchxql7kcEI67V80pWs2s+DRju0HZ+wwHEVGK5sHQn/BuLBsRHJ7sTVgJXcJAD6BuWg8UN9t6H7euj3VYsjeTUIv5MoD2qpJNQArWUnENf2LrgvmFFFxR7upbZ44o5WMZua+n29qrscrz20xY73N0vnmIQF3JjRn+2HLphA5mT/9W1njeVsijyR366Shv0b772z0WVlyDzIj/9nEhy4L1HsNBRJSSgR/fVGgjExdEdhPobklu8zeaajwvMdqDGlnerDaeEPmK5+4l0F2Smi8qz6zwF3FcNhiJFBQ+VQ4ffjobSS9kaUJvZSJQSscxIq0JxayQ331mJt1prKZ5WAoGgfcwgwbHUut3yd6GYeBQm4dhOcePn9N2HydKQt9mOIiIUuIKvqnQPvLy9ZBkb0PU+gMjPTghv3sVgOftO4FLfr6ogPky2Hypdi9XyBtJ3szBwz73kex8kcbwnKKXmQmUsj4Qckd35+a9m6o8f860Y5Mk322rkLWh18NPMIsGZxOs+xWyJbnXW8PWhSxL8Udmwo59fOtkTyT2nqs0T6XvHCYioiSNYv4RqnI/zEDYqU1kWrKvfArrzwz0kAL2RwiOsuW+GZiWzDJ0391om3v+wiQYyuxT/wjFfsmb3Or4sutXFw3ncSCFTJOkJoyyb6FUTqq/Fq5yZ2z/JMC+Sd5Ep29/780IRplMg2+TTQAKkvj9+9n5+OMJ3Mss2LGPC1ktdRO2+ILRlYCWMyxERMmRMKzLGAXbjZL2TubXq8j7IX9JIwM9eDGJP5QL12JbpouFvZNb+JR/hX80vo1ZMISBvpV4KEfMXyRzGwV5OfsAeGoof8e7aPXkZD+GmlCLP4xQyhiCi3DRy3/HTQfHMu3Yymub8hXwSlKHGzoBwHeYSfahwJ59a1/acN1ahTSvrHHzqbnP648+8+c3GRIioqRdkB5oml38LCNhN5LcQpbiMcZ4aLa++Urs+TZlYb7YTXNVyeuAtCe1XVyy15D/Tk7e7km+pnQ2tb/1AjOAUuiLvunem5CBT/BIUeEeAjXYxFk2AoSOKi+aXW7TfXucLfT5jM8Mnl5nSIiIkjLhsDSG/2UkbGlyUr/dwnMM8TDCJjZcJ2vrGwsnJnfgynwZTherSV5XTSyZMuRBtgz97wzxwvIv1M2Is/kppZNr0fO8gejPM+64DGMyWzc7uWDaspCVsMAfKvq7xn76gqssZBERJccd4bnutxgGeymdv6ZQoO5kbiNmxf/FSA+H9U+77dHEXWvKkv1q9k7tZL4ML1+S+1YnwdAnOopJydwlhTJXKD0TSNErvUs6ZmfWMYGFrOxNaFu2vSjHj/022/Z/SFgWC1lERCN/KeoCUMs42E9+viu5E02RzatqSsKM9DBYlu2WO8jLTe5gVyGrV1fvFmHjDyddNLn5Mry7q5J7955wSRBK5yTbaPAFO76SMQekwkJWtjJkou3SERIPv7nqXTZOP822/R+a2hsaewfdDAsR0QhejBTzQ373KkbCfkwYnuQO9PH+1rVEaag6O+O2G8CpkXAneRMctA57HqLvJvlcHnpfIShO5j7FgffY8pQuW9eTMu72BaNHZMYBSRFbNVsH6lJqw71qysSXKozodf9Tf6qrs6D4N8NCRDRC10ZIy6YtPdcxEnYdu/x/9u4EPK6q7h/493dnsnSnM1na0jZNpvAiBUE2URbZhIqAIhQQFxR5EWaS1PYFAbeQv8sLgi1NO1NFRRYXZFO2itBSUIHKDqUsNjNpuqVZZrq3SWbu+f2fpNUXBdommXtn+36ep099sDP33t/5nXPPOXPvOfZYZ8sfqxjlwWm7akJXtv24JkacnshqZckPTrSjc7U6OGmsGMRElupYZxswm+0LZbZNhA4D8HDV/K6D8uByxrJEC7WvnpVlz/Z9L6z33nP1eYaFiChNN0fVb7VfPY5PumbrTVCcnZhQYD2jPCTrsquzK85OfCrzZdAap/WKgzsXCnQsZtzjGdhn4HOwbdHWUMUGFjxlmkB9Xo/12OS5neNzu8MGP0uzcHM4C0+L/YG99eHfW4nlRYaFiCgtg96XYh1NdzIS2dx7sUod/XrVLgZ5SPFLZFevSYY5fMHMlyG1uXA0X6o+fvSoAd4DRjiYLAmWOGXRREBVUYlnUc0N0TE5fBFjWJIFm8Ejs+9+plwvc29dsv/8D9xdiYgoTTchGzP7X9mmLB746nBHv1+wiVEeSvnItqzq6qoOc/iCmS9D42i+2Oq1CuVaiQbcPkIPl9Fj70PDimJGg2io/Q1sZRT27D035DX1FVE4+Gg2EVEhMJC7YnW+ZxgJosFTBV/LpYFwNF884h09wI+McG7SACkWN2Xd4Bt6WqBi/G27UjTnzr2IJVigeSsYlXX9HwF/CN+L9/1lSQEOvoiIBnvzgWzV3uTVjAQRUUHzODjIsRleys5JAf1CIBK/MQf7bqUsPcoiWxiCPfugR6Q5kUVENHjXt3yjsp1hIBpiJ0XU2TXMxNrJKOcVR1/99JaU2FkzEFGUsLhpzykiGVtjR4Cra8LxmTkWMr7KVbB1BRsZhRzsI77ff0xB/8bQEBENyopo+2tNDEOOEO1xuDM/kkEeUufS0fhpT7JngL2mXuZLFldn6Agnvz/Vs3lr9lyrs5N2lNM1oUch34y2t01Q4NGMnYXInOpw/HyWB+VAZ6OVQcg97zuR1dq+4WWF8FdKIqIBssVcicaTuXZJrjAO3+tEyhjkIQXQ0e3QbS1ODqivq9jhbF+a278PLX7O5su23lEDfSKr28Fc8bHE6X3y4m8maR8aDfpuQuO03h3tPRcAWJaR1htqeUR+Xb2w84QcCV8PM6hgK84yBiH3vP+rhY3TeiF4luEhItp3BvhFy5Xlf2UkcodAnX2cXHUcozwklU5+ub25Z+MAO7ubnM1HjGeRD9KMezwAypwb54gdv6ZsQE9kiWrCwbbLO/7m9Zwop135KbJdobXR9qZPxGaWr/znf29rnLBjW6r3HIWszNCZlXjUejiwIDGt4PsDlJ11B2J6jXmUkcg9H7iNsBizmOEhItrnTmS73bOFC7znGKMOd1xFpjDKg+Nrio8W6FgH62xv3yBvQJ0mcW5iYle6gPkySDXHH7+/QL3ODXKRGPgAydl1V4aXFk1myZNCntDe7oOjwbIwGhvfs9PZhvrxnSm794y+fkqGTnGMePSx/ZviE7O7H4cEs6nwCPT+NXVl6xmJ3POBE1lJkacYHiKifWSjvnVW9SYGItdugp64wyOMAxnlwdlP9ECHy2bAgxZjW3FnB1LCfBls7IpKDnR4kLtxEOXpbPtieQ5gyRe0zUbx1WjQd0Zs5oTVe/qHrXXjWmDbZyokM+u8KSaWFmFRzQ3RMdkaTDHCJ7IK7b4h0muS5tuMRK724T+owWt//UVu+0hEtC/9M3kkWuu7h5HIPank5nWOdoyhYyfOie/PSA+CRw51+AhrB/oBO9WzztnGRKeUhzu44Ptg0kVxqMMN/YDzxVJd52y64FCWfGEyKg8m1T4oFvLfvuvhv72L1pa/bKuer5BkJs5ZFIfKqLEPoWFFcVb25cSsZWYVWgfezH73q7iUWz5wIguNJ6cUsoQhIiLa09hGtmqyO8RI5KbWWdWbFLLNyWOUluqRjPQgBj3A0Q4fYs2A8+Wtdet0HweNg7xmGalyBEt/EG2x5XC+KFYPeLJBxNmdsCy2LQXY5+hSIxfGQr7PtoYqNgz086tC/sdhzNcy1q6Lnji1ctyvdzV3WXfPWcMMK6S6hBv7X8elnGXtsYAVf2aIiIj2eCf8n7090k/ZTaCODjZV5ThGeVAl43TcBj5oufWoJCCOrqVhWcyXQbbF2ZcvsNc4PPA+Fg0NFgu/YAbev91pdh401CfAo7VldxnItRm8lBmBSGJOtsXXNsq+XEHUI0lBMTsa9F/LaOS2Pd/8Ut1/YoiIiD7wZvhENOT7BSOR8+X4D0cPIHIqozwwNTdtqADU4demzGDL3eF8sZgvAxQId0wVwNGFzw3MOwP9TArmLUdTRbFfoLz2cGZA3t+jErYxZ0eD/i+sr90/LeuuxYK+GxXSlKlrEug3AuHE/2RTnI3oP5ht+V6X8LdUyj6mOeSfy2jkvj1OZO1+yuBNhomI6D02a7L7Mjj4mhG51rN5w+EDHFF9S3slAz2AQc6Iok+J06+e2LpikJ90OF9wAtfJGmANU8+Zjg9ybR1wf3h1e2SVQnY625O3zmQG5L3lLbXlj6T7S6NLF89WyP0Za+dFb65ZkLgoW4LcGqrYoOCC73nWm+hRyKsKaUoCH4sG/Se01pe/wrjkB+/e+/d4VICDGSoioncNahTf4CuF+TIIxpvi4JSJ9PXXi4vOBfBTRnufo3a+03PE2zU1qIksBd50coZNVItHqfesTuBu5sE+xsxyNl8U0N54csBPZKGx0Uhk5tsAPuLcZID0tS0/YBbQgN17gR09YeUXAl5/hUBPyEzdxZ2BcFd7NFS2NEui8gaAE5xrS+TVVM/mk5l87midVb2ZPzjnr71PZNnyoHj0aoaKiOhfg5pHd+8URPnAtl+C5ewyMxZwISey9s3EOWt8EJzuZNdTIes21I/vHNRnU/ry3ntPQx7c9eULJ7L2KV/i+wN6vKPlAbzV1jhhx2A+a1RftMS5iSyoHhEId0yNhiqamQ00YPUH9OgN0bNl9H7PAJjm9uEFWgSRP06Z33HiqrqK1zLev1O8JuLcRJZAD/cWjyhjfSVKS996z2Jd854DpIOhIiLq74Z06PbkpYxD/ojNLF+pkITD3eOT+gabjPbeFZcO/7KoOr09+7LBfrDljZZXAOlx+PzOqgp3jGM27Eu+4GtOv4aqkEHni1jyvOODb/HynkSDvwdeG9i8M4XpClmXoVMY7fF4F9XMWz85810885zj9RWeLzDriIZu7z9BNzYaQB9mqIiI+p/G+krs6nGc3M+/kv27C53XKxjnvWhosATiRpwGX963HpWE6suOjqWgXq94LmNC7C1flnoFcnlW54sNxwfGIrgUDSuKmRA0WOvq/WthcAaAzZk4vkAnSFHpY5MjrWMzGQdR87zz9VW+2td2MeuIhmaf3qWwjfkjQ0VEhU4h86NBH3dzzUvi+PocluAyX1N8NGP9waZW1p0l0P9y+jhGzVND+rw4ny8QqUXTyhJmxZ7y5dCLBLq/4/li7EHnS7TW9yYgnc4OvrWypmLcxcwIGoporW+Fbcw5Ljxx+v55DP1QEUY+PHHOmmEZi0GootnpJ9MEWhUoP+xzzDiiIfar9+Uftbze+mfu4kBEBW5Fqn3zNxmG/GTbqcddOMwYn0eDjPYHU7G+5fgxIBtbOua/NJTvMLAdz5f+yQmv/6vMig/Q0GApnM8XAGtaasuHsi2/KvQJx/NF5Jt9MWFi0FC01Jb/xVb9okJMJo4vwHElpSN+jRn3eDJ3I8ITLozA/4fZRjTUarQvbj0qCeAPDBcRFSbpNnbq862N1d2MRX5aVVfxuhvrQapYV5WHO0Yy4u81NdJ1jqh+1IVBypJdyyYMIV/aO55TyDbnO2n6LT6V9f6qK+o+L9APOZ8uMuRBrbowMO6LRU3FzAuZGTRULSH/fWp0VsZ6XNDP1Zx02i2ZOr6KcaO+HlOzIHEms41oKH2kfb+T38twEVEhUkFdrK5yOSOR38VsoA+50Hn1jxLvdQz3f+hfL0T+16WSHno5N07rFagbrxlPCnj99UyQfzdxzpphllg/dONYRoe+vMYOu/dRN55wEQs/5MQnpUOs1t+kih9nbIAqWhuIdGXkXtnbvfMxhaScr696Y0afPCPKcfs8kRV9LbZEIV0MGREVEoXcEb3S9wtGIv+Jyv0u3XhnV83fUM2I/5+ayg/XAjjY8fos0qvbNqdlwtIYecCVvIR+p/qW9kpmyf8pLhl+lUCrXMiX7S32xiG/RrqhfnwngKecb8O0eqpn7CxmCKVDNOS/1kDuytg9GfKjQLjry24fd+3sSQmBLnH++nBI4KTTuOMo0eD70/vo1qOSqribISOiAvLmtu29IYahQDrtu36wcWE9SC0t8hQtZMR3qZm3frJA/p8rAyPVpbFrA2nZlWurpB5RyE4XTnu0Veydx0zZZUqk678skW+7cjDVR1B/QFoWvla482aDivW9yZH2GmYKpSOdYu1tl6Xj9drBN9rWL6aE46e7f+UuvYkkuKEq3DGOqUY0cNbA6rS5kyEjooLovYlsTyrOb7963HZGo0Ds+sHmNy4d7YxAJH4Jgw6xikpuFegoNw5mjNyeru/qDFVsE+B+d8Y6uDAQ7vpMwWfLjHs8HshtgLr0+pzcka5vSmHr793YDU6gw4pR9Esu/E5p0Titd9NWcx4gr2TkBgEt8ojcF1jQeYSbx032brkfkG4Xrs/ngfenTDSigRvQTa4lVPaCQt5i2Igo36nBf7eG/GzvCoxt27e52EWfX+hPTtSE4/UAznClTkM2xkw8rRvXqBr38kWsX0ye2zm+oPPlpFO/I8DHXcqXddGli9O2O+XqYNVGhbq0cZKeVFMx8yq26JQO8WvKtiY1daaKtGTi+P0/dHg8i9x8Jb91VvUmVXd+qLBEP1MTjn+FmUY0wLoz4MZE+VQWEeU3o/hJLOT7HSNReFrry19RyEtudc6LUHRPVUNLaSHGuioSP1ZEbnLxkL9O12ti/xQNlT0FSLNL+VJWVOL53a6F8QtP9YL4J0Xke64dUHEb7r3ATutX2vpz1wb/gh/UhDuOZ6tOabk3hio2GNuenqn1kkW10ustfmz8zevLXOwN/tK1AbnIwqpwx+HMNKIB1JuBfiAJc7sbOzkQEWWCQp6IPbXkGkaicAnMLe4dS4/0Vo4puNcKJs6J7++FPCDQInfqNdQYe4ETX62q81zMl08EKg+7qdDyJRDumGpZcrdALZfuA8leY9JeL2N1ZUtVsNylXCkSy3tfIJKYxFad0qGltvwfKejZLq0N+N6cVj1wxPCSh8c3rB/uxvGiobKnFHjDpd5nqdfyPjBxzhofM41o3wy4Q9AaqtgA4CGGjojyjYq09HRvvyjdv8JTbmlub79HIetdnJy4JBCOf7tQ4ltzQ3RMSak8IlD3XpMTeaRvEObEV2+BfbsKNrmYL98IRLoKZhOKcU1t5bC8jwrUtQGeAnevqStzog1QNZjj4sC/EtBFfXWOLTulQ2vQv8wY+wKFmAydwrHDx5XejRn3eNxoClTxExfra3VJ6fCH3JqoyyaTmjoCgUhidiCSuD0QSTy1+8/jNZHEgsCCri+xDaP3M6hftmzVnzF0RJRPVGS79uKctbMnJRiNAtc4rVeBJjcP2f8a0MKuK/M9tH0ddBk99g8CdfUVCgPbsaeY+hd9N3D5qTqrqTrc9YV8z5e+wcsIb8kjonqgq/lipxwbvMY6NvwWwBrX2hbgEGv0fo8V1OB4xj2eyU3xg6sXxD9ZvTB+XnW46+z+17aaVpbwBjd0LbXlfXXy8kwdX1TPDpx8asSNY/XVV4VscLG+Hje8suQeXP5iUSHkUk2469RAJP7XEq+nWaA/EeglAv3E7j+ftKAhseROGTO2Y/ckF58wpf/rCQ3mQ6s6mhYDEmX4iCgf9P+yqOaLsZm+NxgN6rOzvXu+m53XXZ1za0EgnPjvfI1p30B6eGXpIwI92eX6/XjLleV/dfIYyd4tNwLY7N5gRy1LrF/VLEhclLcDnBuiY2T02McFeoyr+aJy36q6itccO0DjtF4D+ZHL4Tx2RGXpo3n9VEPDUm/Ngvi5gXD80aknn5oo9mKFx8LjHsV9HpGHisTzylSvf/PUSPyxqZH4DJee6MlbzSH/L1XRmKnjC3B5TTje4PiBGqf1iprvu3xtn645rPrXaFhRnK/5M2HBOn8gknjAElkswPF77x9psUAvgeCtqZGuL7IGEgY7kYXGRqMAtwolovyg+GY0WPZHBoL+qa1xwg6F3uhu51UtEb21JhyfmW/xnBxpHTu8svQxtyex+qSgjg92du9wdYvL+VIkFn5TE4l/Nd/ypfqW9koZPXaJ65NYgCZt5/Ml1t52m5tPZe2+upNk9NjH+1/VzLd8icRPm1p52FuWhQdEcCaA0R8Qg5Ldu6TeEzj5tJerw11H8243eNGQ/3oD/CJjg1jB9dUL4pc6fZzmjvZfuF1fLcEFgcrxD+fjk5Q18zoPGGYNe16g5w74vqc6ApC7Agvj32INpEEvmpnE1l+qyHaGkIhymQI/jYZ8P2Ek6D/Z7Vt+qpBVGeic3xKIJObmyxMDkyPtNUUY9axAT3D72Eblwdagf5kbx9poYw4gHW5eX/+TWcBtgUji+7t+yM+DfGmKH2wVFy0T6JHuH13uXF3vf9PxwzRO67VVr3P96qDHjCgq+XvV/K6D8qKRnnGPJxBJzPMATwA6dYCx+LAl1jP5OBHsptjSJVco5JGMDWQtuTUQSXzK6fpqgIYM1NfTh1eWLp08t3N8vuRLINJ5pBR5+voDNUOKjeKHgYWJy1gDC9ugJ7JWB6s2isEdDCER5bA/R5cuqWUY6P20NlZ3G9GrMnHs/gW9Tz7N5a3G02/q/PgZRSh6UaCuD5xVpDclydluHS9R799iG/cnJ3bny3emRhJ/zPVXx2rC8c8VeeXvAp3ier5AtqU0da1bx2sJlf1WRf7ueq6oVns91gvVC+Pn5XSu3LShInDKaX8WaP0Q6k3Rrong+CW84w3SvRfYO9q7LwSwLENtnwfA/U4/XRdrb7pDIS9l4PqOKSrxvFwT7jg+11OlJpz4PMTztEDL0tOWYX71gs4DWQkL15C2MbbVnqf9DzQQEeUWFSxPpHABdyikPQ42r/TfD8hTGeqgnzZ8eOlrNeGuU3MucA0rigOR+I/Vgz8JdGxG4md0zupgZczVfOlsuj0Tg53drdo5MmbsK4FI4uO5li4T56wZFojEI5bgfoGOzEj0gB/s3pnbtUOapNZnoh/dF2OP4r5AOP7TXHx1KRDuOllGFL8squlpG0VuDSzoPIJ3vMFpa5ywY/uOnrNV5B8ZulcOs8RaFAh3THXsII2NBkB9hq5vnIj3yZpw4ps5+aR2f38g0WSJ/nbXq4Fpa0JLPZbnJtbAwjWkiazdW1kvYhiJKKcI1nYncWai3r+FwaC9sY39dUB6MtSBnSAiT9REEgt8TfHRuRCv6nDX0YHKcS8JcLVk7HU3iW7v6Pm+64ftG+wY+3KFZGSCXFSrAfylJhy/OVcmKKoXdJ5YUjriNQEytmunCpbHXo3Ncfu4LfX+51UlnLFboeDrIypzZ7K8PNwxcmo4ERaRJwW6fxrrTTEsz6358npuJrRdNaErleqd7vYmKe+6V5aJeB9zcg24aND3bKbWBOt/elD0xsAppz2TS68GV0faPzx13PjnBFrnUOt9Ts28zgNYAwuTNeT0UfsGhpGIcoVCEkmD09fV+9cyGrRPg83a8n8oTCZ3ZxILGhrrlX/u1pOVg62+AUQgHP+pJdYyAQ7JaD1X899tjRN2ZOLY0drylwG9OXP5oh5L8D/DK0vf7N+dLUtNnts5vmZh4g6PZT0t0AMyeE+wNaWX4tajkpk4/lakrnN/4fd/i8BUS2RxIBL/zf5N8YnZmi+BSNdnR4t3OUSDDtWbI6sXdH6ad7zBa60b15JK2WcqZGuGcjkwwluyqPKmDSOcOoLds+VqhbRlrH1X/WiRx3o1EI7fmM2vklc1tJTWhBM/sFD0ElSdfdrRa13E2leYhjyRFQtV/E0hTzOURJTtFLITBme1hvxvMRo0oMmJ9uU3KeSFTJ6DQCf079YTSbwcCCemZ0tsysMdI2vC8YaR3uKVIvi6QK2M1nPFz6KhsqWZPIdU+5brFfJWhvOlqn93toWJZYH5nSdlzQBnbst+U8Px/y0q9ay0VL+cBXeGm2N1ZS9m6uidoYpttsHXMh0FAS4e5pWVNZH4T7Jpbb6qSPzYQCT+N4H8wem10yzLw4Xfh6i1vvwVY/Q8hSQz1O4dNWJk0X1oWOp15PpmVW8SmCsy3GaViOCb1uixKwOReN3EOWuGZU0CNDRYNeH4V7yVY96yRL8tUK/jZS5yMmteYbLSNDrkU1lElNX6OlVi67nRWt9zjAYNWOPJKWjq4mzYrVegh4von6YuTLxUsyBxES5/sSgT5zFpfteEmkjiR2PEs9YSXA9gTBbU87d6enbMyvhgrrG627ZTn8/UK6n/li+qHxWPtXRqJP5c/wLfGVpjpXpBW1VNOH6zt3TMWgiuTe9aKYPOlxeir7Z8N9Pn0VLrf8IosmD3XC21gNnDh5eunhpOhDP4yo5MnR8/o2Zh/E9FwHMCHOdS23pq30CcN7yh57PAXJqxwa1ieqDyMMdeFW0Olj2kip9lQX0tF6CptHREayAc//bkSOvYjJ1Kw4rimkjXxYHKmW9Ygl+5uWGHANNY6wpT2ip4IJJ4QaBHMaRElG0UYlR1Rizkf4DRoKHd6+KXCHB7VuW3SLsY/ZUxqd/G6iqXO3qwppUlU71jz1BYlwD4zO4do7KlS9NjI3lMS7Dy9Ww5o5oF8XrLwrws6/mtVZXbUrb5XWtd2dtOHmrinDXDikqGf9oS6cuXMzP9tN5/3Be29aZSh6+pr4hmxQk1rSwJeP3LBHp4lt0/n4Qxt2808qDT60oGIolJavRcseQKgX4oE9ebtJM1rXXjWgbymaq5bVOKSopbHCyDp6NB30m5d79MXC3QH2csd1W+Hw35vudU21ZSOuKlTOXpB90DFfpHsfGr5q6mJ3YvUO+oSU0dgSKv91ILuAzQikxdeXPQ7/qSCzWR+DcsYK5T32+AWbGg/xb2vPfUnUmTqZGucwB5kCElomyjwFeiQf8djASlqfPy812dtmzMdXlHVBcp5PGNtj6bjoHn5Eh7jRfeT0Ax3RJMB5CVi84bxVdjIf/t2dbPqgnH77YEF2RpOq9QxaNG8MQ2tZd1hiq2DfULqxd0HmiJ5xMQfAqC07Phyav3zReDz8Vq/X/IpnPqq2tFKHoxUzt97iWVuxW6RA0ehy1PxhLz3hzqQLmqoaXUWznmCAVOEMG5ovrRTF+lLebElivL/zqg6+BE1gcKRBLzBFqfufuCXBEL+Rx5empyU/zgIq/8PVM7re6lvnYqsAgGi5LW1idWB6s2puVrL3+xqOrw6iO9KmfC0s+K4tBsuFpOZBWmtBZ6YGFiWTbchIiI/nUjEA3GrixbyEhQ2ux6cuIvAj0mm09TIUagbyuwXIE3RXWVEVlv1O5Cr70p5SlOebzbtktP8RhvscdrbI9PLCmzxEwxkBpYmCaQj4hqZdbXc5UFsZCvLhvPrTzcMXKMeJYhy19/6N9pUfRNKJYDeEugq4yiTcXuND1mi63FSWDHTo94R3ssb5HxWD6BKbfEmiJAjYocIsDhgJZne74o5AfRoO+72XhuU+fHz1CPLMqmp9c+wBaFvKLAG4A2w6BVLGlP2SaBVLK7x4PtHhSXlHrs0hQw0rJkFIxMtkSqAakW6MEKOVKgRVmVG7Y5OVpX/tRAPsOJrD1oaLACFTN/L6LnZ+4+aM5tDpY95MT3Vy+Mn+dR3JcDQ/5mhT4PyCtGtEVS2qq2vaZlY9dGNE7r/fcyW1E8oXy/UaXqnaBiVXlEJqtYB0FwjGh/G1+SZdfW2Rz0uf40GCeysqDk0/llgfmdJ4nHWsqwElFWDG45iUUOmTS/a0Kxx3o+nVvA06AHKkujr8bOyNSuc/uUL00dgWKvd5lAy1hiGb4vqDwY65j3OTdeuxn0ACmc+KYleiNLKwP5YcvxsTrfMwP5DCey9qJpZUnA439cRE/M0D1iJ4DTokHfsw7V1x9Yot/O8dTfvPvvMTnYB8hI/eBEVual9deeaF35Uwp5gmEloox3RjmJRQ5aU1e23rZTnwawhdHIYAdWsFy3bDw3myex+vNl1zpMn9k9oKLMWbazo/vibJ7EQv+O4L4fK8D7Vwb0qLYyCmlWf0CPbt14DoAVmTi8QIcBeGhKpOu/HKqv31XgtzleSmNycRJrt7+ykhWmtD+2bNR8m2ElokziJBa5YVVdxWspxYxMbTNe6BSyrjuJM2PXBjbnwvlGg75njeiXFGJYehkZzjZvS/We09Y4YUdO5MvSJXVGufasy23KhnX1/rWMRPr1tdM7U5gOQUbiK1C/B9ZjVeGOcU6kTrR9w1cV8jRLOhOdftzNIBSmtE9ktYTKXjCQuxhaInK/EwrlJBa5aVXI/7gR/TwnJ1wfcLZBUyfl2qCz5Ur//ar6NZag6/kS25nSkzfUj+/MmZO+9wJ7Z0f3xQrhkh1u5Ynqw4yCc/raa7Vl+rteY3OVQKcUiXdRebgj/YuzN07r1S0bP6OQ51nSrrbtT0ZrfSsYicLkyEKSvd16nUJ2MLxE5OLNzBjVL3ESi9zWcqX/fqPmy5zMcq2ud6mdPCMaqmjOxfOPhfy3G9EgS9K1fFkHTZ2Ri0/atDVO2LGjvfssBZ5lSTrPhh1hFJwVrfWtsMWcDUhPhlqEj4wW752OtO3XBjYnsXX6rg0QyPm2Haq2uYaRKFyOTGStne1fp+AilUTk2kAlKTDntoTKfsNoUCb05Z7AXMLJLMfrepvayVNidZXLc/k6YleWLeRkliv5sgqaOilXJz2xezJLt2w6UyFcB8ZZ97aGKl5lGFy4X15Z/ldb9YuZul8K9NxAJH6JE9+9Oli1cXuq9xROZrnSwN8Uqyt7kYEoXI5t7dvbveMmhXDBRCJy9j4msl1tM92prZWJ9lVzsOzXAr2Ia2Y51Wftn5Q4Mdcnsf6pfzILuJSTn47ly9vdKT0hlyex/pUr1wY272jvnq6QxSxZJ0hnb4+ZyTi4pyXkvw/Qb2SwzG+YOGfNMCe+eUP9+M5Uz5YT+Jqho+X3UPSpJd9iHIZu/6b4xEC468uBSNd1NZH49wKRxOU189sPzYVzd2wia+3sSTuNsWuZHkTk4EClS1PmpFhd2ZOMBmWD5qD/3v7d6US2MxpprOuC5fkyKfFusaD/VwK9KHOv2eTtveH57ameE/Np4e62xgk7ou1tn1bI/SzhdLYt0msb+/zVs8rbGA13RYP++Qpk5A0egY4rLRl+sVPf3zqrepNu2Xi6iixhSae99B7q7t5+Ee69wGYsBq8qEj92aiSxdJgXa0TkDoH8yAIaBfozy+N9PbAw8U4gkriwv7pkKcvJL2+pLX+EN1wicqjz2QJNfYyPFVP2dc59f4Jtn9i/IDmlw583JnF8vu4m1hz032tsnKqQOIs6DfcGyAM72rtza2H3fdU4rTca9M0wip+wpNOSK1uh+GxLbflfGI1M3S/912VqkzAVudDJ749dG9gc3dB2JjdBS2edxa3NSxd/bu3sSTsZjcGrCccbvP1rL+pJ/WswqoaM2ickgY+p0S/33UdF9UCB3h0IJ+4Z37B+eDZeh+X0AXptU99/oyAiSheRl1Mm9fF8ezqD8qhzXlv+sia7j1XIa4zGkEYakeb2189K1Pu35PNlxup8zxhjf1wh77DQhzTIuTHaPm9GW+OEfN5wSGMh/1UGciVfYx5Krkir2snj+n94oMzmc3vbZQp5PAPHPh4z7vE4eoTGab2xoO8SVTSyqIdUX40BZkWD/q/zSayhCUTi37EE1wPSbat+MRr0H9ccKovEQhV/aw36l0Vry+6KBn3n9U9qQTaI6PnDK0t/nY1PZrlyQlPDXUGIhJk6RDT0ca08vGND90V5PlChPDFxzpphpaUjbgX0i4zGgLon3Qq9Ihr031FIV+2/sWvUfqOsOwX6WebAgAY524zoV1qu9BfUWwA18xPHiQf3CXQcs2BA+bJ4e6rn4nQ9tVc1t21KUUlxi4Pn+3Q06Dsp39u+saOspwH9iJvHTfb0VrfOGr/KlQmEcNdnINZdAh3FWjig/E+IrRc31/n/nFXtbyT+DQuY69T3G2BWLOi/JZ3fOWV+x2Eej+eV/rgaOcvu3PykVTH6LAH2F2Bk/3EVbZYlT0SDvjVV87sO8nqsFwQ6UlUviYbK7symMrDcOEhzqGyhQpayKhLR0Bp1CUefXHwuJ7EoV6ydPWlnc9D3JYXWch2kfey0ivwjZaeOLbRJrD7xa8q2RoO+zxmVaxSSYjbs0yDndRvmqEKbxMLuJ/mSPfYRgDzFTNiXXIGqyvejSxdPz8tXT3O87bN7k5/qXzbCTcWe/dw6VDRU9qAx9lEqWM4S3+f2/XlNdn8k2yaxdp+c5lo8PR7vD6T/QSa5PVbrW4T9Ssd5BPdaglsg8m2INHgs/BJASyCcmN5aV/a2Qr/b/2GR76Ohwcqm63HrZFST3V/hK4ZENMgbmQ3VUCzoq+UjxZSLosGysEmCHdi9dhbws23beo9YVVdRyK9kaizk+7Ha5mMKWcms2OPNYW40FT9mVbCsYF/JXD2rvK25fd6pUL2Ok597tAa2OSUa8n0v3f0I4y3qdTTNRQtiPaCWb1S2a699hkK6XBsIi7q6a2xLbfk/Uhu2HKOQJlbJPfb7DRQ3RNvbTojNnLA6S09zcy7FtGpuy34ApvfH107O/Y94t0aDvuHRVHyUAncL1APB1/v+v+3bkz8HpEeAyVWV9cdk0zW5NqvWl4TGZHKbVSLKyZuZYJOBTm8OlUUYDcplsZm+N/o7sIof90/O0v8RrDUwZ0VD/ivarx7HHR/7n7Ype3GLpo4wKgsUuffLr8ODnJix9dTmkH826g/gk46NjaY5VHYDYHNdvvfPlzuSPVs+HK0rd+TJtTXLV3U62aaLkQ2Fc58sX2kbPUshrkzede+w17t9ja2N1d3RoG+mQs7sn2Cl97TvqqlPNIf816FxWm/2nqc6ukGLqqb1qVGvd+ThAvUqpCtWV/n+P6rWH9AjilW7T6C976++PpkCz/f97yLVI7KpDFx9PKyl1n+bQv7IKkpE+2gFjH10S9C/mKGgfNDfgQ35r4GxjwHkFXZYoUZlQSKJabFg+aPMkH/XGarYFgv56mDkOABvMl/EVsWPd7R3HxqrK3uSGfLvosHyl6Ltrx2l0G8B0s18kZgNfDIa9H2ldVb1JscOdOtRSYG+7dh1iBbU5OSqWv/f1eD8/qdynM2PdW1XTejKXH31/SmRwiH8seJd7TtwY3/7Hqr4W7afr+lNOvuEvdjL09uOeHatpSj6fjtqVwQWJh4KRBKvQnCtAr9Pyrbr3vXpdbvKyMqq9Rhdf8+xp3v71zj7TET7cEO7f7Pax3JnQsrLAWdt+cvNSxcfbVSuAKQg12pRlb/AmKNiIV9dvu9KOPR88T3X/GrL4QaYpYJNBXpPeBwGh0VD/mu4TuIeNJ6cigbL/jfZ0/MhVbmvIHNFZLsqvtPTvf0Qt34IM4Bza/gkpeB+zIvV+haJ6uXOtima8R0r++59ffdAk8KxUDxXwH3+pWonPxIN+q/Nlfa9ddb4VQqJOfPt0tnSHnkjrd9o7X4VUuU9mw0INLnr710LvgNy0E4dlnxXAY3e9Re2ZVMZuD6RtXb2pIQauZCvVRDRB9zMjEK/FQ36ZnSGKrYxIpS37r3AjoV8PzNbNh4AxQ19g68CqeNvGcV50ZDvE9Ha8peZCPvo1qOSsaD/lp1291QVmVcoT9wo5NX+106DvjOitb4VTIR9H2RFQ74ZtpgTASwrkFyxFbi1N2UOjIb8P1w7e9JO946dusOha3oxNtP3RiHmcHPI/0ujuN6xMlO9NVuutaXe/3xzyH+cUbkYkGgB9fnfUui50aDvlA983S2bz1/VkV38TN/3Njam9YlEY+zdeaVV429eX/Yf5dASvdJ3TvPSxf/Vd88V6GFjYH35X/9A5LDdF5xV63ZmZOX5aK3vOVHzHXYziOjfSYeqOT0aLPtf8DFrKhCxawObm0P+63Zs755igDkK2ZGvHVZj5PPR9nmHxEL+B1jyg7O+dv949ErfN3p77BoDCefrbph9nendA5wj+NrpEAbIV5b/tTno/5iqfCpfJ7QUklTIHdDUQdGg/+tr6spcX/eoJVj5uhPLpxhjNxb0/THkbzSKn6c/Z/BoS6jshWxL5VjI97vm9tcOguKy/H6DSZpt1S/29QeiwbKcXXZo586ecLqfku7rA/b2YG7a26ja8n8oZKUAMmJYyZfe9x/de4Gt0D/0n4dYp/X9HQh3nSzQ/VWkd5PBkqzKokweOxBJ3C/Qc9nNICIFnum19YJMdECJssnEOWt8pSXDLlexavs6Dzlft0WWqNpzY8HyRZygTr+amzZUYETRFRYkBGhFzueLYpERzG0J+pcwXxzIl/mJ48SDWQDOFaiV45ez2Qh+3pPEvHX1/rUZj+289ZOluOQ1UeyXnrog90VDvhkFn7Qz7vEETjntD6J6dpruSduTmvzw6mBlLKuv+/IXi2oOqzlfBLMFelSe9PWfVYObY51ND6b7iaNMCYQT/y2Sxqf7FLObQ/65jrRRkcQVFnQhIJ1JTX0YvXZpUUlxi0JeiwZ9h/f9m+pI+4c98L6mgk0bk6ga65XFAj1aFT+LhvxXZFPsMzmRhfJwx8gx4lkGYBq7FkSFSfufzJUfxTpeux6NJ3PrcKJ3d2I/XH2WWHIpgE/1b4ecM6TDqN5lA79sDfnfYmG6oGllScDr/6xAv6rA6ZLhPt7A7gOyXoE7RFO3cV1Ed9TMWz8ZRSVfEchXBTol5wbDip/v7Oi5J9vW06lZkDhTLDychknCFWbLpuNi1wY2M1uB8Q3rh4+oKFkMwcfS0N5cFA36fp9L1x+IJD4O9D+lNUOgI3OrvspWQH8NY36Rr8sJBCKJ2/ruvWn4qnubg/4LHfsRp2GpN1B52DKBHqmQl1KaOqs1VPH+u6I2rCgOVI67Q4CLFBJPaeqQD/y3meppZvoEJjV1BIq93hcEOpbNNFFhUcgGVfPFWKhsCaNB9MGqwh3jimB9TsU6D8BJ2fgkhUI2AvgDFPdGX4stwa1HJVlymbF/U3xiiQfnieB8AMdl56SWdKrqA0ZwX8vSJUtx7wVcOzVDBVG9sPN4MZ4LLNHP9HXNs7S/8JqoubvHNveuqa/I6jWEahYkLhILdwq0aJBfsWJnCtOz4SmzbDL+5vVlI4aXPDWUByCMaDB2ZdnCXI1Bebhj5Gi1zoVlXQDB6aJanKXNSrcCi2Dw+57e7Q+7uV5dRvQ/NXjqXaL4/BDauD9G29suROO0Xqf7B8O8shTQqf0/Ohr94Q7T+7sN9eP7Nx6aOGfNsOLi4dPFg0ZRHApgixqZHq31Zd1mBFnRsakJd50qYv1pCA0+EeUYFXl4e7Lna/9sOIlo3zvzw0tLTxFLT1fIaQKtytDA0hbV5xWy2Fj2Ey1PLn2WkxHZp/qW9koUeU6zxPokgNMy9bqqQpIAlil0sQ083rp0yQvMl+wbfQYWdH5ELc8nZddTfR8HtDRDfYR2GPwVgie6U7oo1yZ1asIdx1uW53dQTBxgPXkgia2XrQ5WbWQ6vtfkSOvYIoy6U6BnDTC1O21jX9pSW/5IvsSiPNwxcqTlOUMMzhBLThPV6oz26yErAV1iVBd1d/QuKcDdZWVquOsaFev/DWROo3+TCsUNsacWN7h1T5w4Z42vpHR4WICLdp+DAdABoBuCCe+aIF2mRi7L1o1WsuYXukC468sicgebaKL8ppAdqpgdC/l+xmgQpaFjP7dzfFGJfFRUPqqWTANwCFSnpPMpHIXsFOBtA7whwOtq47ne5PaX8/5X1jy0f1N8YrEHx1rA0f25IjIt3ZOh/TtwKt4CsEKhr4qRv0dN/GXUH9DDEsghDUu9NWWHHm5ZOEbFOhKCaaL6IWDXVuxpbF82AHhHVF+G6MtJGy+21pW9nQ8TDaPhuQoitQL17yUGLxk1jS2hsoeZeHtXHY6fb4l8V6Af3nNbhE1Q/CyJbTfm++Rg/xptntJj1dKPCuRIAH1te5lDffk4gFcAfQW7XlF7OtteO8uUKZGu//JAGgE5T6DePcTQAHjItlPXr6qreC0T51oV7jjcI54vCeQUAfYHtEQh66FYpop7Y7W+Rdkc66x61DwQiX9HgO+zChDlJwX+pklzaWxm+UpGg8jBzklDSynKRk2xRCZ5BJMBLVfIWAXGimCEqox4T4dAsEkU2w2wUYCNqlgnFlYDWBNtn7cuXxZmpfca37B+eHFFSVWRwWS1ZDLElOGf+QIM/898Eelfv2OzAtv6ckVUEyqyPgVttbuxZu1s/3ou1J7Hkwi3tFfC8lahCJMsxQRAylThE8EoAGNU/3180Z8vik0QbFLoxv4dio291his2wormqj3b8nrgF3+YlH14dWfEMVxIjjwX/VJtBMGy1MGi1fX+99kZg1czfz2Q+HxngrFwYBU7Mo33QmVlWL0mWZNPFXIE+jjmtrKhxV5DxKVvro62Yg1UUR9ovD19QkAlKB//U0ZtWtiQLcpJCXQnWZXn2BTf30F1quatZZasZ7e7e+snT0pwezbs4lz1viKi0ecDkuPFkiVKrwi6OtHrVHVV1K95s+rZ5W3MVKDl3VrJkwNJ8IQDbJoiPKHQnYq9Fux9qYmDoaJiIiIiIhosLJuB6TE0aWPjR350QME/YuLEVHOk6eSSE5fFSz/E55+mr/QExERERER0eBHmFl5VjPu8dScdOpvLcEFLCKi3LRrjRRzTTRYFuErJkRERERERJQOkrVn1rCiODBu/H2iejaLiSi3qGJRqrc31Dpr/CpGg4iIiIiIiNJFsvrs+iezxt0uis+zqIiynwKroVofDZU9yGgQERERERFRunmy+uyejtgbhx/1R191zf4AjmBxEWUnFelVyI0723suXP3NyjcYESIiIiIiInKC5Mp5BhYm5orqTBYZUXZRyGJN2sHYzPKVjAYRERERERE5SXLpZGsWxOvFkrkCtVh0RJmlIi3G6DdbQv77GA0iIiIiIiJyg+TaCQfCXZ+BWL8T6DAWH1FGbFbID6LtbU1onNbLcBAREREREZFbJBdPOhDpPFJg/QHAJBYhkTsUkgTw0x07uv9f21UTuhgRIiIiIiIicpvk6omPa2orH+EtuVugp7AYiZyjgArkN0m793utdeNaGBEiIiIiIiLKFMnps59xj6fmlFNvsBRXsSiJ0s+oPAiT/G6srnI5o0FERERERESZJvlwETWRzk9b8PwK0HIWKdHQGZUHbdtubK0vf4XRICIiIiIiomwh+XIh1be0V0qJ93ZLMZ3FSjQ4nMAiIiIiIiKibCb5dj2BSFcQsG4Q6EgWL9HeKcSG6D3aKz+KzfS9wYgQERERERFRtpJ8vKiaeesnS1HJTwX4FIuY6P0pZCegt0PtOdFQRTMjQkRERERERNlO8vniaiJdF4tYc0S1kkVN9K9q36HQ+Tt29Py07aoJXYwHERERERER5cyINt8v0H9j16ixI+VbEJkFaAmLnAq4ur9ioPNjqcRvUX9AD+NBREREREREOTeyLZQLrZq/odprFf9YRM9nsVOhUEgSovdBZUE06HuWESEiIiIiIqJcJoV2wVWR+LFFwPUAzmDxUx5X7SjU/CIJc3trqGID40FERERERER5Mdot1AvnhBblGxXpVaN/BPTWWKjsyf4HsoiIiIiIiIjyiBR6AKYsiH/UI3IVBOcK1MOUoFyjkBdEze29sv13q4NVGxkRIiIiIiIiylfCEOxSNbdtSlFxcb2KXCbQUYwIZTOFrBLVu3tt3LW63v8mI0JERERERESFgBNZ/8HXFB891otLAFwuwCGMCGVRde00it+L4rfRWt8yvjpIREREREREBTcyZgg+WHVT/BiPF5cr5EKBjmREyG0KaVPF/ar2vS1PL30G915gMypERERERERUqDiRtQ/8N3aNGjNKzreACxXySYFajAo5RSHvAPqQ2vJgrGvec2hsNIwKERERERERESeyBqzmpg0V1nDv+SryeQDHCWNIQ6SQFIBnADxqjP1gS235PxgVIiIiIiIiovfiJMwQ7N8UnzjMo+cYS84WyCmiWsyo0D5aY4A/Q/GnTTYWJ+r9WxgSIiIiIiIioj3jRFaalIc7Ro60PGcI5BxLMR3QCkaF/kkhGwEsBcyTNrB4VbDsHUaFiIiIiIiIaGA4keVQXKsj7YdaKDoN0NMA+YRAhzMshUMhXQD+ptCnBeav0fYFr3CtKyIiIiIiIqKh4USWGxpWFE+prPiYpdaJluA4AB8DMJqByQ8KsQG8oarPiyXPJ5P67Op6/1v9/xcRERERERERpQ0nsjKhocGqrgweIuI5Tox1HARHAXogF47PDQpZBejfofKCIvX3nR2pl9saJ+xgZIiIiIiIiIicxYmTLOG/sWvU6BH6EcvyHAXokYAcCeAAgVqMTmbs2k1Q34ZguRh93aj1+g7T88KG+vGdjA4RERERERGR+ziRlcWqGlpKveUjD4bIIRA5uP8PcAhUp/DprfRRyE4AKwX6jkLeMWreVmPeWLV89Zu49agkI0RERERERESUHTgZkoMmzlkzrKR4RA3ETAWsqRANAHIAgKl9/7dAvYzSe1K9U4EWQFsArFLIKoU2w/SubKkdv5rrWRERERERERHlwOieIcgzDQ3W5P1qK60ia7IIJnmASUYwEYqJIlIJoO9PmUDL8uSKtwDSCWgngDUK2SBq1kOw1oZsMIp1vR09rVzDioiIiIiIiCj3cSKrUDUs9VZVTCuzRCsAbwUEYzwG+ylkPwBjINhPBWNgMEYEIwAU9f13gRYpZCQEpaJail2v5hULdNg+plwPoN27s2+rav+Of5sBmN1/J/snpxRbYGEztP/Prv9tY4uq6YKxOlLGjq/e1BFH47ReFiYRERERERFRYfj/AQAA//+s9d+cOEM8ZwAAAABJRU5ErkJggg==;" parent="1" vertex="1">
                    <mxGeometry x="-65.80000000000001" y="1100" width="94.8" height="24.37" as="geometry"/>
                </mxCell>
            </root>
        </mxGraphModel>
    </diagram>
</mxfile>